{"glyphs":{"0":{"ha":684,"x_min":50,"x_max":633,"o":"m 301 0 q 218 20 258 1 q 50 477 50 106 q 106 798 50 677 q 302 948 174 943 l 302 860 q 229 818 266 856 q 142 526 145 724 l 142 460 q 195 179 142 282 q 301 88 240 94 l 301 0 m 382 0 l 382 88 q 408 95 396 91 q 543 460 543 149 l 543 526 q 490 766 543 670 q 381 860 442 854 l 381 948 q 479 918 433 945 q 633 477 633 821 q 576 146 633 269 q 382 0 510 4 "},"1":{"ha":262,"x_min":50,"x_max":212,"o":"m 50 804 l 118 804 l 118 0 l 212 0 l 212 949 l 118 949 l 50 894 l 50 804 "},"2":{"ha":686,"x_min":52,"x_max":637,"o":"m 52 705 l 133 689 q 202 826 146 779 q 293 863 248 863 l 293 949 q 142 888 209 944 q 52 705 60 815 m 77 0 l 625 0 l 625 90 l 77 90 l 77 0 m 77 151 l 176 151 q 233 286 178 224 q 420 411 283 340 q 477 441 461 431 q 533 477 509 458 q 636 674 633 553 q 616 795 636 739 q 358 949 556 949 l 358 863 q 399 860 378 863 q 547 674 547 840 q 509 574 547 620 q 380 481 477 536 q 346 464 372 477 q 309 445 323 452 q 77 151 77 321 "},"3":{"ha":688,"x_min":52,"x_max":636,"o":"m 368 -4 q 526 39 458 -4 q 636 256 636 111 q 533 473 636 400 q 636 689 635 541 q 590 845 636 779 q 368 949 515 949 l 368 863 q 442 850 408 861 q 549 686 549 812 q 342 515 548 517 l 342 430 q 549 259 545 429 q 532 174 549 212 q 368 83 488 84 l 368 -4 m 52 240 q 98 110 57 171 q 293 -4 168 4 l 293 83 q 258 90 278 83 q 133 256 152 123 l 52 240 m 52 705 l 133 689 q 202 826 146 779 q 293 863 248 863 l 293 949 q 142 888 209 944 q 52 705 60 815 "},"4":{"ha":675,"x_min":37,"x_max":625,"o":"m 37 195 l 393 195 l 393 282 l 133 282 l 393 726 l 393 888 l 37 282 l 37 195 m 458 0 l 552 0 l 552 195 l 625 195 l 625 282 l 552 282 l 552 951 l 458 951 l 458 0 "},"5":{"ha":705,"x_min":53,"x_max":655,"o":"m 56 480 l 138 431 q 304 522 201 518 l 304 606 q 152 556 224 606 l 176 863 l 578 863 l 578 949 l 95 949 l 56 480 m 368 0 q 532 53 457 3 q 655 302 655 137 q 616 465 655 392 q 368 606 540 605 l 368 522 q 456 499 412 521 q 568 304 568 444 q 510 152 568 214 q 368 85 448 88 l 368 0 m 53 171 q 102 90 68 127 q 302 0 180 0 l 302 85 q 130 202 180 96 l 53 171 "},"6":{"ha":713,"x_min":50,"x_max":663,"o":"m 330 -1 q 194 38 252 1 q 50 477 50 132 q 69 665 50 578 q 330 947 125 932 l 330 860 q 320 859 326 860 q 141 473 141 821 q 156 496 148 484 q 330 576 214 576 l 330 490 q 233 457 275 487 q 159 286 159 401 q 175 203 159 247 q 330 85 220 88 l 330 -1 m 404 -1 l 404 85 q 515 137 468 88 q 575 286 575 199 q 541 414 575 359 q 404 492 492 488 l 404 576 q 563 525 498 576 q 663 288 663 445 q 597 94 663 176 q 404 -1 521 0 m 555 757 q 543 781 549 769 q 403 861 494 861 l 403 948 q 487 933 445 948 q 628 806 583 898 l 555 757 "},"7":{"ha":600,"x_min":50,"x_max":591,"o":"m 591 863 l 591 949 l 50 949 l 50 861 l 591 863 m 269 0 l 365 0 q 373 87 368 42 q 583 798 419 490 l 487 798 q 419 648 450 728 q 269 0 294 340 "},"8":{"ha":693,"x_min":50,"x_max":643,"o":"m 309 -1 l 309 85 q 239 103 273 88 q 137 273 137 148 q 149 339 137 309 q 311 430 186 426 l 311 517 q 222 537 260 518 q 144 677 144 579 q 160 758 144 719 q 312 861 202 854 l 312 948 q 141 879 216 948 q 54 677 54 796 q 157 473 58 547 q 50 266 52 411 q 104 100 50 174 q 309 -1 182 -1 m 385 -1 q 555 64 483 -1 q 643 266 643 144 q 537 473 643 411 q 544 477 540 476 q 639 677 639 545 q 579 848 639 772 q 381 948 502 948 l 381 861 q 484 823 441 857 q 551 677 551 769 q 538 613 551 643 q 382 517 502 519 l 382 430 q 434 423 408 429 q 556 273 556 395 q 536 179 556 221 q 385 85 492 94 l 385 -1 "},"9":{"ha":711,"x_min":50,"x_max":661,"o":"m 378 1 l 378 90 q 458 118 420 91 q 570 467 570 203 q 556 450 567 464 q 378 372 492 372 l 378 460 q 445 473 414 461 q 551 663 551 515 q 528 755 551 708 q 378 861 480 857 l 378 949 q 524 907 464 949 q 661 463 661 811 q 637 252 661 349 q 378 1 575 0 m 315 372 q 167 410 229 372 q 50 659 50 483 q 121 856 50 772 q 315 949 199 948 l 315 861 q 193 803 243 857 q 137 659 137 742 q 155 566 137 608 q 315 460 197 464 l 315 372 m 76 152 l 149 201 q 174 161 159 180 q 315 90 232 90 l 315 0 q 233 14 274 0 q 76 152 129 49 "},"A":{"ha":620,"x_min":42,"x_max":583,"o":"m 42 0 l 133 0 l 279 655 l 247 806 l 224 806 l 42 0 m 233 164 l 456 164 l 491 0 l 583 0 l 372 948 l 279 948 l 433 254 l 252 254 l 233 164 "},"Æ":{"ha":986,"x_min":90,"x_max":951,"o":"m 90 0 l 191 0 l 408 859 l 506 859 l 506 324 l 336 324 l 316 240 l 506 240 l 506 0 l 951 0 l 951 91 l 598 91 l 598 426 l 823 426 l 823 517 l 598 517 l 598 859 l 951 859 l 951 949 l 334 949 l 90 0 "},"Á":{"ha":620,"x_min":42,"x_max":583,"o":"m 297 1039 l 359 1039 l 434 1245 l 347 1245 l 297 1039 m 42 0 l 133 0 l 279 655 l 247 806 l 224 806 l 42 0 m 233 164 l 456 164 l 491 0 l 583 0 l 372 948 l 279 948 l 433 254 l 252 254 l 233 164 "},"Ă":{"ha":620,"x_min":42,"x_max":583,"o":"m 229 1137 q 239 1097 229 1118 q 328 1039 266 1039 q 385 1058 359 1039 q 427 1137 427 1088 l 372 1137 q 370 1123 372 1131 q 328 1093 361 1093 q 315 1095 323 1093 q 285 1137 285 1104 l 229 1137 m 42 0 l 133 0 l 279 655 l 247 806 l 224 806 l 42 0 m 233 164 l 456 164 l 491 0 l 583 0 l 372 948 l 279 948 l 433 254 l 252 254 l 233 164 "},"Â":{"ha":620,"x_min":42,"x_max":583,"o":"m 198 1039 l 264 1039 l 328 1171 l 393 1039 l 460 1039 l 357 1245 l 300 1245 l 198 1039 m 42 0 l 133 0 l 279 655 l 247 806 l 224 806 l 42 0 m 233 164 l 456 164 l 491 0 l 583 0 l 372 948 l 279 948 l 433 254 l 252 254 l 233 164 "},"Ä":{"ha":620,"x_min":42,"x_max":583,"o":"m 191 1095 q 195 1073 191 1084 q 247 1039 210 1039 q 266 1042 256 1039 q 302 1095 302 1055 q 300 1114 302 1104 q 247 1149 286 1149 q 227 1145 237 1149 q 191 1095 191 1131 m 354 1095 q 358 1073 354 1084 q 410 1039 373 1039 q 429 1042 419 1039 q 465 1095 465 1055 q 463 1114 465 1104 q 410 1149 449 1149 q 389 1145 400 1149 q 354 1095 354 1131 m 42 0 l 133 0 l 279 655 l 247 806 l 224 806 l 42 0 m 233 164 l 456 164 l 491 0 l 583 0 l 372 948 l 279 948 l 433 254 l 252 254 l 233 164 "},"À":{"ha":620,"x_min":42,"x_max":583,"o":"m 218 1245 l 293 1039 l 355 1039 l 305 1245 l 218 1245 m 42 0 l 133 0 l 279 655 l 247 806 l 224 806 l 42 0 m 233 164 l 456 164 l 491 0 l 583 0 l 372 948 l 279 948 l 433 254 l 252 254 l 233 164 "},"Ā":{"ha":620,"x_min":42,"x_max":583,"o":"m 114 1039 l 543 1039 l 543 1099 l 114 1099 l 114 1039 m 42 0 l 133 0 l 279 655 l 247 806 l 224 806 l 42 0 m 233 164 l 456 164 l 491 0 l 583 0 l 372 948 l 279 948 l 433 254 l 252 254 l 233 164 "},"Ą":{"ha":620,"x_min":42,"x_max":709,"o":"m 709 -244 l 709 -172 q 654 -163 681 -172 q 582 -54 582 -134 l 507 -54 q 526 -140 507 -99 q 709 -244 576 -244 m 42 0 l 133 0 l 279 655 l 247 806 l 224 806 l 42 0 m 233 164 l 456 164 l 491 0 l 583 0 l 372 948 l 279 948 l 433 254 l 252 254 l 233 164 "},"Å":{"ha":700,"x_min":83,"x_max":618,"o":"m 83 0 l 174 0 l 320 655 l 288 806 l 264 806 l 83 0 m 274 164 l 492 164 l 528 0 l 618 0 l 414 945 q 418 948 415 947 q 472 1038 472 975 q 458 1090 472 1065 q 363 1145 427 1145 q 311 1131 335 1145 q 258 1038 258 1100 q 260 1015 258 1027 q 321 943 273 960 l 473 254 l 293 254 l 274 164 m 315 1038 q 317 1055 315 1046 q 363 1088 330 1088 q 378 1085 372 1088 q 414 1038 414 1076 q 411 1021 414 1029 q 363 989 399 989 q 346 991 355 989 q 315 1038 315 1004 "},"Ã":{"ha":620,"x_min":42,"x_max":583,"o":"m 137 1057 q 227 1086 184 1085 q 304 1063 258 1086 q 404 1032 368 1032 q 518 1070 456 1032 l 518 1146 q 410 1108 457 1109 q 328 1133 376 1108 q 232 1164 266 1164 q 137 1134 190 1164 l 137 1057 m 42 0 l 133 0 l 279 655 l 247 806 l 224 806 l 42 0 m 233 164 l 456 164 l 491 0 l 583 0 l 372 948 l 279 948 l 433 254 l 252 254 l 233 164 "},"B":{"ha":685,"x_min":50,"x_max":635,"o":"m 50 0 l 50 949 l 142 949 l 142 0 l 50 0 m 208 -1 l 208 83 l 304 83 q 460 122 399 83 q 543 278 543 176 q 540 315 543 297 q 368 435 518 435 l 208 435 l 208 518 l 368 518 q 538 673 536 519 q 517 762 538 719 q 335 865 465 865 l 208 865 l 208 949 l 345 949 q 547 878 468 949 q 631 677 631 799 q 629 644 631 661 q 537 476 616 534 q 635 274 633 403 q 581 107 635 179 q 349 -1 500 -1 l 208 -1 "},"C":{"ha":692,"x_min":53,"x_max":644,"o":"m 53 245 q 91 122 53 186 q 324 -7 168 -7 l 324 84 q 194 140 245 84 q 146 245 146 190 l 146 703 q 165 770 146 734 q 324 865 216 865 l 324 956 q 110 856 190 956 q 53 703 53 781 l 53 245 m 389 -7 q 549 53 476 -7 q 644 247 644 130 l 559 267 q 557 244 559 254 q 548 199 555 218 q 434 92 522 121 q 389 84 389 84 l 389 -7 m 389 865 l 401 864 q 433 856 414 863 q 473 837 452 849 q 515 799 494 825 q 548 739 536 773 q 556 700 556 720 q 557 677 557 694 l 644 700 q 572 871 644 792 q 389 956 491 958 l 389 865 "},"Ć":{"ha":692,"x_min":53,"x_max":644,"o":"m 353 1039 l 415 1039 l 490 1245 l 403 1245 l 353 1039 m 53 245 q 91 122 53 186 q 324 -7 168 -7 l 324 84 q 194 140 245 84 q 146 245 146 190 l 146 703 q 165 770 146 734 q 324 865 216 865 l 324 956 q 110 856 190 956 q 53 703 53 781 l 53 245 m 389 -7 q 549 53 476 -7 q 644 247 644 130 l 559 267 q 557 244 559 254 q 548 199 555 218 q 434 92 522 121 q 389 84 389 84 l 389 -7 m 389 865 l 401 864 q 433 856 414 863 q 473 837 452 849 q 515 799 494 825 q 548 739 536 773 q 556 700 556 720 q 557 677 557 694 l 644 700 q 572 871 644 792 q 389 956 491 958 l 389 865 "},"Č":{"ha":692,"x_min":53,"x_max":644,"o":"m 224 1245 l 327 1039 l 382 1039 l 486 1245 l 419 1245 l 355 1114 l 290 1245 l 224 1245 m 53 245 q 91 122 53 186 q 324 -7 168 -7 l 324 84 q 194 140 245 84 q 146 245 146 190 l 146 703 q 165 770 146 734 q 324 865 216 865 l 324 956 q 110 856 190 956 q 53 703 53 781 l 53 245 m 389 -7 q 549 53 476 -7 q 644 247 644 130 l 559 267 q 557 244 559 254 q 548 199 555 218 q 434 92 522 121 q 389 84 389 84 l 389 -7 m 389 865 l 401 864 q 433 856 414 863 q 473 837 452 849 q 515 799 494 825 q 548 739 536 773 q 556 700 556 720 q 557 677 557 694 l 644 700 q 572 871 644 792 q 389 956 491 958 l 389 865 "},"Ç":{"ha":692,"x_min":53,"x_max":644,"o":"m 190 -245 q 321 -205 269 -245 q 392 -56 392 -151 l 317 -56 q 305 -110 317 -85 q 190 -174 274 -174 l 190 -245 m 53 245 q 91 122 53 186 q 324 -7 168 -7 l 324 84 q 194 140 245 84 q 146 245 146 190 l 146 703 q 165 770 146 734 q 324 865 216 865 l 324 956 q 110 856 190 956 q 53 703 53 781 l 53 245 m 389 -7 q 549 53 476 -7 q 644 247 644 130 l 559 267 q 557 244 559 254 q 548 199 555 218 q 434 92 522 121 q 389 84 389 84 l 389 -7 m 389 865 l 401 864 q 433 856 414 863 q 473 837 452 849 q 515 799 494 825 q 548 739 536 773 q 556 700 556 720 q 557 677 557 694 l 644 700 q 572 871 644 792 q 389 956 491 958 l 389 865 "},"D":{"ha":640,"x_min":56,"x_max":587,"o":"m 56 0 l 148 0 l 148 949 l 56 949 l 56 0 m 212 0 q 400 16 331 0 q 587 267 587 62 l 587 682 q 543 841 587 779 q 212 949 464 949 l 212 859 q 374 844 320 859 q 494 682 494 812 l 494 267 q 420 122 492 164 q 212 91 363 91 l 212 0 "},"Ď":{"ha":640,"x_min":56,"x_max":587,"o":"m 191 1245 l 294 1039 l 350 1039 l 453 1245 l 387 1245 l 323 1114 l 258 1245 l 191 1245 m 56 0 l 148 0 l 148 949 l 56 949 l 56 0 m 212 0 q 400 16 331 0 q 587 267 587 62 l 587 682 q 543 841 587 779 q 212 949 464 949 l 212 859 q 374 844 320 859 q 494 682 494 812 l 494 267 q 420 122 492 164 q 212 91 363 91 l 212 0 "},"Đ":{"ha":632,"x_min":35,"x_max":643,"o":"m 35 438 l 111 438 l 111 0 l 205 0 l 205 438 l 281 438 l 281 524 l 205 524 l 205 949 l 111 949 l 111 524 l 35 524 l 35 438 m 269 0 q 457 18 388 0 q 643 267 643 64 l 643 682 q 598 842 643 780 q 269 949 518 949 l 269 859 q 429 845 374 859 q 551 682 551 814 l 551 267 q 477 122 549 164 q 269 91 420 91 l 269 0 "},"E":{"ha":602,"x_min":56,"x_max":549,"o":"m 56 0 l 549 0 l 549 91 l 148 91 l 148 427 l 422 427 l 422 518 l 148 518 l 148 859 l 549 859 l 549 949 l 56 949 l 56 0 "},"É":{"ha":602,"x_min":56,"x_max":549,"o":"m 326 1039 l 388 1039 l 463 1245 l 376 1245 l 326 1039 m 56 0 l 549 0 l 549 91 l 148 91 l 148 427 l 422 427 l 422 518 l 148 518 l 148 859 l 549 859 l 549 949 l 56 949 l 56 0 "},"Ě":{"ha":602,"x_min":56,"x_max":549,"o":"m 172 1245 l 275 1039 l 331 1039 l 434 1245 l 368 1245 l 304 1114 l 239 1245 l 172 1245 m 56 0 l 549 0 l 549 91 l 148 91 l 148 427 l 422 427 l 422 518 l 148 518 l 148 859 l 549 859 l 549 949 l 56 949 l 56 0 "},"Ê":{"ha":602,"x_min":56,"x_max":549,"o":"m 172 1039 l 239 1039 l 302 1171 l 368 1039 l 434 1039 l 331 1245 l 274 1245 l 172 1039 m 56 0 l 549 0 l 549 91 l 148 91 l 148 427 l 422 427 l 422 518 l 148 518 l 148 859 l 549 859 l 549 949 l 56 949 l 56 0 "},"Ë":{"ha":602,"x_min":56,"x_max":549,"o":"m 167 1095 q 171 1073 167 1084 q 222 1039 186 1039 q 241 1042 232 1039 q 278 1095 278 1055 q 275 1114 278 1104 q 222 1149 262 1149 q 202 1145 213 1149 q 167 1095 167 1131 m 330 1095 q 334 1073 330 1084 q 385 1039 349 1039 q 404 1042 395 1039 q 441 1095 441 1055 q 438 1114 441 1104 q 385 1149 425 1149 q 365 1145 376 1149 q 330 1095 330 1131 m 56 0 l 549 0 l 549 91 l 148 91 l 148 427 l 422 427 l 422 518 l 148 518 l 148 859 l 549 859 l 549 949 l 56 949 l 56 0 "},"Ė":{"ha":602,"x_min":56,"x_max":549,"o":"m 245 1097 q 250 1076 245 1086 q 304 1039 263 1039 q 326 1043 315 1039 q 362 1097 362 1057 q 358 1120 362 1109 q 304 1157 343 1157 q 281 1153 293 1157 q 245 1097 245 1137 m 56 0 l 549 0 l 549 91 l 148 91 l 148 427 l 422 427 l 422 518 l 148 518 l 148 859 l 549 859 l 549 949 l 56 949 l 56 0 "},"È":{"ha":602,"x_min":56,"x_max":549,"o":"m 194 1245 l 269 1039 l 331 1039 l 281 1245 l 194 1245 m 56 0 l 549 0 l 549 91 l 148 91 l 148 427 l 422 427 l 422 518 l 148 518 l 148 859 l 549 859 l 549 949 l 56 949 l 56 0 "},"Ē":{"ha":602,"x_min":56,"x_max":549,"o":"m 90 1039 l 518 1039 l 518 1099 l 90 1099 l 90 1039 m 56 0 l 549 0 l 549 91 l 148 91 l 148 427 l 422 427 l 422 518 l 148 518 l 148 859 l 549 859 l 549 949 l 56 949 l 56 0 "},"Ę":{"ha":602,"x_min":56,"x_max":562,"o":"m 562 -244 q 430 -203 483 -244 q 359 -54 359 -149 l 434 -54 q 446 -109 434 -84 q 562 -172 477 -172 l 562 -244 m 56 0 l 549 0 l 549 91 l 148 91 l 148 427 l 422 427 l 422 518 l 148 518 l 148 859 l 549 859 l 549 949 l 56 949 l 56 0 "},"Ð":{"ha":632,"x_min":35,"x_max":643,"o":"m 35 438 l 111 438 l 111 0 l 205 0 l 205 438 l 281 438 l 281 524 l 205 524 l 205 949 l 111 949 l 111 524 l 35 524 l 35 438 m 269 0 q 457 18 388 0 q 643 267 643 64 l 643 682 q 598 842 643 780 q 269 949 518 949 l 269 859 q 429 845 374 859 q 551 682 551 814 l 551 267 q 477 122 549 164 q 269 91 420 91 l 269 0 "},"€":{"ha":697,"x_min":69,"x_max":709,"o":"m 69 373 l 125 373 l 125 245 q 164 119 126 183 q 389 -4 240 -1 l 389 85 q 271 132 320 85 q 216 254 216 183 l 216 373 l 555 373 l 555 430 l 216 430 l 216 511 l 555 511 l 555 568 l 216 568 l 216 699 q 236 772 216 734 q 389 863 283 863 l 389 954 q 190 861 269 952 q 125 694 125 784 l 125 568 l 69 568 l 69 511 l 125 511 l 125 430 l 69 430 l 69 373 m 456 -4 q 618 61 544 -4 q 709 248 709 140 l 624 275 l 624 274 q 624 269 624 271 q 623 263 624 266 q 623 257 623 260 q 622 250 623 254 q 621 241 621 245 q 620 233 620 237 q 619 225 620 229 q 618 218 618 221 q 616 212 617 214 q 555 122 600 156 q 456 87 506 87 l 456 -4 m 456 863 q 480 860 465 863 q 616 731 581 838 q 621 671 621 716 l 709 699 q 644 864 709 789 q 456 954 567 954 l 456 863 "},"F":{"ha":598,"x_min":56,"x_max":549,"o":"m 56 1 l 148 1 l 148 427 l 422 427 l 422 518 l 148 518 l 148 859 l 549 859 l 549 949 l 56 949 l 56 1 "},"G":{"ha":696,"x_min":53,"x_max":643,"o":"m 53 260 q 160 50 54 129 q 323 -7 240 -7 l 323 84 q 252 104 293 84 q 146 260 146 155 l 146 689 q 182 792 146 745 q 323 865 235 865 l 323 956 q 121 865 201 956 q 53 711 57 792 l 53 260 m 388 -7 q 559 75 473 -5 q 643 239 643 156 l 643 479 l 388 479 l 388 392 l 551 392 l 551 258 q 492 137 549 193 q 388 84 437 84 l 388 -7 m 388 865 q 450 849 415 865 q 552 697 545 803 q 553 667 553 690 l 643 700 q 572 869 643 791 q 388 956 491 958 l 388 865 "},"Ğ":{"ha":696,"x_min":53,"x_max":643,"o":"m 255 1137 q 264 1097 255 1118 q 354 1039 292 1039 q 411 1058 385 1039 q 453 1137 453 1088 l 397 1137 q 396 1123 397 1131 q 354 1093 387 1093 q 340 1095 349 1093 q 311 1137 311 1104 l 255 1137 m 53 260 q 160 50 54 129 q 323 -7 240 -7 l 323 84 q 252 104 293 84 q 146 260 146 155 l 146 689 q 182 792 146 745 q 323 865 235 865 l 323 956 q 121 865 201 956 q 53 711 57 792 l 53 260 m 388 -7 q 559 75 473 -5 q 643 239 643 156 l 643 479 l 388 479 l 388 392 l 551 392 l 551 258 q 492 137 549 193 q 388 84 437 84 l 388 -7 m 388 865 q 450 849 415 865 q 552 697 545 803 q 553 667 553 690 l 643 700 q 572 869 643 791 q 388 956 491 958 l 388 865 "},"H":{"ha":651,"x_min":54,"x_max":597,"o":"m 54 0 l 146 0 l 146 433 l 293 433 l 293 522 l 146 522 l 146 949 l 54 949 l 54 0 m 358 433 l 505 433 l 505 0 l 597 0 l 597 949 l 505 949 l 505 522 l 358 522 l 358 433 "},"I":{"ha":206,"x_min":57,"x_max":149,"o":"m 57 0 l 149 0 l 149 949 l 57 949 l 57 0 "},"Í":{"ha":206,"x_min":57,"x_max":209,"o":"m 72 1039 l 134 1039 l 209 1245 l 122 1245 l 72 1039 m 57 0 l 149 0 l 149 949 l 57 949 l 57 0 "},"Î":{"ha":206,"x_min":-27,"x_max":235,"o":"m -27 1039 l 39 1039 l 103 1171 l 168 1039 l 235 1039 l 132 1245 l 75 1245 l -27 1039 m 57 0 l 149 0 l 149 949 l 57 949 l 57 0 "},"Ï":{"ha":206,"x_min":-34,"x_max":240,"o":"m -34 1095 q -30 1073 -34 1084 q 22 1039 -15 1039 q 41 1042 31 1039 q 77 1095 77 1055 q 75 1114 77 1104 q 22 1149 61 1149 q 1 1145 12 1149 q -34 1095 -34 1131 m 129 1095 q 133 1073 129 1084 q 184 1039 148 1039 q 203 1042 194 1039 q 240 1095 240 1055 q 237 1114 240 1104 q 184 1149 224 1149 q 164 1145 175 1149 q 129 1095 129 1131 m 57 0 l 149 0 l 149 949 l 57 949 l 57 0 "},"İ":{"ha":206,"x_min":45,"x_max":161,"o":"m 45 1097 q 49 1076 45 1086 q 103 1039 62 1039 q 125 1043 114 1039 q 161 1097 161 1057 q 157 1120 161 1109 q 103 1157 142 1157 q 80 1153 92 1157 q 45 1097 45 1137 m 57 0 l 149 0 l 149 949 l 57 949 l 57 0 "},"Ì":{"ha":206,"x_min":-4,"x_max":149,"o":"m -4 1245 l 71 1039 l 133 1039 l 83 1245 l -4 1245 m 57 0 l 149 0 l 149 949 l 57 949 l 57 0 "},"Ī":{"ha":206,"x_min":-111,"x_max":317,"o":"m -111 1039 l 317 1039 l 317 1099 l -111 1099 l -111 1039 m 57 0 l 149 0 l 149 949 l 57 949 l 57 0 "},"Į":{"ha":206,"x_min":57,"x_max":267,"o":"m 267 -243 l 267 -171 q 212 -161 239 -171 q 140 -53 140 -133 l 65 -53 q 84 -138 65 -98 q 267 -243 134 -243 m 57 0 l 149 0 l 149 949 l 57 949 l 57 0 "},"J":{"ha":669,"x_min":26,"x_max":618,"o":"m 26 262 q 132 50 27 132 q 282 -7 208 -7 l 282 84 q 210 107 250 84 q 118 269 118 160 l 118 328 l 26 328 l 26 262 m 349 -7 q 483 34 412 -7 q 618 262 618 111 l 618 949 l 526 949 l 526 262 q 452 126 525 182 q 349 84 396 84 l 349 -7 "},"K":{"ha":665,"x_min":56,"x_max":640,"o":"m 56 0 l 148 0 l 148 949 l 56 949 l 56 0 m 206 463 l 538 0 l 640 0 l 309 463 l 635 949 l 533 949 l 206 463 "},"L":{"ha":590,"x_min":56,"x_max":566,"o":"m 56 0 l 566 0 l 566 91 l 148 91 l 148 949 l 56 949 l 56 0 "},"Ĺ":{"ha":590,"x_min":56,"x_max":566,"o":"m 72 1039 l 134 1039 l 209 1245 l 122 1245 l 72 1039 m 56 0 l 566 0 l 566 91 l 148 91 l 148 949 l 56 949 l 56 0 "},"Ľ":{"ha":590,"x_min":56,"x_max":566,"o":"m 243 750 l 330 750 l 380 956 l 293 956 l 243 750 m 56 0 l 566 0 l 566 91 l 148 91 l 148 949 l 56 949 l 56 0 "},"Ł":{"ha":620,"x_min":60,"x_max":685,"o":"m 60 380 l 111 313 l 175 362 l 175 0 l 685 0 l 685 90 l 267 90 l 267 434 l 415 548 l 363 614 l 267 540 l 267 949 l 175 949 l 175 468 l 60 380 "},"M":{"ha":944,"x_min":57,"x_max":887,"o":"m 57 0 l 149 0 l 149 509 l 69 705 l 57 705 l 57 0 m 57 892 l 429 0 l 502 0 l 730 515 l 730 715 l 716 715 l 465 148 l 134 949 l 57 949 l 57 892 m 795 0 l 887 0 l 887 949 l 795 949 l 795 0 "},"N":{"ha":718,"x_min":57,"x_max":661,"o":"m 57 0 l 149 0 l 149 637 l 68 769 l 57 769 l 57 0 m 57 891 l 614 0 l 661 0 l 661 115 l 138 949 l 57 949 l 57 891 m 568 374 l 650 240 l 661 240 l 661 949 l 568 949 l 568 374 "},"Ń":{"ha":718,"x_min":57,"x_max":661,"o":"m 328 1039 l 391 1039 l 465 1245 l 378 1245 l 328 1039 m 57 0 l 149 0 l 149 637 l 68 769 l 57 769 l 57 0 m 57 891 l 614 0 l 661 0 l 661 115 l 138 949 l 57 949 l 57 891 m 568 374 l 650 240 l 661 240 l 661 949 l 568 949 l 568 374 "},"Ň":{"ha":718,"x_min":57,"x_max":661,"o":"m 228 1245 l 331 1039 l 387 1039 l 490 1245 l 423 1245 l 359 1114 l 294 1245 l 228 1245 m 57 0 l 149 0 l 149 637 l 68 769 l 57 769 l 57 0 m 57 891 l 614 0 l 661 0 l 661 115 l 138 949 l 57 949 l 57 891 m 568 374 l 650 240 l 661 240 l 661 949 l 568 949 l 568 374 "},"Ñ":{"ha":718,"x_min":57,"x_max":661,"o":"m 168 1063 q 258 1093 216 1092 q 335 1070 289 1093 q 435 1039 399 1039 q 549 1077 487 1039 l 549 1153 q 441 1115 488 1116 q 359 1139 407 1115 q 263 1171 297 1171 q 168 1141 221 1171 l 168 1063 m 57 0 l 149 0 l 149 637 l 68 769 l 57 769 l 57 0 m 57 891 l 614 0 l 661 0 l 661 115 l 138 949 l 57 949 l 57 891 m 568 374 l 650 240 l 661 240 l 661 949 l 568 949 l 568 374 "},"O":{"ha":715,"x_min":53,"x_max":661,"o":"m 53 264 q 164 49 54 130 q 319 -7 241 -7 l 319 85 q 237 113 282 85 q 146 264 146 170 l 146 689 q 174 773 146 727 q 320 864 228 864 l 320 956 q 114 857 195 955 q 53 711 53 783 l 53 264 m 393 -7 q 526 34 456 -7 q 661 264 661 114 l 661 711 q 613 838 661 770 q 393 956 530 956 l 393 864 q 517 810 464 863 q 568 689 568 753 l 568 264 q 507 134 567 189 q 393 85 450 85 l 393 -7 "},"Œ":{"ha":688,"x_min":-16,"x_max":947,"o":"m -16 269 q 73 53 -16 118 q 336 0 151 0 l 336 91 q 183 104 232 91 q 76 269 76 136 l 76 682 q 136 823 76 783 q 336 859 189 859 l 336 949 q 142 926 216 949 q -16 688 -16 878 l -16 269 m 401 0 l 947 0 l 947 91 l 545 91 l 545 427 l 819 427 l 819 518 l 545 518 l 545 859 l 947 859 l 947 949 l 401 949 l 401 859 l 453 859 l 453 91 l 401 91 l 401 0 "},"Ó":{"ha":715,"x_min":53,"x_max":661,"o":"m 324 1039 l 387 1039 l 461 1245 l 374 1245 l 324 1039 m 53 264 q 164 49 54 130 q 319 -7 241 -7 l 319 85 q 237 113 282 85 q 146 264 146 170 l 146 689 q 174 773 146 727 q 320 864 228 864 l 320 956 q 114 857 195 955 q 53 711 53 783 l 53 264 m 393 -7 q 526 34 456 -7 q 661 264 661 114 l 661 711 q 613 838 661 770 q 393 956 530 956 l 393 864 q 517 810 464 863 q 568 689 568 753 l 568 264 q 507 134 567 189 q 393 85 450 85 l 393 -7 "},"Ô":{"ha":715,"x_min":53,"x_max":661,"o":"m 224 1039 l 290 1039 l 354 1171 l 419 1039 l 486 1039 l 382 1245 l 326 1245 l 224 1039 m 53 264 q 164 49 54 130 q 319 -7 241 -7 l 319 85 q 237 113 282 85 q 146 264 146 170 l 146 689 q 174 773 146 727 q 320 864 228 864 l 320 956 q 114 857 195 955 q 53 711 53 783 l 53 264 m 393 -7 q 526 34 456 -7 q 661 264 661 114 l 661 711 q 613 838 661 770 q 393 956 530 956 l 393 864 q 517 810 464 863 q 568 689 568 753 l 568 264 q 507 134 567 189 q 393 85 450 85 l 393 -7 "},"Ö":{"ha":715,"x_min":53,"x_max":661,"o":"m 218 1095 q 222 1073 218 1084 q 274 1039 237 1039 q 293 1042 283 1039 q 330 1095 330 1055 q 327 1114 330 1104 q 274 1149 313 1149 q 254 1145 264 1149 q 218 1095 218 1131 m 381 1095 q 385 1073 381 1084 q 437 1039 400 1039 q 456 1042 446 1039 q 492 1095 492 1055 q 490 1114 492 1104 q 437 1149 476 1149 q 416 1145 427 1149 q 381 1095 381 1131 m 53 264 q 164 49 54 130 q 319 -7 241 -7 l 319 85 q 237 113 282 85 q 146 264 146 170 l 146 689 q 174 773 146 727 q 320 864 228 864 l 320 956 q 114 857 195 955 q 53 711 53 783 l 53 264 m 393 -7 q 526 34 456 -7 q 661 264 661 114 l 661 711 q 613 838 661 770 q 393 956 530 956 l 393 864 q 517 810 464 863 q 568 689 568 753 l 568 264 q 507 134 567 189 q 393 85 450 85 l 393 -7 "},"Ò":{"ha":715,"x_min":53,"x_max":661,"o":"m 245 1245 l 320 1039 l 382 1039 l 332 1245 l 245 1245 m 53 264 q 164 49 54 130 q 319 -7 241 -7 l 319 85 q 237 113 282 85 q 146 264 146 170 l 146 689 q 174 773 146 727 q 320 864 228 864 l 320 956 q 114 857 195 955 q 53 711 53 783 l 53 264 m 393 -7 q 526 34 456 -7 q 661 264 661 114 l 661 711 q 613 838 661 770 q 393 956 530 956 l 393 864 q 517 810 464 863 q 568 689 568 753 l 568 264 q 507 134 567 189 q 393 85 450 85 l 393 -7 "},"Ő":{"ha":715,"x_min":53,"x_max":661,"o":"m 401 1039 l 464 1039 l 538 1245 l 452 1245 l 401 1039 m 255 1039 l 317 1039 l 392 1245 l 305 1245 l 255 1039 m 53 264 q 164 49 54 130 q 319 -7 241 -7 l 319 85 q 237 113 282 85 q 146 264 146 170 l 146 689 q 174 773 146 727 q 320 864 228 864 l 320 956 q 114 857 195 955 q 53 711 53 783 l 53 264 m 393 -7 q 526 34 456 -7 q 661 264 661 114 l 661 711 q 613 838 661 770 q 393 956 530 956 l 393 864 q 517 810 464 863 q 568 689 568 753 l 568 264 q 507 134 567 189 q 393 85 450 85 l 393 -7 "},"Ō":{"ha":715,"x_min":53,"x_max":661,"o":"m 141 1039 l 570 1039 l 570 1099 l 141 1099 l 141 1039 m 53 264 q 164 49 54 130 q 319 -7 241 -7 l 319 85 q 237 113 282 85 q 146 264 146 170 l 146 689 q 174 773 146 727 q 320 864 228 864 l 320 956 q 114 857 195 955 q 53 711 53 783 l 53 264 m 393 -7 q 526 34 456 -7 q 661 264 661 114 l 661 711 q 613 838 661 770 q 393 956 530 956 l 393 864 q 517 810 464 863 q 568 689 568 753 l 568 264 q 507 134 567 189 q 393 85 450 85 l 393 -7 "},"Ø":{"ha":910,"x_min":23,"x_max":872,"o":"m 23 148 l 80 88 l 165 167 q 258 50 193 98 q 412 -7 335 -7 l 412 85 q 346 104 384 85 q 241 235 256 149 l 662 612 l 662 264 q 601 134 661 189 q 487 85 544 85 l 487 -7 q 620 34 549 -7 q 754 264 754 114 l 754 696 l 872 803 l 818 863 l 734 787 q 704 840 722 814 q 487 956 624 956 l 487 864 q 571 841 532 864 q 658 718 639 802 l 239 342 l 239 686 q 266 774 239 727 q 414 864 320 864 l 414 956 q 208 857 289 955 q 146 711 146 783 l 146 259 l 23 148 "},"Õ":{"ha":715,"x_min":53,"x_max":661,"o":"m 164 1070 q 254 1100 212 1099 q 331 1077 285 1100 q 431 1046 395 1046 q 545 1084 483 1046 l 545 1160 q 437 1122 484 1123 q 355 1146 403 1122 q 259 1177 293 1177 q 164 1147 217 1177 l 164 1070 m 53 264 q 164 49 54 130 q 319 -7 241 -7 l 319 85 q 237 113 282 85 q 146 264 146 170 l 146 689 q 174 773 146 727 q 320 864 228 864 l 320 956 q 114 857 195 955 q 53 711 53 783 l 53 264 m 393 -7 q 526 34 456 -7 q 661 264 661 114 l 661 711 q 613 838 661 770 q 393 956 530 956 l 393 864 q 517 810 464 863 q 568 689 568 753 l 568 264 q 507 134 567 189 q 393 85 450 85 l 393 -7 "},"P":{"ha":655,"x_min":57,"x_max":629,"o":"m 57 0 l 57 949 l 149 949 l 149 0 l 57 0 m 214 422 l 214 510 l 373 510 q 404 511 389 510 q 534 689 534 526 q 530 742 534 718 q 372 861 510 861 l 214 861 l 214 949 l 395 949 q 414 948 404 949 q 629 688 629 933 q 614 570 629 621 q 395 422 574 426 l 214 422 "},"Q":{"ha":715,"x_min":53,"x_max":661,"o":"m 53 264 q 160 52 54 132 q 324 -7 241 -7 l 324 84 q 263 100 301 84 q 146 264 146 149 l 146 689 q 172 776 146 731 q 324 865 227 865 l 324 956 q 113 854 195 956 q 53 711 53 781 l 53 264 m 391 -7 l 490 -145 l 564 -94 l 487 20 q 661 264 659 106 l 661 711 q 613 840 661 770 q 391 956 530 958 l 391 865 q 514 812 463 865 q 567 689 567 755 l 567 264 q 477 115 566 170 q 391 84 426 84 l 391 -7 "},"R":{"ha":689,"x_min":57,"x_max":651,"o":"m 57 0 l 149 0 l 149 949 l 57 949 l 57 0 m 214 419 l 385 419 q 481 397 445 420 q 543 241 533 363 l 563 0 l 651 0 l 628 294 q 627 305 628 298 q 528 463 613 423 q 621 686 620 522 q 374 949 620 937 l 214 949 l 214 867 l 350 867 q 406 861 380 867 q 530 682 530 838 q 528 632 530 655 q 376 505 509 505 l 214 505 l 214 419 "},"Ŕ":{"ha":689,"x_min":57,"x_max":651,"o":"m 266 1039 l 328 1039 l 403 1245 l 316 1245 l 266 1039 m 57 0 l 149 0 l 149 949 l 57 949 l 57 0 m 214 419 l 385 419 q 481 397 445 420 q 543 241 533 363 l 563 0 l 651 0 l 628 294 q 627 305 628 298 q 528 463 613 423 q 621 686 620 522 q 374 949 620 937 l 214 949 l 214 867 l 350 867 q 406 861 380 867 q 530 682 530 838 q 528 632 530 655 q 376 505 509 505 l 214 505 l 214 419 "},"Ř":{"ha":689,"x_min":57,"x_max":651,"o":"m 160 1245 l 263 1039 l 319 1039 l 422 1245 l 355 1245 l 292 1114 l 227 1245 l 160 1245 m 57 0 l 149 0 l 149 949 l 57 949 l 57 0 m 214 419 l 385 419 q 481 397 445 420 q 543 241 533 363 l 563 0 l 651 0 l 628 294 q 627 305 628 298 q 528 463 613 423 q 621 686 620 522 q 374 949 620 937 l 214 949 l 214 867 l 350 867 q 406 861 380 867 q 530 682 530 838 q 528 632 530 655 q 376 505 509 505 l 214 505 l 214 419 "},"S":{"ha":671,"x_min":37,"x_max":635,"o":"m 37 214 q 87 99 38 161 q 290 -4 168 -4 l 290 83 l 275 84 q 238 97 260 87 q 192 123 216 107 q 148 171 168 140 q 121 244 127 202 l 37 214 m 47 694 q 68 590 47 635 q 214 475 102 519 q 301 453 235 467 q 399 430 366 439 q 543 281 543 387 q 473 137 541 198 q 355 83 412 84 l 355 -4 q 544 73 461 -4 q 635 278 635 160 q 617 378 635 335 q 461 506 582 463 q 373 529 437 514 q 271 555 305 544 q 138 690 138 598 q 194 817 140 765 q 290 863 241 860 l 290 949 q 174 913 236 949 q 47 694 47 838 m 355 863 l 369 861 q 401 851 381 860 q 441 829 420 842 q 482 787 463 815 q 510 722 502 758 l 597 750 q 555 841 591 791 q 355 949 475 949 l 355 863 "},"Ś":{"ha":671,"x_min":37,"x_max":635,"o":"m 282 1039 l 345 1039 l 419 1245 l 332 1245 l 282 1039 m 37 214 q 87 99 38 161 q 290 -4 168 -4 l 290 83 l 275 84 q 238 97 260 87 q 192 123 216 107 q 148 171 168 140 q 121 244 127 202 l 37 214 m 47 694 q 68 590 47 635 q 214 475 102 519 q 301 453 235 467 q 399 430 366 439 q 543 281 543 387 q 473 137 541 198 q 355 83 412 84 l 355 -4 q 544 73 461 -4 q 635 278 635 160 q 617 378 635 335 q 461 506 582 463 q 373 529 437 514 q 271 555 305 544 q 138 690 138 598 q 194 817 140 765 q 290 863 241 860 l 290 949 q 174 913 236 949 q 47 694 47 838 m 355 863 l 369 861 q 401 851 381 860 q 441 829 420 842 q 482 787 463 815 q 510 722 502 758 l 597 750 q 555 841 591 791 q 355 949 475 949 l 355 863 "},"Š":{"ha":671,"x_min":27,"x_max":625,"o":"m 170 1245 l 273 1039 l 328 1039 l 431 1245 l 365 1245 l 301 1114 l 236 1245 l 170 1245 m 27 214 q 77 99 28 161 q 281 -4 159 -4 l 281 83 l 266 84 q 229 97 251 87 q 182 123 206 107 q 138 171 159 140 q 111 244 118 202 l 27 214 m 38 694 q 58 590 38 635 q 205 475 92 519 q 292 453 225 467 q 389 430 357 439 q 533 281 533 387 q 464 137 532 198 q 346 83 403 84 l 346 -4 q 534 73 452 -4 q 625 278 625 160 q 608 378 625 335 q 452 506 572 463 q 363 529 427 514 q 262 555 296 544 q 129 690 129 598 q 184 817 130 765 q 281 863 232 860 l 281 949 q 164 913 227 949 q 38 694 38 838 m 346 863 l 358 861 q 391 851 372 860 q 432 829 411 842 q 473 787 453 815 q 500 722 492 758 l 587 750 q 545 841 582 791 q 346 949 465 949 l 346 863 "},"T":{"ha":637,"x_min":26,"x_max":613,"o":"m 26 860 l 273 860 l 273 0 l 365 0 l 365 860 l 613 860 l 613 949 l 26 949 l 26 860 "},"Ť":{"ha":637,"x_min":26,"x_max":613,"o":"m 183 1245 l 286 1039 l 342 1039 l 445 1245 l 378 1245 l 315 1114 l 250 1245 l 183 1245 m 26 860 l 273 860 l 273 0 l 365 0 l 365 860 l 613 860 l 613 949 l 26 949 l 26 860 "},"Þ":{"ha":643,"x_min":84,"x_max":609,"o":"m 84 0 l 176 0 l 176 949 l 84 949 l 84 0 m 247 282 q 454 301 374 277 q 608 541 609 349 q 559 716 606 656 q 247 800 484 806 l 247 711 l 300 711 q 335 709 317 711 q 514 540 514 699 q 509 488 514 513 q 301 372 481 372 l 247 372 l 247 282 "},"U":{"ha":709,"x_min":52,"x_max":658,"o":"m 52 262 q 165 47 53 127 q 323 -7 245 -7 l 323 84 q 247 109 292 84 q 144 262 144 163 l 144 949 l 52 949 l 52 262 m 388 -7 q 521 33 452 -7 q 658 262 658 110 l 658 949 l 566 949 l 566 262 q 494 125 564 178 q 388 84 438 84 l 388 -7 "},"Ú":{"ha":709,"x_min":52,"x_max":658,"o":"m 316 1039 l 378 1039 l 453 1245 l 366 1245 l 316 1039 m 52 262 q 165 47 53 127 q 323 -7 245 -7 l 323 84 q 247 109 292 84 q 144 262 144 163 l 144 949 l 52 949 l 52 262 m 388 -7 q 521 33 452 -7 q 658 262 658 110 l 658 949 l 566 949 l 566 262 q 494 125 564 178 q 388 84 438 84 l 388 -7 "},"Û":{"ha":709,"x_min":52,"x_max":658,"o":"m 216 1039 l 282 1039 l 346 1171 l 411 1039 l 477 1039 l 374 1245 l 317 1245 l 216 1039 m 52 262 q 165 47 53 127 q 323 -7 245 -7 l 323 84 q 247 109 292 84 q 144 262 144 163 l 144 949 l 52 949 l 52 262 m 388 -7 q 521 33 452 -7 q 658 262 658 110 l 658 949 l 566 949 l 566 262 q 494 125 564 178 q 388 84 438 84 l 388 -7 "},"Ü":{"ha":709,"x_min":52,"x_max":658,"o":"m 210 1095 q 214 1073 210 1084 q 266 1039 229 1039 q 285 1042 275 1039 q 321 1095 321 1055 q 319 1114 321 1104 q 266 1149 305 1149 q 245 1145 256 1149 q 210 1095 210 1131 m 373 1095 q 377 1073 373 1084 q 429 1039 392 1039 q 448 1042 438 1039 q 484 1095 484 1055 q 481 1114 484 1104 q 429 1149 468 1149 q 408 1145 419 1149 q 373 1095 373 1131 m 52 262 q 165 47 53 127 q 323 -7 245 -7 l 323 84 q 247 109 292 84 q 144 262 144 163 l 144 949 l 52 949 l 52 262 m 388 -7 q 521 33 452 -7 q 658 262 658 110 l 658 949 l 566 949 l 566 262 q 494 125 564 178 q 388 84 438 84 l 388 -7 "},"Ù":{"ha":709,"x_min":52,"x_max":658,"o":"m 236 1245 l 311 1039 l 373 1039 l 323 1245 l 236 1245 m 52 262 q 165 47 53 127 q 323 -7 245 -7 l 323 84 q 247 109 292 84 q 144 262 144 163 l 144 949 l 52 949 l 52 262 m 388 -7 q 521 33 452 -7 q 658 262 658 110 l 658 949 l 566 949 l 566 262 q 494 125 564 178 q 388 84 438 84 l 388 -7 "},"Ű":{"ha":709,"x_min":52,"x_max":658,"o":"m 422 1039 l 484 1039 l 559 1245 l 472 1245 l 422 1039 m 275 1039 l 338 1039 l 412 1245 l 326 1245 l 275 1039 m 52 262 q 165 47 53 127 q 323 -7 245 -7 l 323 84 q 247 109 292 84 q 144 262 144 163 l 144 949 l 52 949 l 52 262 m 388 -7 q 521 33 452 -7 q 658 262 658 110 l 658 949 l 566 949 l 566 262 q 494 125 564 178 q 388 84 438 84 l 388 -7 "},"Ū":{"ha":709,"x_min":52,"x_max":658,"o":"m 133 1039 l 562 1039 l 562 1099 l 133 1099 l 133 1039 m 52 262 q 165 47 53 127 q 323 -7 245 -7 l 323 84 q 247 109 292 84 q 144 262 144 163 l 144 949 l 52 949 l 52 262 m 388 -7 q 521 33 452 -7 q 658 262 658 110 l 658 949 l 566 949 l 566 262 q 494 125 564 178 q 388 84 438 84 l 388 -7 "},"Ų":{"ha":709,"x_min":52,"x_max":658,"o":"m 511 -244 l 511 -172 q 456 -163 483 -172 q 384 -54 384 -134 l 309 -54 q 328 -140 309 -99 q 511 -244 378 -244 m 52 262 q 165 47 53 127 q 323 -7 245 -7 l 323 84 q 247 109 292 84 q 144 262 144 163 l 144 949 l 52 949 l 52 262 m 388 -7 q 521 33 452 -7 q 658 262 658 110 l 658 949 l 566 949 l 566 262 q 494 125 564 178 q 388 84 438 84 l 388 -7 "},"Ů":{"ha":709,"x_min":52,"x_max":658,"o":"m 245 1169 q 259 1120 245 1143 q 347 1067 288 1067 q 396 1081 373 1067 q 449 1169 449 1109 q 435 1218 449 1195 q 347 1271 407 1271 q 298 1257 321 1271 q 245 1169 245 1229 m 304 1169 q 305 1183 304 1175 q 347 1213 315 1213 q 361 1211 353 1213 q 391 1169 391 1202 q 389 1156 391 1164 q 347 1126 380 1126 q 334 1127 342 1126 q 304 1169 304 1137 m 52 262 q 165 47 53 127 q 323 -7 245 -7 l 323 84 q 247 109 292 84 q 144 262 144 163 l 144 949 l 52 949 l 52 262 m 388 -7 q 521 33 452 -7 q 658 262 658 110 l 658 949 l 566 949 l 566 262 q 494 125 564 178 q 388 84 438 84 l 388 -7 "},"V":{"ha":644,"x_min":12,"x_max":631,"o":"m 12 949 l 288 0 l 323 0 l 355 94 l 106 949 l 12 949 m 338 357 l 377 222 l 391 222 q 528 637 399 252 q 631 949 624 926 l 538 949 l 338 357 "},"W":{"ha":1074,"x_min":14,"x_max":1061,"o":"m 14 949 l 106 949 l 353 103 l 321 0 l 289 0 l 14 949 m 331 373 l 487 949 l 579 949 l 808 98 l 776 0 l 743 0 l 533 781 q 442 448 506 681 q 384 237 389 255 l 370 237 l 331 373 m 798 372 l 968 949 l 1061 949 l 850 237 l 837 237 l 798 372 "},"X":{"ha":629,"x_min":35,"x_max":594,"o":"m 35 0 l 127 0 l 315 381 l 500 0 l 594 0 l 359 491 l 578 949 l 487 949 l 315 597 l 141 949 l 52 949 l 270 491 l 35 0 "},"Y":{"ha":647,"x_min":34,"x_max":613,"o":"m 34 949 l 263 342 l 263 0 l 358 0 l 358 343 l 130 949 l 34 949 m 347 563 l 392 430 l 399 430 l 613 949 l 518 949 l 347 563 "},"Ý":{"ha":647,"x_min":34,"x_max":613,"o":"m 275 1039 l 338 1039 l 412 1245 l 326 1245 l 275 1039 m 34 949 l 263 342 l 263 0 l 358 0 l 358 343 l 130 949 l 34 949 m 347 563 l 392 430 l 399 430 l 613 949 l 518 949 l 347 563 "},"Ÿ":{"ha":647,"x_min":34,"x_max":613,"o":"m 170 1095 q 174 1073 170 1084 q 225 1039 189 1039 q 244 1042 235 1039 q 281 1095 281 1055 q 278 1114 281 1104 q 225 1149 264 1149 q 205 1145 216 1149 q 170 1095 170 1131 m 332 1095 q 336 1073 332 1084 q 388 1039 351 1039 q 407 1042 397 1039 q 444 1095 444 1055 q 441 1114 444 1104 q 388 1149 427 1149 q 368 1145 378 1149 q 332 1095 332 1131 m 34 949 l 263 342 l 263 0 l 358 0 l 358 343 l 130 949 l 34 949 m 347 563 l 392 430 l 399 430 l 613 949 l 518 949 l 347 563 "},"Z":{"ha":598,"x_min":50,"x_max":548,"o":"m 50 0 l 547 0 l 548 92 l 152 92 l 547 863 l 547 949 l 50 949 l 50 859 l 446 859 l 50 88 l 50 0 "},"Ź":{"ha":598,"x_min":50,"x_max":548,"o":"m 258 1039 l 320 1039 l 395 1245 l 308 1245 l 258 1039 m 50 0 l 547 0 l 548 92 l 152 92 l 547 863 l 547 949 l 50 949 l 50 859 l 446 859 l 50 88 l 50 0 "},"Ž":{"ha":598,"x_min":50,"x_max":548,"o":"m 157 1245 l 260 1039 l 316 1039 l 419 1245 l 353 1245 l 289 1114 l 224 1245 l 157 1245 m 50 0 l 547 0 l 548 92 l 152 92 l 547 863 l 547 949 l 50 949 l 50 859 l 446 859 l 50 88 l 50 0 "},"Ż":{"ha":598,"x_min":50,"x_max":548,"o":"m 231 1097 q 235 1076 231 1086 q 289 1039 248 1039 q 311 1043 300 1039 q 347 1097 347 1057 q 343 1120 347 1109 q 289 1157 328 1157 q 266 1153 278 1157 q 231 1097 231 1137 m 50 0 l 547 0 l 548 92 l 152 92 l 547 863 l 547 949 l 50 949 l 50 859 l 446 859 l 50 88 l 50 0 "},"a":{"ha":632,"x_min":49,"x_max":583,"o":"m 49 168 l 49 232 q 117 358 50 320 q 294 410 140 370 q 458 486 460 452 l 458 510 q 434 587 458 553 q 330 642 395 642 l 330 723 q 480 666 419 723 q 548 511 548 602 l 548 132 q 583 87 549 90 l 583 1 q 483 50 521 1 q 480 47 481 49 q 330 1 426 1 l 330 85 q 347 87 338 85 q 460 208 460 95 l 460 378 q 308 332 422 359 q 146 279 167 300 q 130 233 132 264 l 130 190 q 134 160 130 175 q 264 85 155 85 l 264 1 q 121 43 182 1 q 49 168 49 95 m 58 543 q 109 658 57 606 q 266 723 174 723 l 266 639 q 205 624 233 639 q 138 511 138 589 l 58 543 "},"á":{"ha":632,"x_min":49,"x_max":583,"o":"m 252 806 l 315 806 l 389 1012 l 302 1012 l 252 806 m 49 168 l 49 232 q 117 358 50 320 q 294 410 140 370 q 458 486 460 452 l 458 510 q 434 587 458 553 q 330 642 395 642 l 330 723 q 480 666 419 723 q 548 511 548 602 l 548 132 q 583 87 549 90 l 583 1 q 483 50 521 1 q 480 47 481 49 q 330 1 426 1 l 330 85 q 347 87 338 85 q 460 208 460 95 l 460 378 q 308 332 422 359 q 146 279 167 300 q 130 233 132 264 l 130 190 q 134 160 130 175 q 264 85 155 85 l 264 1 q 121 43 182 1 q 49 168 49 95 m 58 543 q 109 658 57 606 q 266 723 174 723 l 266 639 q 205 624 233 639 q 138 511 138 589 l 58 543 "},"ă":{"ha":632,"x_min":49,"x_max":583,"o":"m 183 903 q 193 864 183 884 q 282 806 220 806 q 339 825 313 806 q 381 903 381 854 l 326 903 q 324 890 326 898 q 282 860 315 860 q 269 861 277 860 q 239 903 239 871 l 183 903 m 49 168 l 49 232 q 117 358 50 320 q 294 410 140 370 q 458 486 460 452 l 458 510 q 434 587 458 553 q 330 642 395 642 l 330 723 q 480 666 419 723 q 548 511 548 602 l 548 132 q 583 87 549 90 l 583 1 q 483 50 521 1 q 480 47 481 49 q 330 1 426 1 l 330 85 q 347 87 338 85 q 460 208 460 95 l 460 378 q 308 332 422 359 q 146 279 167 300 q 130 233 132 264 l 130 190 q 134 160 130 175 q 264 85 155 85 l 264 1 q 121 43 182 1 q 49 168 49 95 m 58 543 q 109 658 57 606 q 266 723 174 723 l 266 639 q 205 624 233 639 q 138 511 138 589 l 58 543 "},"â":{"ha":632,"x_min":49,"x_max":583,"o":"m 152 806 l 218 806 l 282 937 l 347 806 l 414 806 l 311 1012 l 254 1012 l 152 806 m 49 168 l 49 232 q 117 358 50 320 q 294 410 140 370 q 458 486 460 452 l 458 510 q 434 587 458 553 q 330 642 395 642 l 330 723 q 480 666 419 723 q 548 511 548 602 l 548 132 q 583 87 549 90 l 583 1 q 483 50 521 1 q 480 47 481 49 q 330 1 426 1 l 330 85 q 347 87 338 85 q 460 208 460 95 l 460 378 q 308 332 422 359 q 146 279 167 300 q 130 233 132 264 l 130 190 q 134 160 130 175 q 264 85 155 85 l 264 1 q 121 43 182 1 q 49 168 49 95 m 58 543 q 109 658 57 606 q 266 723 174 723 l 266 639 q 205 624 233 639 q 138 511 138 589 l 58 543 "},"´":{"ha":450,"x_min":156,"x_max":293,"o":"m 156 821 l 218 821 l 293 1027 l 206 1027 l 156 821 "},"ä":{"ha":632,"x_min":49,"x_max":583,"o":"m 145 861 q 149 840 145 850 q 201 806 164 806 q 220 808 210 806 q 256 861 256 822 q 254 880 256 871 q 201 916 240 916 q 180 911 191 916 q 145 861 145 898 m 308 861 q 312 840 308 850 q 363 806 327 806 q 382 808 373 806 q 419 861 419 822 q 416 880 419 871 q 363 916 403 916 q 343 911 354 916 q 308 861 308 898 m 49 168 l 49 232 q 117 358 50 320 q 294 410 140 370 q 458 486 460 452 l 458 510 q 434 587 458 553 q 330 642 395 642 l 330 723 q 480 666 419 723 q 548 511 548 602 l 548 132 q 583 87 549 90 l 583 1 q 483 50 521 1 q 480 47 481 49 q 330 1 426 1 l 330 85 q 347 87 338 85 q 460 208 460 95 l 460 378 q 308 332 422 359 q 146 279 167 300 q 130 233 132 264 l 130 190 q 134 160 130 175 q 264 85 155 85 l 264 1 q 121 43 182 1 q 49 168 49 95 m 58 543 q 109 658 57 606 q 266 723 174 723 l 266 639 q 205 624 233 639 q 138 511 138 589 l 58 543 "},"æ":{"ha":678,"x_min":35,"x_max":943,"o":"m 35 160 l 35 221 q 88 326 37 282 q 288 406 138 365 q 346 423 327 418 q 437 488 437 452 l 437 514 q 414 572 437 545 q 278 628 366 628 q 217 620 245 628 q 121 499 121 593 l 49 522 q 96 637 49 587 q 279 705 164 705 q 481 612 418 705 q 658 700 547 699 l 658 618 q 575 591 613 618 q 521 488 521 549 l 521 401 l 859 401 l 859 496 q 831 567 859 533 q 720 621 787 621 l 720 700 q 856 655 791 700 q 941 513 941 595 l 941 320 l 521 320 l 521 198 q 551 129 521 161 q 690 76 604 76 q 750 83 722 76 q 868 190 846 106 l 943 163 q 935 138 939 151 q 690 0 878 0 q 484 87 544 0 q 309 1 431 0 l 309 81 q 437 202 434 83 l 437 387 q 313 342 416 368 q 239 321 263 330 q 114 220 113 285 l 114 195 q 117 164 114 179 q 245 81 136 81 l 245 1 q 109 39 167 1 q 35 160 35 87 "},"à":{"ha":632,"x_min":49,"x_max":583,"o":"m 175 1012 l 250 806 l 312 806 l 262 1012 l 175 1012 m 49 168 l 49 232 q 117 358 50 320 q 294 410 140 370 q 458 486 460 452 l 458 510 q 434 587 458 553 q 330 642 395 642 l 330 723 q 480 666 419 723 q 548 511 548 602 l 548 132 q 583 87 549 90 l 583 1 q 483 50 521 1 q 480 47 481 49 q 330 1 426 1 l 330 85 q 347 87 338 85 q 460 208 460 95 l 460 378 q 308 332 422 359 q 146 279 167 300 q 130 233 132 264 l 130 190 q 134 160 130 175 q 264 85 155 85 l 264 1 q 121 43 182 1 q 49 168 49 95 m 58 543 q 109 658 57 606 q 266 723 174 723 l 266 639 q 205 624 233 639 q 138 511 138 589 l 58 543 "},"ā":{"ha":632,"x_min":49,"x_max":583,"o":"m 88 807 l 517 807 l 517 867 l 88 867 l 88 807 m 49 168 l 49 232 q 117 358 50 320 q 294 410 140 370 q 458 486 460 452 l 458 510 q 434 587 458 553 q 330 642 395 642 l 330 723 q 480 666 419 723 q 548 511 548 602 l 548 132 q 583 87 549 90 l 583 1 q 483 50 521 1 q 480 47 481 49 q 330 1 426 1 l 330 85 q 347 87 338 85 q 460 208 460 95 l 460 378 q 308 332 422 359 q 146 279 167 300 q 130 233 132 264 l 130 190 q 134 160 130 175 q 264 85 155 85 l 264 1 q 121 43 182 1 q 49 168 49 95 m 58 543 q 109 658 57 606 q 266 723 174 723 l 266 639 q 205 624 233 639 q 138 511 138 589 l 58 543 "},"&":{"ha":871,"x_min":50,"x_max":821,"o":"m 496 152 l 559 83 q 347 -1 467 0 q 160 62 243 -1 q 50 289 50 148 q 160 511 52 422 l 222 442 q 144 288 145 381 q 189 161 144 216 q 350 90 251 90 q 496 152 437 90 m 559 736 l 646 758 q 610 845 636 804 q 435 958 548 943 l 435 869 q 495 844 468 864 q 559 736 551 802 m 361 868 l 361 958 q 240 907 293 948 q 148 722 148 837 q 153 667 148 693 q 233 541 167 616 l 724 15 l 821 41 l 677 197 q 692 216 684 205 q 785 468 780 330 l 692 468 q 686 419 692 446 q 610 269 666 326 l 304 597 q 293 609 301 600 q 236 722 236 669 q 259 803 236 766 q 361 868 296 863 "},"ං":{"ha":617,"x_min":41,"x_max":575,"o":"m 342 61 l 370 61 q 575 336 572 62 l 575 422 q 370 697 575 696 l 342 697 l 342 609 q 426 590 392 609 q 486 422 486 553 l 486 336 q 477 244 486 281 q 342 149 453 149 l 342 61 m 245 61 l 274 61 l 274 149 q 184 172 218 149 q 132 336 132 210 l 132 422 q 140 510 132 475 q 274 609 163 609 l 274 697 l 245 697 q 41 422 43 696 l 41 336 q 245 61 41 62 "},"ą":{"ha":632,"x_min":49,"x_max":654,"o":"m 654 -244 l 654 -172 q 598 -163 625 -172 q 526 -54 526 -134 l 452 -54 q 471 -140 452 -99 q 654 -244 521 -244 m 49 168 l 49 232 q 117 358 50 320 q 294 410 140 370 q 458 486 460 452 l 458 510 q 434 587 458 553 q 330 642 395 642 l 330 723 q 480 666 419 723 q 548 511 548 602 l 548 132 q 583 87 549 90 l 583 1 q 483 50 521 1 q 480 47 481 49 q 330 1 426 1 l 330 85 q 347 87 338 85 q 460 208 460 95 l 460 378 q 308 332 422 359 q 146 279 167 300 q 130 233 132 264 l 130 190 q 134 160 130 175 q 264 85 155 85 l 264 1 q 121 43 182 1 q 49 168 49 95 m 58 543 q 109 658 57 606 q 266 723 174 723 l 266 639 q 205 624 233 639 q 138 511 138 589 l 58 543 "},"≈":{"ha":770,"x_min":68,"x_max":703,"o":"m 68 317 q 213 366 142 365 q 359 317 262 363 q 517 267 453 267 q 703 330 600 267 l 703 412 q 525 351 604 353 q 509 351 518 351 q 369 403 457 355 q 221 450 279 450 q 68 403 151 450 l 68 317 m 68 545 q 213 594 142 593 q 359 545 262 591 q 517 495 453 495 q 703 557 600 495 l 703 642 q 525 581 604 582 q 509 581 518 581 q 369 632 457 585 q 221 680 279 680 q 68 632 151 680 l 68 545 "},"å":{"ha":632,"x_min":49,"x_max":583,"o":"m 193 936 q 206 887 193 910 q 294 834 235 834 q 343 848 320 834 q 396 936 396 876 q 382 985 396 962 q 294 1038 354 1038 q 245 1024 269 1038 q 193 936 193 996 m 251 936 q 252 949 251 941 q 294 979 262 979 q 308 978 300 979 q 338 936 338 968 q 336 922 338 930 q 294 892 327 892 q 281 894 289 892 q 251 936 251 903 m 49 168 l 49 232 q 117 358 50 320 q 294 410 140 370 q 458 486 460 452 l 458 510 q 434 587 458 553 q 330 642 395 642 l 330 723 q 480 666 419 723 q 548 511 548 602 l 548 132 q 583 87 549 90 l 583 1 q 483 50 521 1 q 480 47 481 49 q 330 1 426 1 l 330 85 q 347 87 338 85 q 460 208 460 95 l 460 378 q 308 332 422 359 q 146 279 167 300 q 130 233 132 264 l 130 190 q 134 160 130 175 q 264 85 155 85 l 264 1 q 121 43 182 1 q 49 168 49 95 m 58 543 q 109 658 57 606 q 266 723 174 723 l 266 639 q 205 624 233 639 q 138 511 138 589 l 58 543 "},"^":{"ha":608,"x_min":72,"x_max":537,"o":"m 72 624 l 157 624 l 302 916 l 450 624 l 537 624 l 335 1025 l 274 1025 l 72 624 "},"~":{"ha":852,"x_min":109,"x_max":743,"o":"m 109 416 q 254 465 183 464 q 400 416 302 463 q 557 366 494 366 q 743 429 640 366 l 743 513 q 566 452 644 453 q 549 452 559 452 q 410 503 498 456 q 262 551 320 551 q 109 503 191 551 l 109 416 "},"*":{"ha":469,"x_min":45,"x_max":425,"o":"m 46 951 l 184 860 l 45 768 l 83 715 l 201 795 l 201 648 l 267 648 l 267 796 l 387 711 l 425 764 l 286 859 l 425 951 l 388 1004 l 267 925 l 267 1065 l 201 1065 l 201 930 l 85 1004 l 46 951 "},"@":{"ha":1057,"x_min":45,"x_max":1010,"o":"m 45 419 q 170 73 45 212 q 556 -84 313 -84 q 589 -83 572 -84 q 941 45 793 -73 l 905 113 q 553 -5 736 -4 q 271 94 388 -5 q 130 420 130 214 q 269 731 132 604 q 593 853 403 853 q 802 787 707 853 q 928 559 928 700 q 860 342 928 418 q 736 283 806 283 q 694 302 713 285 q 673 361 667 331 q 685 418 677 387 l 745 651 l 674 651 l 666 621 q 663 624 666 621 q 549 669 618 669 q 427 628 488 669 q 317 407 317 552 q 350 288 317 340 q 475 209 397 209 q 522 216 499 209 q 609 275 585 232 q 624 251 613 264 q 719 201 666 201 q 842 231 780 201 q 1010 560 1010 315 q 876 838 1009 731 q 591 933 755 933 q 570 933 582 933 q 193 777 343 925 q 45 419 45 631 "},"ã":{"ha":632,"x_min":49,"x_max":583,"o":"m 102 830 q 191 860 149 859 q 269 837 222 860 q 369 806 332 806 q 483 844 420 806 l 483 920 q 374 882 422 883 q 293 906 340 882 q 197 937 231 937 q 102 907 155 937 l 102 830 m 49 168 l 49 232 q 117 358 50 320 q 294 410 140 370 q 458 486 460 452 l 458 510 q 434 587 458 553 q 330 642 395 642 l 330 723 q 480 666 419 723 q 548 511 548 602 l 548 132 q 583 87 549 90 l 583 1 q 483 50 521 1 q 480 47 481 49 q 330 1 426 1 l 330 85 q 347 87 338 85 q 460 208 460 95 l 460 378 q 308 332 422 359 q 146 279 167 300 q 130 233 132 264 l 130 190 q 134 160 130 175 q 264 85 155 85 l 264 1 q 121 43 182 1 q 49 168 49 95 m 58 543 q 109 658 57 606 q 266 723 174 723 l 266 639 q 205 624 233 639 q 138 511 138 589 l 58 543 "},"b":{"ha":595,"x_min":56,"x_max":555,"o":"m 56 0 l 146 0 l 146 955 l 56 955 l 56 0 m 210 0 l 338 0 q 499 72 434 1 q 555 197 555 133 l 555 526 q 510 636 553 582 q 340 720 442 720 l 210 720 l 210 633 l 340 633 q 412 609 377 633 q 465 521 465 571 l 465 199 q 439 137 465 168 q 339 87 396 87 l 210 87 l 210 0 "},"\\":{"ha":435,"x_min":56,"x_max":380,"o":"m 56 971 l 292 -31 l 380 -31 l 142 971 l 56 971 "},"|":{"ha":210,"x_min":68,"x_max":142,"o":"m 68 -182 l 142 -182 l 142 1023 l 68 1023 l 68 -182 "},"{":{"ha":324,"x_min":20,"x_max":297,"o":"m 20 472 q 42 461 27 468 q 62 450 57 454 q 104 393 104 427 l 104 208 q 142 15 104 77 q 297 -52 184 -52 l 297 19 q 245 31 264 19 q 191 281 191 66 l 191 412 q 145 472 190 456 q 148 473 146 472 q 191 519 191 484 l 191 636 q 191 670 191 654 q 216 894 193 853 q 297 926 235 926 l 297 997 q 183 974 222 997 q 104 735 104 928 l 104 553 q 91 511 103 528 q 20 472 79 496 "},"}":{"ha":324,"x_min":27,"x_max":304,"o":"m 27 -52 q 125 -34 87 -52 q 220 208 220 9 l 220 393 q 237 435 220 418 q 304 472 244 441 q 263 490 271 486 q 220 553 221 510 l 220 735 q 175 943 220 883 q 27 997 136 997 l 27 926 q 113 886 83 924 q 133 636 133 841 l 133 519 q 179 472 134 486 q 133 412 136 457 l 133 281 q 104 61 133 119 q 27 19 83 19 l 27 -52 "},"[":{"ha":274,"x_min":68,"x_max":220,"o":"m 68 -49 l 220 -49 l 220 30 l 155 30 l 159 924 l 220 924 l 220 1002 l 68 1002 l 68 -49 "},"]":{"ha":271,"x_min":54,"x_max":206,"o":"m 54 -49 l 206 -49 l 206 1002 l 54 1002 l 54 924 l 115 924 l 119 30 l 54 30 l 54 -49 "},"˘":{"ha":331,"x_min":66,"x_max":264,"o":"m 66 713 q 76 674 66 694 q 165 616 103 616 q 222 635 197 616 q 264 713 264 665 l 209 713 q 208 700 209 708 q 165 670 198 670 q 152 671 160 670 q 122 713 122 681 l 66 713 "},"¦":{"ha":210,"x_min":57,"x_max":142,"o":"m 57 -184 l 142 -184 l 142 298 l 57 298 l 57 -184 m 57 544 l 142 544 l 142 1027 l 57 1027 l 57 544 "},"•":{"ha":477,"x_min":123,"x_max":354,"o":"m 123 468 q 137 411 123 438 q 239 353 170 353 q 296 366 269 353 q 354 468 354 399 q 340 525 354 499 q 239 583 308 583 q 182 570 209 583 q 123 468 123 537 "},"c":{"ha":595,"x_min":53,"x_max":559,"o":"m 53 197 l 53 522 q 84 618 54 570 q 277 720 149 720 l 277 635 q 191 605 229 635 q 144 518 144 567 l 144 197 q 160 146 144 172 q 277 85 201 85 l 277 0 q 107 68 171 0 q 53 197 53 126 m 338 633 l 338 720 q 463 678 407 720 q 543 519 543 617 l 458 488 q 457 517 458 510 q 438 576 454 551 q 338 633 404 633 m 336 -1 l 336 84 q 397 98 368 84 q 473 206 465 130 l 473 233 l 559 201 q 502 71 559 130 q 336 -1 431 -3 "},"ć":{"ha":595,"x_min":53,"x_max":559,"o":"m 274 802 l 336 802 l 411 1008 l 324 1008 l 274 802 m 53 197 l 53 522 q 84 618 54 570 q 277 720 149 720 l 277 635 q 191 605 229 635 q 144 518 144 567 l 144 197 q 160 146 144 172 q 277 85 201 85 l 277 0 q 107 68 171 0 q 53 197 53 126 m 338 633 l 338 720 q 463 678 407 720 q 543 519 543 617 l 458 488 q 457 517 458 510 q 438 576 454 551 q 338 633 404 633 m 336 -1 l 336 84 q 397 98 368 84 q 473 206 465 130 l 473 233 l 559 201 q 502 71 559 130 q 336 -1 431 -3 "},"ˇ":{"ha":366,"x_min":52,"x_max":313,"o":"m 52 903 l 155 697 l 210 697 l 313 903 l 247 903 l 183 772 l 118 903 l 52 903 "},"č":{"ha":595,"x_min":53,"x_max":559,"o":"m 174 1008 l 277 802 l 332 802 l 435 1008 l 369 1008 l 305 876 l 240 1008 l 174 1008 m 53 197 l 53 522 q 84 618 54 570 q 277 720 149 720 l 277 635 q 191 605 229 635 q 144 518 144 567 l 144 197 q 160 146 144 172 q 277 85 201 85 l 277 0 q 107 68 171 0 q 53 197 53 126 m 338 633 l 338 720 q 463 678 407 720 q 543 519 543 617 l 458 488 q 457 517 458 510 q 438 576 454 551 q 338 633 404 633 m 336 -1 l 336 84 q 397 98 368 84 q 473 206 465 130 l 473 233 l 559 201 q 502 71 559 130 q 336 -1 431 -3 "},"ç":{"ha":595,"x_min":53,"x_max":559,"o":"m 146 -244 q 278 -203 225 -244 q 349 -54 349 -149 l 274 -54 q 262 -109 274 -84 q 146 -172 231 -172 l 146 -244 m 53 197 l 53 522 q 84 618 54 570 q 277 720 149 720 l 277 635 q 191 605 229 635 q 144 518 144 567 l 144 197 q 160 146 144 172 q 277 85 201 85 l 277 0 q 107 68 171 0 q 53 197 53 126 m 338 633 l 338 720 q 463 678 407 720 q 543 519 543 617 l 458 488 q 457 517 458 510 q 438 576 454 551 q 338 633 404 633 m 336 -1 l 336 84 q 397 98 368 84 q 473 206 465 130 l 473 233 l 559 201 q 502 71 559 130 q 336 -1 431 -3 "},"¸":{"ha":552,"x_min":167,"x_max":369,"o":"m 167 -23 q 298 18 245 -23 q 369 167 369 72 l 294 167 q 282 113 294 137 q 167 49 251 49 l 167 -23 "},"¢":{"ha":583,"x_min":52,"x_max":556,"o":"m 335 815 l 387 815 l 387 712 q 460 677 426 703 q 541 518 541 617 l 457 487 q 456 499 457 490 q 456 513 456 510 q 434 579 453 549 q 335 632 399 632 l 335 815 m 224 815 l 275 815 l 275 633 q 191 605 229 633 q 141 513 141 567 l 141 201 q 159 149 141 176 q 275 85 199 87 l 275 -95 l 224 -95 l 224 4 q 107 66 155 18 q 52 197 52 125 l 52 521 q 73 600 52 559 q 224 713 121 693 l 224 815 m 335 -95 l 335 84 q 395 98 365 84 q 471 203 461 130 q 471 217 471 206 q 472 233 472 229 l 556 201 q 529 107 556 153 q 387 5 480 27 l 387 -95 l 335 -95 "},"ˆ":{"ha":366,"x_min":52,"x_max":313,"o":"m 52 697 l 118 697 l 182 829 l 247 697 l 313 697 l 210 903 l 153 903 l 52 697 "},":":{"ha":244,"x_min":68,"x_max":176,"o":"m 68 73 q 72 54 68 64 q 122 20 84 20 q 140 23 132 20 q 175 73 175 35 q 172 92 175 83 q 122 127 159 127 q 103 123 113 127 q 68 73 68 111 m 69 467 q 73 448 69 457 q 122 414 85 414 q 141 416 132 414 q 176 467 176 430 q 172 486 176 476 q 122 521 160 521 q 103 517 114 521 q 69 467 69 503 "},",":{"ha":254,"x_min":58,"x_max":195,"o":"m 58 -31 l 145 -31 l 195 175 l 109 175 l 58 -31 "},"©":{"ha":1059,"x_min":47,"x_max":1019,"o":"m 47 460 q 53 536 47 498 q 252 863 81 741 q 513 954 381 955 l 513 890 q 252 784 376 886 q 110 460 110 656 q 227 165 111 293 q 513 34 346 35 l 513 -34 q 486 -33 499 -34 q 187 111 313 -20 q 47 460 47 255 m 339 330 l 339 589 q 361 673 339 631 q 513 766 408 766 l 513 703 q 446 680 473 703 q 404 586 404 643 l 404 330 q 416 278 404 304 q 513 216 446 216 l 513 153 q 393 198 441 153 q 339 330 339 250 m 560 -34 l 560 34 q 574 34 567 34 q 842 169 728 42 q 956 457 956 296 q 956 472 956 464 q 822 777 951 652 q 560 890 705 890 l 560 954 q 593 952 575 954 q 867 819 745 939 q 1019 456 1019 673 q 1016 411 1019 434 q 853 87 997 218 q 560 -34 720 -33 m 560 152 l 560 216 q 604 228 582 216 q 655 320 652 259 l 655 338 l 718 315 q 685 220 718 264 q 560 152 635 152 m 560 703 l 560 766 q 652 734 609 766 q 716 605 716 682 l 652 582 l 652 594 q 633 658 652 629 q 560 703 604 703 "},"¤":{"ha":829,"x_min":54,"x_max":761,"o":"m 54 232 l 106 174 l 206 263 q 382 179 275 180 l 382 262 q 293 297 334 262 q 244 388 244 339 l 244 601 q 260 656 244 628 q 382 726 298 726 l 382 808 q 208 728 274 807 l 106 818 l 54 758 l 168 656 q 160 613 160 636 l 160 377 q 168 335 160 351 l 54 232 m 438 179 q 609 262 543 180 l 709 174 l 761 232 l 646 335 q 654 377 654 355 l 654 613 q 646 655 654 635 l 761 758 l 709 818 l 608 727 q 438 808 547 807 l 438 726 q 522 696 486 726 q 570 600 570 655 l 570 387 q 553 331 570 359 q 438 260 515 260 l 438 179 "},"d":{"ha":593,"x_min":41,"x_max":538,"o":"m 41 197 q 73 102 41 152 q 258 0 138 0 l 382 0 l 382 87 l 255 87 q 186 110 221 87 q 129 199 129 148 l 129 519 q 152 579 129 548 q 255 633 194 632 l 382 633 l 382 719 l 254 719 q 110 662 174 719 q 41 526 41 601 l 41 197 m 446 0 l 538 0 l 538 955 l 446 955 l 446 0 "},"†":{"ha":614,"x_min":35,"x_max":579,"o":"m 35 652 l 260 652 l 260 -76 l 353 -76 l 353 652 l 579 652 l 579 738 l 353 738 l 353 1036 l 260 1036 l 260 738 l 35 738 l 35 652 "},"‡":{"ha":614,"x_min":35,"x_max":579,"o":"m 35 220 l 262 220 l 262 -76 l 354 -76 l 354 220 l 579 220 l 579 305 l 354 305 l 354 655 l 579 655 l 579 741 l 354 741 l 354 1036 l 262 1036 l 262 741 l 35 741 l 35 655 l 262 655 l 262 305 l 35 305 l 35 220 "},"ď":{"ha":593,"x_min":41,"x_max":783,"o":"m 646 765 l 732 765 l 783 971 l 696 971 l 646 765 m 41 197 q 73 102 41 152 q 258 0 138 0 l 382 0 l 382 87 l 255 87 q 186 110 221 87 q 129 199 129 148 l 129 519 q 152 579 129 548 q 255 633 194 632 l 382 633 l 382 719 l 254 719 q 110 662 174 719 q 41 526 41 601 l 41 197 m 446 0 l 538 0 l 538 955 l 446 955 l 446 0 "},"đ":{"ha":562,"x_min":37,"x_max":608,"o":"m 37 191 q 68 99 37 148 q 248 0 130 0 l 372 0 l 372 81 l 245 81 q 178 103 213 81 q 121 194 121 141 l 121 506 q 142 564 121 534 q 245 618 184 617 l 372 618 l 372 700 l 244 700 q 104 644 165 700 q 37 511 37 585 l 37 191 m 339 789 l 434 789 l 434 0 l 521 0 l 521 789 l 608 789 l 608 863 l 521 863 l 521 955 l 434 955 l 434 863 l 339 863 l 339 789 "},"°":{"ha":319,"x_min":47,"x_max":271,"o":"m 47 791 q 64 734 47 761 q 159 680 96 680 q 216 696 189 680 q 271 791 271 728 q 255 848 271 821 q 159 902 222 902 q 102 886 129 902 q 47 791 47 853 m 107 791 q 111 810 107 800 q 159 844 123 844 q 176 841 168 844 q 212 791 212 829 q 209 774 212 783 q 159 739 197 739 q 141 742 151 739 q 107 791 107 754 "},"¨":{"ha":423,"x_min":75,"x_max":349,"o":"m 75 921 q 79 899 75 910 q 130 865 94 865 q 149 868 140 865 q 186 921 186 882 q 183 940 186 930 q 130 975 170 975 q 110 971 121 975 q 75 921 75 958 m 237 921 q 241 899 237 910 q 293 865 256 865 q 312 868 302 865 q 349 921 349 882 q 346 940 349 930 q 293 975 332 975 q 273 971 283 975 q 237 921 237 958 "},"÷":{"ha":882,"x_min":123,"x_max":734,"o":"m 123 353 l 734 353 l 734 438 l 123 438 l 123 353 m 373 586 q 378 559 373 572 q 439 519 396 519 q 467 525 453 519 q 506 586 506 543 q 500 613 506 600 q 439 652 483 652 q 412 647 426 652 q 373 586 373 629 m 373 220 q 378 193 373 206 q 439 153 396 153 q 467 159 453 153 q 506 220 506 176 q 500 247 506 233 q 439 286 483 286 q 412 281 426 286 q 373 220 373 263 "},"$":{"ha":692,"x_min":46,"x_max":644,"o":"m 46 214 q 79 125 47 175 q 244 4 140 27 l 244 -64 l 300 -64 l 300 83 q 264 91 300 83 q 132 244 152 127 l 46 214 m 57 694 q 77 590 57 635 q 224 475 111 519 q 300 454 241 468 l 300 552 q 281 557 290 555 q 148 690 148 598 q 203 817 149 765 q 300 863 251 860 l 300 1017 l 244 1017 l 244 937 q 182 910 213 928 q 57 694 57 837 m 365 -64 l 420 -64 l 420 4 q 555 76 495 20 q 644 278 644 161 q 627 378 644 335 q 471 506 591 463 q 365 533 441 517 l 365 438 q 414 426 392 431 q 552 281 552 384 q 483 137 552 197 q 365 83 423 84 l 365 -64 m 365 863 l 377 861 q 410 851 391 860 q 451 829 430 842 q 492 787 472 815 q 521 722 511 758 l 606 750 q 581 812 601 777 q 420 940 519 914 l 420 1017 l 365 1017 l 365 863 "},"˙":{"ha":274,"x_min":79,"x_max":195,"o":"m 79 920 q 83 898 79 909 q 137 861 96 861 q 159 865 148 861 q 195 920 195 879 q 191 943 195 932 q 137 979 176 979 q 114 974 126 979 q 79 920 79 959 "},"ı":{"ha":236,"x_min":76,"x_max":161,"o":"m 76 0 l 161 0 l 161 700 l 76 700 l 76 0 "},"◌":{"ha":863,"x_min":60,"x_max":814,"o":"m 220 656 q 224 637 220 647 q 274 602 236 602 q 293 606 283 602 q 328 656 328 618 q 324 675 328 666 q 274 709 312 709 q 255 707 264 709 q 220 656 220 693 m 104 540 q 107 521 104 530 q 157 486 121 486 q 176 490 167 486 q 212 540 212 502 q 208 559 212 549 q 157 594 195 594 q 138 590 148 594 q 104 540 104 578 m 220 98 q 224 79 220 88 q 274 45 236 45 q 293 47 283 45 q 328 98 328 61 q 324 117 328 107 q 274 152 312 152 q 255 148 264 152 q 220 98 220 136 m 104 214 q 107 195 104 205 q 157 160 121 160 q 176 164 167 160 q 212 214 212 176 q 208 233 212 224 q 157 269 195 269 q 138 264 148 269 q 104 214 104 252 m 545 98 q 549 79 545 88 q 600 45 562 45 q 618 47 609 45 q 654 98 654 61 q 650 117 654 107 q 600 152 637 152 q 581 148 590 152 q 545 98 545 136 m 662 214 q 666 195 662 205 q 716 160 678 160 q 735 164 726 160 q 769 214 769 176 q 766 233 769 224 q 716 269 753 269 q 697 264 707 269 q 662 214 662 252 m 662 540 q 666 521 662 530 q 716 486 678 486 q 735 490 726 486 q 769 540 769 502 q 766 559 769 549 q 716 594 753 594 q 697 590 707 594 q 662 540 662 578 m 545 656 q 549 637 545 647 q 600 602 562 602 q 618 606 609 602 q 654 656 654 618 q 650 675 654 666 q 600 709 637 709 q 581 707 590 709 q 545 656 545 693 m 705 377 q 709 358 705 368 q 760 323 722 323 q 779 327 769 323 q 814 377 814 339 q 810 396 814 387 q 760 431 798 431 q 741 427 750 431 q 705 377 705 415 m 382 54 q 387 35 382 45 q 437 0 399 0 q 456 4 446 0 q 491 54 491 16 q 487 73 491 64 q 437 109 475 109 q 418 104 427 109 q 382 54 382 92 m 60 377 q 64 358 60 368 q 114 323 76 323 q 133 327 123 323 q 168 377 168 339 q 164 396 168 387 q 114 431 152 431 q 95 427 104 431 q 60 377 60 415 m 382 700 q 387 681 382 690 q 437 646 399 646 q 456 650 446 646 q 491 700 491 662 q 487 719 491 709 q 437 754 475 754 q 418 750 427 754 q 382 700 382 738 "},"e":{"ha":625,"x_min":53,"x_max":572,"o":"m 53 197 q 90 99 53 152 q 281 0 160 0 l 281 84 q 191 118 233 84 q 144 197 144 157 l 144 328 l 571 328 l 571 528 q 510 654 570 597 q 345 720 437 720 l 345 637 q 418 617 382 637 q 484 515 484 581 l 484 415 l 144 415 l 144 515 q 164 571 144 541 q 279 635 208 635 l 279 720 q 113 648 180 719 q 53 526 54 589 l 53 197 m 345 0 q 456 26 404 0 q 572 167 545 71 l 492 197 q 475 157 488 178 q 345 87 430 87 l 345 0 "},"é":{"ha":625,"x_min":53,"x_max":572,"o":"m 279 802 l 342 802 l 416 1008 l 330 1008 l 279 802 m 53 197 q 90 99 53 152 q 281 0 160 0 l 281 84 q 191 118 233 84 q 144 197 144 157 l 144 328 l 571 328 l 571 528 q 510 654 570 597 q 345 720 437 720 l 345 637 q 418 617 382 637 q 484 515 484 581 l 484 415 l 144 415 l 144 515 q 164 571 144 541 q 279 635 208 635 l 279 720 q 113 648 180 719 q 53 526 54 589 l 53 197 m 345 0 q 456 26 404 0 q 572 167 545 71 l 492 197 q 475 157 488 178 q 345 87 430 87 l 345 0 "},"ě":{"ha":625,"x_min":53,"x_max":572,"o":"m 179 1008 l 282 802 l 338 802 l 441 1008 l 374 1008 l 311 876 l 245 1008 l 179 1008 m 53 197 q 90 99 53 152 q 281 0 160 0 l 281 84 q 191 118 233 84 q 144 197 144 157 l 144 328 l 571 328 l 571 528 q 510 654 570 597 q 345 720 437 720 l 345 637 q 418 617 382 637 q 484 515 484 581 l 484 415 l 144 415 l 144 515 q 164 571 144 541 q 279 635 208 635 l 279 720 q 113 648 180 719 q 53 526 54 589 l 53 197 m 345 0 q 456 26 404 0 q 572 167 545 71 l 492 197 q 475 157 488 178 q 345 87 430 87 l 345 0 "},"ê":{"ha":625,"x_min":53,"x_max":572,"o":"m 179 802 l 245 802 l 309 933 l 374 802 l 441 802 l 338 1008 l 281 1008 l 179 802 m 53 197 q 90 99 53 152 q 281 0 160 0 l 281 84 q 191 118 233 84 q 144 197 144 157 l 144 328 l 571 328 l 571 528 q 510 654 570 597 q 345 720 437 720 l 345 637 q 418 617 382 637 q 484 515 484 581 l 484 415 l 144 415 l 144 515 q 164 571 144 541 q 279 635 208 635 l 279 720 q 113 648 180 719 q 53 526 54 589 l 53 197 m 345 0 q 456 26 404 0 q 572 167 545 71 l 492 197 q 475 157 488 178 q 345 87 430 87 l 345 0 "},"ë":{"ha":625,"x_min":53,"x_max":572,"o":"m 174 857 q 178 836 174 846 q 229 802 193 802 q 248 804 239 802 q 285 857 285 818 q 282 876 285 867 q 229 911 269 911 q 209 907 220 911 q 174 857 174 894 m 336 857 q 340 836 336 846 q 392 802 355 802 q 411 804 401 802 q 448 857 448 818 q 445 876 448 867 q 392 911 431 911 q 372 907 382 911 q 336 857 336 894 m 53 197 q 90 99 53 152 q 281 0 160 0 l 281 84 q 191 118 233 84 q 144 197 144 157 l 144 328 l 571 328 l 571 528 q 510 654 570 597 q 345 720 437 720 l 345 637 q 418 617 382 637 q 484 515 484 581 l 484 415 l 144 415 l 144 515 q 164 571 144 541 q 279 635 208 635 l 279 720 q 113 648 180 719 q 53 526 54 589 l 53 197 m 345 0 q 456 26 404 0 q 572 167 545 71 l 492 197 q 475 157 488 178 q 345 87 430 87 l 345 0 "},"ė":{"ha":625,"x_min":53,"x_max":572,"o":"m 252 860 q 256 838 252 849 q 311 802 270 802 q 332 806 321 802 q 369 860 369 819 q 365 883 369 872 q 311 920 350 920 q 288 914 300 920 q 252 860 252 899 m 53 197 q 90 99 53 152 q 281 0 160 0 l 281 84 q 191 118 233 84 q 144 197 144 157 l 144 328 l 571 328 l 571 528 q 510 654 570 597 q 345 720 437 720 l 345 637 q 418 617 382 637 q 484 515 484 581 l 484 415 l 144 415 l 144 515 q 164 571 144 541 q 279 635 208 635 l 279 720 q 113 648 180 719 q 53 526 54 589 l 53 197 m 345 0 q 456 26 404 0 q 572 167 545 71 l 492 197 q 475 157 488 178 q 345 87 430 87 l 345 0 "},"è":{"ha":625,"x_min":53,"x_max":572,"o":"m 203 1008 l 278 802 l 340 802 l 290 1008 l 203 1008 m 53 197 q 90 99 53 152 q 281 0 160 0 l 281 84 q 191 118 233 84 q 144 197 144 157 l 144 328 l 571 328 l 571 528 q 510 654 570 597 q 345 720 437 720 l 345 637 q 418 617 382 637 q 484 515 484 581 l 484 415 l 144 415 l 144 515 q 164 571 144 541 q 279 635 208 635 l 279 720 q 113 648 180 719 q 53 526 54 589 l 53 197 m 345 0 q 456 26 404 0 q 572 167 545 71 l 492 197 q 475 157 488 178 q 345 87 430 87 l 345 0 "},"…":{"ha":872,"x_min":60,"x_max":812,"o":"m 60 24 q 64 5 60 15 q 114 -30 76 -30 q 133 -26 123 -30 q 168 24 168 -14 q 164 43 168 34 q 114 79 152 79 q 95 75 104 79 q 60 24 60 62 m 382 24 q 387 5 382 15 q 437 -30 399 -30 q 456 -26 446 -30 q 491 24 491 -14 q 487 43 491 34 q 437 79 475 79 q 418 75 427 79 q 382 24 382 62 m 705 24 q 708 5 705 15 q 758 -30 722 -30 q 777 -26 768 -30 q 812 24 812 -14 q 808 43 812 34 q 758 79 796 79 q 739 75 749 79 q 705 24 705 62 "},"ē":{"ha":625,"x_min":53,"x_max":572,"o":"m 96 803 l 525 803 l 525 863 l 96 863 l 96 803 m 53 197 q 90 99 53 152 q 281 0 160 0 l 281 84 q 191 118 233 84 q 144 197 144 157 l 144 328 l 571 328 l 571 528 q 510 654 570 597 q 345 720 437 720 l 345 637 q 418 617 382 637 q 484 515 484 581 l 484 415 l 144 415 l 144 515 q 164 571 144 541 q 279 635 208 635 l 279 720 q 113 648 180 719 q 53 526 54 589 l 53 197 m 345 0 q 456 26 404 0 q 572 167 545 71 l 492 197 q 475 157 488 178 q 345 87 430 87 l 345 0 "},"—":{"ha":1229,"x_min":35,"x_max":1194,"o":"m 35 355 l 1194 355 l 1194 441 l 35 441 l 35 355 "},"–":{"ha":722,"x_min":35,"x_max":686,"o":"m 35 355 l 686 355 l 686 441 l 35 441 l 35 355 "},"ę":{"ha":625,"x_min":53,"x_max":572,"o":"m 480 -244 q 349 -203 401 -244 q 278 -54 278 -149 l 353 -54 q 365 -109 353 -84 q 480 -172 396 -172 l 480 -244 m 53 197 q 90 99 53 152 q 281 0 160 0 l 281 84 q 191 118 233 84 q 144 197 144 157 l 144 328 l 571 328 l 571 528 q 510 654 570 597 q 345 720 437 720 l 345 637 q 418 617 382 637 q 484 515 484 581 l 484 415 l 144 415 l 144 515 q 164 571 144 541 q 279 635 208 635 l 279 720 q 113 648 180 719 q 53 526 54 589 l 53 197 m 345 0 q 456 26 404 0 q 572 167 545 71 l 492 197 q 475 157 488 178 q 345 87 430 87 l 345 0 "},"=":{"ha":567,"x_min":68,"x_max":499,"o":"m 68 263 l 499 263 l 499 350 l 68 350 l 68 263 m 68 441 l 499 441 l 499 528 l 68 528 l 68 441 "},"℮":{"ha":720,"x_min":41,"x_max":632,"o":"m 300 0 l 300 90 q 232 104 263 91 q 133 301 133 152 l 133 391 l 632 391 l 632 678 q 578 848 632 770 q 374 956 502 956 l 374 865 q 456 841 418 865 q 540 655 540 785 l 540 481 l 133 481 l 133 655 q 163 781 133 727 q 300 865 209 865 l 300 956 q 125 883 198 956 q 41 677 41 799 l 41 281 q 91 110 41 186 q 300 0 165 0 m 374 -1 q 515 37 449 -1 q 632 184 613 91 l 541 212 q 510 152 536 182 q 374 92 456 94 l 374 -1 "},"ð":{"ha":570,"x_min":38,"x_max":549,"o":"m 38 191 q 69 99 38 148 q 260 -1 136 -1 l 260 80 q 170 115 210 80 q 122 209 122 159 l 122 492 q 137 547 122 518 q 260 618 175 618 l 260 700 q 95 631 161 700 q 38 510 38 572 l 38 191 m 260 916 q 382 838 345 882 l 311 817 l 328 760 l 414 785 q 442 654 442 731 q 316 700 392 699 l 316 618 q 396 593 361 618 q 448 502 448 556 l 448 206 q 433 151 448 180 q 316 80 395 80 l 316 -1 q 476 68 412 0 q 532 191 532 127 l 532 594 q 488 807 532 723 l 549 826 l 532 883 l 456 861 q 260 968 389 943 l 260 916 "},"!":{"ha":221,"x_min":57,"x_max":164,"o":"m 57 42 q 61 23 57 34 q 111 -11 75 -11 q 130 -7 121 -11 q 164 42 164 5 q 161 61 164 52 q 111 96 148 96 q 92 92 102 96 q 57 42 57 80 m 68 225 l 156 225 l 156 949 l 68 949 l 68 225 "},"¡":{"ha":228,"x_min":27,"x_max":142,"o":"m 27 666 q 33 643 27 655 q 85 609 47 609 q 107 613 96 609 q 142 666 142 628 q 138 688 142 677 q 85 723 123 723 q 62 719 73 723 q 27 666 27 703 m 41 -167 l 132 -167 l 132 552 l 41 552 l 41 -167 "},"f":{"ha":359,"x_min":35,"x_max":339,"o":"m 35 576 l 123 576 l 123 0 l 213 0 l 213 576 l 302 576 l 302 663 l 213 662 l 213 751 q 301 865 214 860 l 320 865 l 339 952 l 304 952 q 176 898 225 951 q 123 751 123 838 l 123 663 l 35 663 l 35 576 "},"ﬁ":{"ha":670,"x_min":75,"x_max":492,"o":"m 75 581 l 75 662 l 160 662 l 160 749 q 172 823 160 785 q 335 944 212 944 l 369 944 l 350 863 l 326 863 q 245 749 248 853 l 245 661 l 481 661 l 481 0 l 396 0 l 396 581 l 245 581 l 245 0 l 160 0 l 160 581 l 75 581 m 382 808 q 387 829 382 818 q 438 863 401 863 q 457 859 448 863 q 492 808 492 846 q 488 789 492 799 q 438 755 476 755 q 418 760 429 755 q 382 808 382 773 "},"ﬂ":{"ha":490,"x_min":75,"x_max":499,"o":"m 75 581 l 75 662 l 160 662 l 160 749 q 172 823 160 785 q 335 944 212 944 l 499 944 l 499 0 l 412 0 l 412 863 l 332 863 q 288 849 307 861 q 245 749 245 819 l 245 661 l 332 662 l 332 581 l 245 581 l 245 0 l 160 0 l 160 581 l 75 581 "},"ƒ":{"ha":518,"x_min":35,"x_max":483,"o":"m 35 -228 l 98 -228 q 277 -41 274 -227 l 277 579 l 366 579 l 366 661 l 277 659 l 277 724 q 425 863 278 860 l 464 863 l 483 944 l 400 944 q 254 880 313 943 q 191 732 191 815 l 191 661 l 106 661 l 106 579 l 191 579 l 191 -56 q 104 -151 190 -149 l 56 -151 l 35 -228 "},"⁄":{"ha":670,"x_min":9,"x_max":659,"o":"m 9 -1 l 76 -1 l 659 951 l 595 951 l 9 -1 "},"g":{"ha":595,"x_min":37,"x_max":543,"o":"m 37 -250 l 330 -250 q 492 -171 426 -248 q 543 -53 543 -110 l 543 723 l 456 723 l 456 671 q 449 678 453 674 q 326 723 393 723 l 326 639 q 387 623 354 639 q 456 525 456 589 l 456 198 q 430 136 456 167 q 326 83 387 83 l 326 3 q 456 57 396 3 l 456 -53 q 441 -98 456 -75 q 311 -165 399 -161 l 60 -165 l 37 -250 m 49 197 q 79 106 49 155 q 266 3 142 3 l 266 87 q 183 117 221 87 q 137 198 137 153 l 137 526 q 155 575 137 549 q 266 639 195 639 l 266 723 q 103 652 170 722 q 49 530 50 593 l 49 197 "},"ğ":{"ha":595,"x_min":37,"x_max":543,"o":"m 190 902 q 199 863 190 883 q 289 804 227 804 q 346 823 320 804 q 388 902 388 853 l 332 902 q 331 888 332 897 q 289 859 321 859 q 275 860 283 859 q 245 902 245 869 l 190 902 m 37 -250 l 330 -250 q 492 -171 426 -248 q 543 -53 543 -110 l 543 723 l 456 723 l 456 671 q 449 678 453 674 q 326 723 393 723 l 326 639 q 387 623 354 639 q 456 525 456 589 l 456 198 q 430 136 456 167 q 326 83 387 83 l 326 3 q 456 57 396 3 l 456 -53 q 441 -98 456 -75 q 311 -165 399 -161 l 60 -165 l 37 -250 m 49 197 q 79 106 49 155 q 266 3 142 3 l 266 87 q 183 117 221 87 q 137 198 137 153 l 137 526 q 155 575 137 549 q 266 639 195 639 l 266 723 q 103 652 170 722 q 49 530 50 593 l 49 197 "},"ß":{"ha":708,"x_min":35,"x_max":673,"o":"m 35 0 l 123 0 l 123 675 q 307 873 125 872 q 449 803 414 872 q 469 643 469 761 l 469 627 q 430 620 449 625 q 331 503 331 595 q 353 425 331 458 q 454 354 377 391 q 481 342 473 346 q 551 304 534 315 q 591 208 591 274 q 578 149 591 175 q 416 79 538 79 l 270 79 l 270 0 l 444 0 q 572 33 515 0 q 673 210 673 91 q 530 406 671 355 q 467 431 494 418 q 414 499 414 458 q 416 511 414 505 q 476 551 429 549 l 551 551 l 551 703 q 549 745 551 724 q 307 956 530 956 q 52 791 102 955 q 35 620 37 739 l 35 0 "},"`":{"ha":285,"x_min":56,"x_max":193,"o":"m 56 1027 l 130 821 l 193 821 l 142 1027 l 56 1027 "},">":{"ha":581,"x_min":50,"x_max":530,"o":"m 50 107 l 530 368 l 530 423 l 50 678 l 50 590 l 418 396 l 50 194 l 50 107 "},"≥":{"ha":585,"x_min":38,"x_max":544,"o":"m 41 201 l 544 460 l 544 513 l 41 769 l 41 681 l 425 487 l 41 288 l 41 201 m 38 52 l 544 52 l 544 129 l 38 129 l 38 52 "},"«":{"ha":637,"x_min":34,"x_max":606,"o":"m 34 373 l 320 160 l 320 255 l 134 396 l 320 529 l 320 625 l 34 414 l 34 373 m 320 373 l 606 160 l 606 255 l 420 396 l 606 529 l 606 625 l 320 414 l 320 373 "},"»":{"ha":620,"x_min":20,"x_max":593,"o":"m 20 179 l 307 363 l 307 423 l 20 605 l 20 518 l 227 396 l 20 264 l 20 179 m 307 179 l 593 363 l 593 423 l 307 605 l 307 518 l 513 396 l 307 264 l 307 179 "},"‹":{"ha":458,"x_min":84,"x_max":369,"o":"m 84 396 l 262 107 l 369 107 l 191 396 l 369 678 l 262 678 l 84 396 "},"›":{"ha":458,"x_min":85,"x_max":372,"o":"m 85 107 l 194 107 l 372 396 l 194 678 l 85 678 l 263 396 l 85 107 "},"h":{"ha":614,"x_min":54,"x_max":564,"o":"m 54 -3 l 142 -3 l 142 506 q 170 570 142 537 q 282 625 217 625 l 282 709 q 141 651 194 708 l 141 954 l 54 954 l 54 -3 m 345 625 q 423 605 389 625 q 477 506 477 570 l 477 -3 l 564 -3 l 564 518 q 532 620 564 572 q 345 709 471 709 l 345 625 "},"˝":{"ha":392,"x_min":117,"x_max":400,"o":"m 263 821 l 326 821 l 400 1027 l 313 1027 l 263 821 m 117 821 l 179 821 l 254 1027 l 167 1027 l 117 821 "},"-":{"ha":545,"x_min":58,"x_max":487,"o":"m 58 355 l 487 355 l 487 441 l 58 441 l 58 355 "},"i":{"ha":229,"x_min":60,"x_max":168,"o":"m 60 817 q 64 798 60 807 q 115 764 77 764 q 133 766 123 764 q 168 817 168 779 q 165 836 168 826 q 115 871 152 871 q 95 867 106 871 q 60 817 60 853 m 71 0 l 160 0 l 160 709 l 71 709 l 71 0 "},"í":{"ha":236,"x_min":76,"x_max":225,"o":"m 88 802 l 151 802 l 225 1008 l 138 1008 l 88 802 m 76 0 l 161 0 l 161 700 l 76 700 l 76 0 "},"î":{"ha":236,"x_min":-12,"x_max":250,"o":"m -12 802 l 54 802 l 118 933 l 183 802 l 250 802 l 146 1008 l 90 1008 l -12 802 m 76 0 l 161 0 l 161 700 l 76 700 l 76 0 "},"ï":{"ha":236,"x_min":-18,"x_max":256,"o":"m -18 857 q -14 836 -18 846 q 38 802 1 802 q 57 804 47 802 q 94 857 94 818 q 91 876 94 867 q 38 911 77 911 q 18 907 28 911 q -18 857 -18 894 m 145 857 q 149 836 145 846 q 201 802 164 802 q 220 804 210 802 q 256 857 256 818 q 254 876 256 867 q 201 911 240 911 q 180 907 191 911 q 145 857 145 894 m 76 0 l 161 0 l 161 700 l 76 700 l 76 0 "},"ì":{"ha":236,"x_min":12,"x_max":161,"o":"m 12 1008 l 87 802 l 149 802 l 99 1008 l 12 1008 m 76 0 l 161 0 l 161 700 l 76 700 l 76 0 "},"ī":{"ha":236,"x_min":-95,"x_max":334,"o":"m -95 803 l 334 803 l 334 863 l -95 863 l -95 803 m 76 0 l 161 0 l 161 700 l 76 700 l 76 0 "},"∞":{"ha":1082,"x_min":41,"x_max":1047,"o":"m 319 -1 q 374 7 347 -1 q 487 106 454 33 l 545 250 l 602 106 q 624 69 610 88 q 770 0 680 0 l 770 81 q 757 83 765 81 q 675 142 697 90 l 590 351 l 675 557 q 682 570 678 563 q 770 617 711 617 l 770 700 q 705 689 738 700 q 601 593 628 661 l 545 454 l 488 594 q 464 635 480 614 q 319 700 408 700 l 319 618 q 332 617 324 618 q 414 557 392 610 l 499 351 l 414 141 q 410 132 412 137 q 319 81 381 81 l 319 -1 m 263 -1 l 263 81 q 172 117 213 81 q 125 209 125 159 l 125 492 q 140 547 125 518 q 263 618 178 618 l 263 700 q 98 631 164 700 q 41 510 41 572 l 41 191 q 72 99 41 148 q 263 -1 138 -1 m 826 -1 q 991 68 925 -1 q 1047 191 1047 127 l 1047 510 q 1015 602 1047 553 q 826 700 948 700 l 826 617 q 913 589 875 617 q 963 492 963 551 l 963 208 q 944 149 963 180 q 826 80 901 80 l 826 -1 "},"∫":{"ha":408,"x_min":12,"x_max":393,"o":"m 12 -194 l 12 -245 q 134 -222 73 -258 q 237 -4 237 -159 l 237 848 q 297 1015 237 963 q 393 1036 345 1054 l 393 1088 q 275 1065 335 1100 q 172 848 172 1001 l 172 -4 q 115 -168 172 -118 q 12 -194 69 -209 "},"į":{"ha":229,"x_min":60,"x_max":279,"o":"m 279 -241 l 279 -170 q 224 -160 251 -170 q 152 -52 152 -132 l 77 -52 q 96 -137 77 -96 q 279 -241 146 -241 m 60 817 q 64 798 60 807 q 115 764 77 764 q 133 766 123 764 q 168 817 168 779 q 165 836 168 826 q 115 871 152 871 q 95 867 106 871 q 60 817 60 853 m 71 0 l 160 0 l 160 709 l 71 709 l 71 0 "},"j":{"ha":262,"x_min":-57,"x_max":203,"o":"m 103 709 l 103 -50 q 85 -106 103 -76 q -15 -167 47 -163 l -37 -167 l -57 -252 l -16 -252 q 141 -176 77 -251 q 194 -50 194 -113 l 194 709 l 103 709 m 95 817 q 99 798 95 807 q 151 764 113 764 q 170 768 160 764 q 203 817 203 780 q 199 838 203 827 q 151 871 186 871 q 130 867 141 871 q 95 817 95 853 "},"k":{"ha":637,"x_min":56,"x_max":610,"o":"m 56 0 l 146 0 l 146 954 l 56 954 l 56 0 m 179 359 l 496 0 l 610 0 l 292 359 l 609 719 l 495 719 l 179 359 "},"l":{"ha":208,"x_min":57,"x_max":151,"o":"m 57 0 l 151 0 l 151 954 l 57 954 l 57 0 "},"ĺ":{"ha":208,"x_min":57,"x_max":209,"o":"m 72 1053 l 134 1053 l 209 1259 l 122 1259 l 72 1053 m 57 0 l 151 0 l 151 954 l 57 954 l 57 0 "},"ľ":{"ha":275,"x_min":53,"x_max":357,"o":"m 220 764 l 307 764 l 357 970 l 270 970 l 220 764 m 53 0 l 146 0 l 146 954 l 53 954 l 53 0 "},"<":{"ha":581,"x_min":50,"x_max":530,"o":"m 50 368 l 530 107 l 530 194 l 163 396 l 530 590 l 530 678 l 50 423 l 50 368 "},"≤":{"ha":585,"x_min":27,"x_max":544,"o":"m 530 199 l 530 288 l 146 487 l 530 681 l 530 768 l 27 513 l 27 460 l 530 199 m 38 52 l 544 52 l 544 129 l 38 129 l 38 52 "},"¬":{"ha":694,"x_min":54,"x_max":627,"o":"m 54 484 l 543 484 l 543 282 l 627 282 l 627 564 l 54 564 l 54 484 "},"◊":{"ha":574,"x_min":-4,"x_max":567,"o":"m -4 477 l 251 -3 l 307 -3 l 567 477 l 312 958 l 256 958 l -4 477 m 84 477 l 283 845 l 480 477 l 278 110 l 84 477 "},"ł":{"ha":575,"x_min":119,"x_max":467,"o":"m 247 -4 l 247 416 l 171 358 l 119 425 l 247 522 l 247 949 l 340 949 l 340 595 l 415 652 l 467 586 l 340 488 l 340 -4 l 247 -4 "},"m":{"ha":972,"x_min":52,"x_max":921,"o":"m 52 0 l 142 0 l 142 514 q 153 567 142 541 q 260 636 182 636 l 260 723 q 110 665 168 723 q 52 526 52 606 l 52 0 m 320 636 q 380 623 353 636 q 441 514 441 590 l 441 0 l 532 0 l 532 514 q 541 566 532 541 q 651 636 570 636 l 651 723 q 612 720 631 723 q 487 643 536 711 q 477 655 483 648 q 320 723 422 723 l 320 636 m 712 636 q 766 625 742 636 q 830 514 830 595 l 830 0 l 921 0 l 921 526 q 897 616 921 570 q 712 723 840 723 l 712 636 "},"¯":{"ha":692,"x_min":50,"x_max":661,"o":"m 50 1043 l 50 966 l 661 966 l 661 1043 l 50 1043 "},"−":{"ha":564,"x_min":58,"x_max":487,"o":"m 58 355 l 487 355 l 487 441 l 58 441 l 58 355 "},"×":{"ha":746,"x_min":148,"x_max":762,"o":"m 210 258 l 454 503 l 700 256 l 762 320 l 518 566 l 762 811 l 701 873 l 454 629 l 210 873 l 148 810 l 392 566 l 148 321 l 210 258 "},"n":{"ha":624,"x_min":52,"x_max":572,"o":"m 52 0 l 142 0 l 142 515 q 165 576 142 547 q 283 633 210 633 l 283 723 q 110 652 180 723 q 52 526 52 591 l 52 0 m 342 633 q 437 598 396 633 q 481 515 481 559 l 481 0 l 572 0 l 572 526 q 537 623 572 571 q 342 723 467 723 l 342 633 "},"ń":{"ha":624,"x_min":52,"x_max":572,"o":"m 281 806 l 343 806 l 418 1012 l 331 1012 l 281 806 m 52 0 l 142 0 l 142 515 q 165 576 142 547 q 283 633 210 633 l 283 723 q 110 652 180 723 q 52 526 52 591 l 52 0 m 342 633 q 437 598 396 633 q 481 515 481 559 l 481 0 l 572 0 l 572 526 q 537 623 572 571 q 342 723 467 723 l 342 633 "},"ň":{"ha":624,"x_min":52,"x_max":572,"o":"m 180 1012 l 283 806 l 339 806 l 442 1012 l 376 1012 l 312 880 l 247 1012 l 180 1012 m 52 0 l 142 0 l 142 515 q 165 576 142 547 q 283 633 210 633 l 283 723 q 110 652 180 723 q 52 526 52 591 l 52 0 m 342 633 q 437 598 396 633 q 481 515 481 559 l 481 0 l 572 0 l 572 526 q 537 623 572 571 q 342 723 467 723 l 342 633 "},"≠":{"ha":567,"x_min":68,"x_max":499,"o":"m 103 -96 l 189 263 l 68 263 l 68 350 l 209 350 l 231 441 l 68 441 l 68 528 l 251 528 l 340 906 l 427 906 l 338 528 l 499 528 l 499 441 l 317 441 l 296 350 l 499 350 l 499 263 l 275 263 l 191 -96 l 103 -96 "},"ñ":{"ha":624,"x_min":52,"x_max":572,"o":"m 122 830 q 212 860 170 859 q 289 837 243 860 q 389 806 353 806 q 503 844 441 806 l 503 920 q 395 882 442 883 q 313 906 361 882 q 217 937 251 937 q 122 907 175 937 l 122 830 m 52 0 l 142 0 l 142 515 q 165 576 142 547 q 283 633 210 633 l 283 723 q 110 652 180 723 q 52 526 52 591 l 52 0 m 342 633 q 437 598 396 633 q 481 515 481 559 l 481 0 l 572 0 l 572 526 q 537 623 572 571 q 342 723 467 723 l 342 633 "},"#":{"ha":1019,"x_min":50,"x_max":964,"o":"m 50 279 l 278 279 l 233 30 l 319 30 l 362 279 l 585 279 l 541 30 l 625 30 l 669 279 l 905 278 l 917 361 l 684 361 l 723 589 l 951 587 l 964 671 l 738 671 l 783 925 l 697 925 l 654 671 l 430 671 l 476 925 l 391 925 l 346 671 l 109 671 l 95 589 l 332 589 l 293 362 l 66 362 l 50 279 m 377 362 l 416 589 l 639 589 l 600 361 l 377 362 "},"o":{"ha":610,"x_min":52,"x_max":559,"o":"m 52 197 q 85 100 52 152 q 281 -1 155 -1 l 281 85 q 190 119 231 85 q 141 214 141 163 l 141 507 q 156 562 141 533 q 279 633 194 633 l 279 720 q 109 648 176 720 q 52 525 52 587 l 52 197 m 338 -1 q 505 72 438 0 q 559 197 559 133 l 559 525 q 526 620 559 570 q 338 720 461 720 l 338 633 q 422 605 385 633 q 471 507 471 564 l 471 212 q 456 156 471 186 q 338 85 416 85 l 338 -1 "},"ó":{"ha":610,"x_min":52,"x_max":559,"o":"m 278 802 l 340 802 l 415 1008 l 328 1008 l 278 802 m 52 197 q 85 100 52 152 q 281 -1 155 -1 l 281 85 q 190 119 231 85 q 141 214 141 163 l 141 507 q 156 562 141 533 q 279 633 194 633 l 279 720 q 109 648 176 720 q 52 525 52 587 l 52 197 m 338 -1 q 505 72 438 0 q 559 197 559 133 l 559 525 q 526 620 559 570 q 338 720 461 720 l 338 633 q 422 605 385 633 q 471 507 471 564 l 471 212 q 456 156 471 186 q 338 85 416 85 l 338 -1 "},"ô":{"ha":610,"x_min":52,"x_max":559,"o":"m 178 802 l 244 802 l 308 933 l 373 802 l 439 802 l 336 1008 l 279 1008 l 178 802 m 52 197 q 85 100 52 152 q 281 -1 155 -1 l 281 85 q 190 119 231 85 q 141 214 141 163 l 141 507 q 156 562 141 533 q 279 633 194 633 l 279 720 q 109 648 176 720 q 52 525 52 587 l 52 197 m 338 -1 q 505 72 438 0 q 559 197 559 133 l 559 525 q 526 620 559 570 q 338 720 461 720 l 338 633 q 422 605 385 633 q 471 507 471 564 l 471 212 q 456 156 471 186 q 338 85 416 85 l 338 -1 "},"ö":{"ha":610,"x_min":52,"x_max":559,"o":"m 172 857 q 176 836 172 846 q 228 802 191 802 q 247 804 237 802 q 283 857 283 818 q 281 876 283 867 q 228 911 267 911 q 208 907 218 911 q 172 857 172 894 m 335 857 q 339 836 335 846 q 391 802 354 802 q 410 804 400 802 q 446 857 446 818 q 444 876 446 867 q 391 911 430 911 q 370 907 381 911 q 335 857 335 894 m 52 197 q 85 100 52 152 q 281 -1 155 -1 l 281 85 q 190 119 231 85 q 141 214 141 163 l 141 507 q 156 562 141 533 q 279 633 194 633 l 279 720 q 109 648 176 720 q 52 525 52 587 l 52 197 m 338 -1 q 505 72 438 0 q 559 197 559 133 l 559 525 q 526 620 559 570 q 338 720 461 720 l 338 633 q 422 605 385 633 q 471 507 471 564 l 471 212 q 456 156 471 186 q 338 85 416 85 l 338 -1 "},"œ":{"ha":994,"x_min":39,"x_max":954,"o":"m 494 90 q 317 -1 429 0 l 317 79 q 403 110 365 79 q 450 205 450 151 l 450 492 q 434 549 450 519 q 317 618 396 618 l 317 700 q 494 612 426 699 q 670 700 559 699 l 670 618 q 587 591 625 618 q 533 488 533 549 l 533 401 l 871 401 l 871 496 q 844 567 871 533 q 732 621 799 621 l 732 700 q 865 655 802 700 q 952 513 952 595 l 952 320 l 533 320 l 533 198 q 563 129 533 161 q 703 76 616 76 q 762 83 734 76 q 880 190 859 106 l 954 163 q 945 137 949 151 q 701 0 890 0 q 659 3 681 0 q 494 90 547 16 m 39 191 l 39 510 q 72 601 39 552 q 262 700 138 700 l 262 618 q 175 591 213 618 q 123 492 123 552 l 123 208 q 144 146 123 179 q 262 79 187 79 l 262 -1 q 94 71 160 0 q 39 191 39 130 "},"˛":{"ha":297,"x_min":-58,"x_max":144,"o":"m 144 -244 l 144 -172 q 88 -163 115 -172 q 16 -54 16 -134 l -58 -54 q -39 -140 -58 -99 q 144 -244 11 -244 "},"ò":{"ha":610,"x_min":52,"x_max":559,"o":"m 201 1008 l 275 802 l 338 802 l 288 1008 l 201 1008 m 52 197 q 85 100 52 152 q 281 -1 155 -1 l 281 85 q 190 119 231 85 q 141 214 141 163 l 141 507 q 156 562 141 533 q 279 633 194 633 l 279 720 q 109 648 176 720 q 52 525 52 587 l 52 197 m 338 -1 q 505 72 438 0 q 559 197 559 133 l 559 525 q 526 620 559 570 q 338 720 461 720 l 338 633 q 422 605 385 633 q 471 507 471 564 l 471 212 q 456 156 471 186 q 338 85 416 85 l 338 -1 "},"ő":{"ha":610,"x_min":52,"x_max":559,"o":"m 355 802 l 418 802 l 492 1008 l 406 1008 l 355 802 m 209 802 l 271 802 l 346 1008 l 259 1008 l 209 802 m 52 197 q 85 100 52 152 q 281 -1 155 -1 l 281 85 q 190 119 231 85 q 141 214 141 163 l 141 507 q 156 562 141 533 q 279 633 194 633 l 279 720 q 109 648 176 720 q 52 525 52 587 l 52 197 m 338 -1 q 505 72 438 0 q 559 197 559 133 l 559 525 q 526 620 559 570 q 338 720 461 720 l 338 633 q 422 605 385 633 q 471 507 471 564 l 471 212 q 456 156 471 186 q 338 85 416 85 l 338 -1 "},"ō":{"ha":610,"x_min":52,"x_max":559,"o":"m 95 803 l 524 803 l 524 863 l 95 863 l 95 803 m 52 197 q 85 100 52 152 q 281 -1 155 -1 l 281 85 q 190 119 231 85 q 141 214 141 163 l 141 507 q 156 562 141 533 q 279 633 194 633 l 279 720 q 109 648 176 720 q 52 525 52 587 l 52 197 m 338 -1 q 505 72 438 0 q 559 197 559 133 l 559 525 q 526 620 559 570 q 338 720 461 720 l 338 633 q 422 605 385 633 q 471 507 471 564 l 471 212 q 456 156 471 186 q 338 85 416 85 l 338 -1 "},"½":{"ha":762,"x_min":0,"x_max":711,"o":"m 418 0 l 705 0 l 705 58 l 418 58 l 418 0 m 0 0 l 66 0 l 650 949 l 586 949 l 0 0 m 80 878 l 114 878 l 114 475 l 174 475 l 174 949 l 114 949 l 80 922 l 80 878 m 408 349 l 464 338 q 464 342 464 339 q 532 418 472 407 l 534 418 l 534 476 q 475 457 503 473 q 408 349 412 420 m 418 88 l 484 88 q 494 126 484 109 q 594 193 513 159 q 627 206 617 202 q 711 332 709 250 q 705 377 711 355 q 567 476 682 476 l 567 418 q 570 418 568 418 q 652 332 652 414 q 647 302 652 317 q 568 239 633 270 q 553 232 564 237 q 544 229 548 231 q 418 88 418 176 "},"¼":{"ha":680,"x_min":0,"x_max":650,"o":"m 532 0 l 591 0 l 591 83 l 628 83 l 628 138 l 591 138 l 591 475 l 532 475 l 532 0 m 80 878 l 114 878 l 114 475 l 174 475 l 174 949 l 114 949 l 80 922 l 80 878 m 315 83 l 498 83 l 498 138 l 382 138 l 498 339 l 498 452 l 315 138 l 315 83 m 0 0 l 66 0 l 650 949 l 586 949 l 0 0 "},"¹":{"ha":157,"x_min":14,"x_max":94,"o":"m 14 883 l 43 883 l 43 524 l 94 524 l 94 948 l 43 948 l 14 924 l 14 883 "},"ª":{"ha":319,"x_min":27,"x_max":296,"o":"m 27 507 l 289 507 l 289 549 l 27 549 l 27 507 m 28 678 l 28 711 q 62 773 28 754 q 130 793 75 780 q 233 837 233 819 l 233 849 q 227 879 233 865 q 168 914 209 914 l 168 955 q 232 937 203 955 q 278 849 278 905 l 278 659 q 296 637 279 639 l 296 594 q 245 618 266 595 q 168 594 218 595 l 168 637 q 233 697 232 637 l 233 784 q 175 764 217 774 q 77 734 87 743 q 69 711 71 727 l 69 689 q 136 637 72 639 l 136 594 q 77 608 104 595 q 28 678 28 633 m 33 865 q 49 913 34 890 q 137 955 81 955 l 137 914 q 115 910 126 913 q 73 849 73 895 l 33 865 "},"º":{"ha":312,"x_min":35,"x_max":277,"o":"m 35 540 l 277 540 l 277 586 l 35 586 l 35 540 m 46 719 q 54 688 46 704 q 148 631 83 631 l 148 669 q 118 677 133 669 q 85 726 85 696 l 85 857 q 90 873 85 864 q 148 913 103 913 l 148 952 q 84 930 113 951 q 46 864 46 902 l 46 719 m 174 631 q 236 651 208 631 q 273 719 273 680 l 273 864 q 264 895 271 879 q 174 952 237 952 l 174 913 q 201 906 189 913 q 233 857 233 890 l 233 724 q 229 708 232 718 q 174 669 214 669 l 174 631 "},"ø":{"ha":600,"x_min":14,"x_max":663,"o":"m 14 98 l 60 46 l 121 102 q 312 -1 186 0 l 312 80 q 283 83 298 80 q 187 163 218 98 l 500 449 l 500 206 q 486 151 500 180 q 368 80 446 80 l 368 -1 q 528 68 464 0 q 583 191 583 127 l 583 503 q 582 524 583 517 l 663 600 l 617 650 l 556 595 q 368 700 494 699 l 368 618 q 396 616 381 618 q 491 534 464 602 l 175 244 l 175 492 q 190 547 175 519 q 312 618 228 618 l 312 700 q 146 631 213 700 q 90 510 90 572 l 90 195 q 92 170 90 186 l 14 98 "},"õ":{"ha":610,"x_min":52,"x_max":559,"o":"m 118 826 q 208 856 165 854 q 285 833 239 856 q 385 802 349 802 q 499 840 437 802 l 499 916 q 391 878 438 879 q 309 902 357 878 q 213 933 247 933 q 118 903 171 933 l 118 826 m 52 197 q 85 100 52 152 q 281 -1 155 -1 l 281 85 q 190 119 231 85 q 141 214 141 163 l 141 507 q 156 562 141 533 q 279 633 194 633 l 279 720 q 109 648 176 720 q 52 525 52 587 l 52 197 m 338 -1 q 505 72 438 0 q 559 197 559 133 l 559 525 q 526 620 559 570 q 338 720 461 720 l 338 633 q 422 605 385 633 q 471 507 471 564 l 471 212 q 456 156 471 186 q 338 85 416 85 l 338 -1 "},"p":{"ha":616,"x_min":56,"x_max":564,"o":"m 218 0 l 338 0 q 506 68 438 0 q 564 195 564 127 l 564 524 q 530 620 564 570 q 330 720 461 720 l 212 720 l 212 633 l 330 633 q 429 602 387 633 q 475 519 475 566 l 475 199 q 461 152 475 175 q 339 87 426 87 l 218 87 l 218 0 m 56 -254 l 148 -254 l 148 720 l 56 720 l 56 -254 "},"¶":{"ha":537,"x_min":47,"x_max":464,"o":"m 47 701 q 91 854 47 787 q 277 956 157 956 l 338 956 l 338 -7 l 277 -7 l 277 446 q 152 479 206 446 q 47 701 47 545 m 403 -7 l 403 956 l 464 956 l 464 -7 l 403 -7 "},"(":{"ha":292,"x_min":54,"x_max":245,"o":"m 54 256 l 54 692 q 115 887 54 821 q 244 967 149 926 l 244 911 q 202 884 214 894 q 133 708 133 834 l 133 260 q 146 159 133 203 q 245 37 170 84 l 245 -19 q 107 79 151 27 q 54 256 54 140 "},")":{"ha":300,"x_min":46,"x_max":245,"o":"m 46 -23 q 245 263 243 60 l 245 692 q 232 799 245 751 q 47 971 197 916 l 46 916 q 77 897 65 905 q 167 707 167 834 l 167 279 q 130 109 167 172 q 46 33 106 71 l 46 -23 "},"∂":{"ha":570,"x_min":38,"x_max":532,"o":"m 38 191 q 69 99 38 148 q 260 -1 136 -1 l 260 80 q 170 115 210 80 q 122 209 122 159 l 122 488 q 137 545 122 517 q 260 618 176 618 l 260 700 q 95 631 161 700 q 38 510 38 572 l 38 191 m 95 916 q 206 906 155 916 q 442 654 442 865 q 316 700 392 699 l 316 618 q 396 593 361 618 q 448 498 448 555 l 448 208 q 433 152 448 180 q 316 80 395 80 l 316 -1 q 476 68 412 0 q 532 191 532 127 l 532 608 q 471 840 532 755 q 95 968 377 968 l 95 916 "},"%":{"ha":528,"x_min":64,"x_max":461,"o":"m 64 791 q 69 764 64 777 q 130 724 87 724 q 157 730 145 724 q 197 791 197 747 q 191 818 197 806 q 130 857 174 857 q 103 852 115 857 q 64 791 64 834 m 100 -22 l 189 -22 l 425 981 l 338 981 l 100 -22 m 328 167 q 334 140 328 152 q 395 100 351 100 q 422 106 408 100 q 461 167 461 123 q 456 194 461 180 q 395 233 438 233 q 368 228 381 233 q 328 167 328 210 "},".":{"ha":235,"x_min":50,"x_max":183,"o":"m 50 61 q 56 34 50 47 q 117 -5 73 -5 q 144 0 130 -5 q 183 61 183 18 q 178 88 183 76 q 117 127 160 127 q 90 122 103 127 q 50 61 50 104 "},"·":{"ha":243,"x_min":84,"x_max":217,"o":"m 84 457 q 90 430 84 444 q 151 391 107 391 q 178 396 164 391 q 217 457 217 414 q 212 484 217 472 q 151 524 194 524 q 123 518 137 524 q 84 457 84 500 "},"‰":{"ha":1217,"x_min":24,"x_max":1192,"o":"m 163 477 q 129 484 146 477 q 24 716 24 521 q 42 846 24 792 q 164 951 77 947 l 164 894 q 140 886 152 892 q 84 741 84 852 l 84 708 q 94 620 84 658 q 163 534 113 541 l 163 477 m 205 477 l 205 534 q 216 537 210 536 q 283 708 283 562 l 283 741 q 269 831 283 792 q 203 894 245 891 l 203 951 q 237 944 221 949 q 343 716 343 907 q 320 570 343 628 q 205 477 283 480 m 661 0 q 627 7 644 0 q 522 239 522 43 q 540 369 522 315 q 662 473 575 469 l 662 416 q 637 408 650 415 q 582 263 582 374 l 582 231 q 591 142 582 180 q 661 57 610 64 l 661 0 m 703 0 l 703 57 q 713 60 708 58 q 781 231 781 84 l 781 263 q 766 354 781 315 q 701 416 743 414 l 701 473 q 735 467 719 472 q 841 239 841 430 q 818 92 841 151 q 703 0 781 3 m 1012 0 q 979 5 996 0 q 873 239 873 41 q 890 362 873 311 q 1013 473 924 469 l 1013 416 q 990 408 1002 415 q 932 263 933 376 l 932 231 q 943 138 932 178 q 1012 57 963 64 l 1012 0 m 1053 0 l 1053 57 q 1063 60 1058 58 q 1133 231 1133 83 l 1133 263 q 1118 351 1131 313 q 1053 416 1095 414 l 1053 473 q 1086 467 1070 472 q 1192 239 1192 430 q 1171 96 1192 153 q 1053 0 1134 3 m 111 0 l 697 949 l 761 949 l 178 0 l 111 0 "},"π":{"ha":613,"x_min":-16,"x_max":632,"o":"m -16 614 l 99 614 l 99 -4 l 184 -4 l 184 614 l 435 614 l 435 180 q 439 134 435 157 q 613 -5 463 -5 l 613 75 q 582 77 595 75 q 519 193 519 90 l 519 614 l 632 614 l 632 701 l -16 701 l -16 614 "},"+":{"ha":598,"x_min":45,"x_max":553,"o":"m 45 355 l 254 355 l 254 118 l 340 118 l 340 355 l 553 355 l 553 441 l 340 441 l 340 675 l 254 675 l 254 441 l 45 441 l 45 355 "},"±":{"ha":587,"x_min":39,"x_max":572,"o":"m 39 141 l 548 141 l 548 227 l 39 227 l 39 141 m 64 574 l 273 574 l 273 336 l 359 336 l 359 574 l 572 574 l 572 659 l 359 659 l 359 894 l 273 894 l 273 659 l 64 659 l 64 574 "},"∏":{"ha":650,"x_min":14,"x_max":636,"o":"m 14 859 l 90 859 l 90 -190 l 175 -190 l 175 859 l 475 859 l 475 -190 l 560 -190 l 560 859 l 636 859 l 636 944 l 14 944 l 14 859 "},"q":{"ha":609,"x_min":53,"x_max":552,"o":"m 278 0 l 391 0 l 391 87 l 277 87 q 194 110 229 87 q 141 199 141 144 l 141 519 q 153 564 141 541 q 278 633 190 633 l 397 633 l 397 720 l 278 720 q 110 652 176 720 q 53 524 53 593 l 53 195 q 84 102 53 151 q 278 0 149 0 m 460 -254 l 552 -254 l 552 720 l 460 720 l 460 -254 "},"?":{"ha":643,"x_min":50,"x_max":593,"o":"m 50 829 l 109 769 q 302 865 180 864 q 420 833 369 865 q 507 667 507 779 q 233 456 506 463 l 233 133 l 320 133 l 320 374 q 418 400 365 378 q 593 666 593 473 q 549 826 590 757 q 305 954 475 954 q 237 948 270 954 q 50 829 129 928 m 222 24 q 227 5 222 15 q 277 -30 239 -30 q 296 -26 286 -30 q 331 24 331 -14 q 327 43 331 34 q 277 79 315 79 q 258 75 267 79 q 222 24 222 62 "},"¿":{"ha":604,"x_min":19,"x_max":562,"o":"m 562 106 l 503 165 q 309 69 431 71 q 191 102 243 69 q 104 267 104 156 q 378 479 106 472 l 378 802 l 292 802 l 292 560 q 194 534 247 556 q 19 269 19 461 q 62 109 22 178 q 307 -19 137 -19 q 374 -14 342 -19 q 562 106 483 7 m 389 910 q 385 929 389 920 q 335 964 373 964 q 316 960 326 964 q 281 910 281 948 q 285 891 281 901 q 335 856 297 856 q 354 860 345 856 q 389 910 389 872 "},"\"":{"ha":357,"x_min":56,"x_max":302,"o":"m 56 631 l 142 631 l 142 998 l 56 998 l 56 631 m 214 631 l 302 631 l 302 998 l 214 998 l 214 631 "},"„":{"ha":359,"x_min":28,"x_max":312,"o":"m 175 -31 l 262 -31 l 312 175 l 225 175 l 175 -31 m 28 -31 l 115 -31 l 165 175 l 79 175 l 28 -31 "},"“":{"ha":347,"x_min":50,"x_max":297,"o":"m 50 631 l 137 631 l 137 998 l 50 998 l 50 631 m 209 631 l 297 631 l 297 998 l 209 998 l 209 631 "},"”":{"ha":347,"x_min":50,"x_max":297,"o":"m 50 631 l 137 631 l 137 998 l 50 998 l 50 631 m 209 631 l 297 631 l 297 998 l 209 998 l 209 631 "},"‘":{"ha":189,"x_min":50,"x_max":137,"o":"m 50 631 l 137 631 l 137 998 l 50 998 l 50 631 "},"’":{"ha":189,"x_min":50,"x_max":137,"o":"m 50 631 l 137 631 l 137 998 l 50 998 l 50 631 "},"‚":{"ha":189,"x_min":50,"x_max":137,"o":"m 50 631 l 137 631 l 137 998 l 50 998 l 50 631 "},"'":{"ha":198,"x_min":56,"x_max":142,"o":"m 56 631 l 142 631 l 142 998 l 56 998 l 56 631 "},"r":{"ha":365,"x_min":57,"x_max":342,"o":"m 57 0 l 148 0 l 148 416 q 193 553 148 487 q 320 635 248 633 l 342 722 l 327 722 q 243 703 283 722 q 148 613 176 671 l 148 720 l 57 720 l 57 0 "},"ŕ":{"ha":365,"x_min":57,"x_max":342,"o":"m 171 802 l 233 802 l 308 1008 l 221 1008 l 171 802 m 57 0 l 148 0 l 148 416 q 193 553 148 487 q 320 635 248 633 l 342 722 l 327 722 q 243 703 283 722 q 148 613 176 671 l 148 720 l 57 720 l 57 0 "},"√":{"ha":788,"x_min":8,"x_max":774,"o":"m 8 696 l 33 621 l 186 675 l 461 -1 l 560 -1 l 774 1111 l 682 1111 l 495 159 l 244 780 l 8 696 "},"ř":{"ha":365,"x_min":57,"x_max":342,"o":"m 68 1008 l 171 802 l 227 802 l 330 1008 l 263 1008 l 199 876 l 134 1008 l 68 1008 m 57 0 l 148 0 l 148 416 q 193 553 148 487 q 320 635 248 633 l 342 722 l 327 722 q 243 703 283 722 q 148 613 176 671 l 148 720 l 57 720 l 57 0 "},"®":{"ha":529,"x_min":43,"x_max":484,"o":"m 237 700 q 274 697 260 700 q 313 652 309 692 l 317 586 l 351 586 l 345 667 q 317 718 342 703 q 345 773 343 732 q 237 850 343 848 l 237 818 l 247 818 q 312 772 309 817 q 258 732 311 734 l 237 732 l 237 700 m 252 495 l 252 534 q 157 568 201 538 q 83 715 83 623 q 115 821 83 773 q 254 899 165 895 l 254 937 q 137 897 191 935 q 43 715 43 831 q 90 581 43 642 q 252 495 153 499 m 275 495 q 397 540 342 499 q 484 716 484 606 q 435 854 484 793 q 275 937 372 933 l 275 899 q 370 865 327 897 q 446 716 446 811 q 415 614 446 661 q 275 534 363 540 l 275 495 m 184 585 l 220 585 l 220 850 l 184 850 l 184 585 "},"˚":{"ha":331,"x_min":64,"x_max":267,"o":"m 64 713 q 77 665 64 688 q 165 612 106 612 q 214 625 191 612 q 267 713 267 654 q 254 762 267 739 q 165 815 225 815 q 117 802 140 815 q 64 713 64 773 m 122 713 q 123 727 122 719 q 165 757 133 757 q 179 755 171 757 q 209 713 209 746 q 208 700 209 708 q 165 670 198 670 q 152 671 160 670 q 122 713 122 681 "},"s":{"ha":578,"x_min":27,"x_max":551,"o":"m 27 190 q 64 84 27 134 q 254 -7 129 -7 l 254 79 q 182 99 218 79 q 113 205 113 140 l 27 190 m 34 514 q 41 463 34 487 q 165 353 62 389 q 250 332 193 346 q 351 307 320 316 q 463 213 463 273 q 426 126 463 163 q 311 77 377 77 l 311 -7 q 448 28 387 -7 q 551 216 551 91 q 537 282 551 251 q 399 384 503 359 q 187 441 229 425 q 119 514 119 467 q 145 586 119 552 q 251 639 187 639 l 251 723 q 145 696 198 723 q 34 514 34 639 m 309 637 q 368 624 335 637 q 453 510 453 587 l 538 524 q 495 636 538 582 q 309 723 425 723 l 309 637 "},"ś":{"ha":578,"x_min":27,"x_max":551,"o":"m 250 804 l 312 804 l 387 1010 l 300 1010 l 250 804 m 27 190 q 64 84 27 134 q 254 -7 129 -7 l 254 79 q 182 99 218 79 q 113 205 113 140 l 27 190 m 34 514 q 41 463 34 487 q 165 353 62 389 q 250 332 193 346 q 351 307 320 316 q 463 213 463 273 q 426 126 463 163 q 311 77 377 77 l 311 -7 q 448 28 387 -7 q 551 216 551 91 q 537 282 551 251 q 399 384 503 359 q 187 441 229 425 q 119 514 119 467 q 145 586 119 552 q 251 639 187 639 l 251 723 q 145 696 198 723 q 34 514 34 639 m 309 637 q 368 624 335 637 q 453 510 453 587 l 538 524 q 495 636 538 582 q 309 723 425 723 l 309 637 "},"š":{"ha":578,"x_min":33,"x_max":556,"o":"m 152 1010 l 255 804 l 311 804 l 414 1010 l 347 1010 l 283 879 l 218 1010 l 152 1010 m 33 190 q 69 84 33 134 q 259 -7 134 -7 l 259 79 q 187 99 224 79 q 118 205 118 140 l 33 190 m 39 514 q 46 463 39 487 q 171 353 68 389 q 255 332 198 346 q 357 307 326 316 q 468 213 468 273 q 431 126 468 163 q 316 77 382 77 l 316 -7 q 453 28 392 -7 q 556 216 556 91 q 543 282 556 251 q 404 384 509 359 q 193 441 235 425 q 125 514 125 467 q 151 586 125 552 q 256 639 193 639 l 256 723 q 151 696 203 723 q 39 514 39 639 m 315 637 q 373 624 340 637 q 458 510 458 587 l 544 524 q 500 636 544 582 q 315 723 430 723 l 315 637 "},"§":{"ha":817,"x_min":73,"x_max":743,"o":"m 73 481 q 95 376 73 420 q 241 260 130 308 q 376 227 269 250 l 376 321 q 301 340 331 331 q 165 477 165 382 q 231 610 167 562 q 323 559 256 586 q 376 544 345 551 l 376 648 q 245 783 248 692 q 252 833 245 808 q 441 943 283 943 l 548 943 l 548 1031 l 410 1031 q 292 1004 349 1031 q 156 780 156 940 q 174 682 156 726 q 73 481 75 608 m 267 -98 l 267 -186 l 403 -186 q 566 -133 495 -186 q 661 64 661 -61 q 647 157 661 119 q 651 160 648 159 q 743 362 743 243 q 730 452 743 412 q 570 590 697 547 q 439 625 549 598 l 439 529 q 511 511 483 519 q 651 366 651 469 q 593 235 650 292 q 488 292 557 273 q 439 305 464 301 l 439 206 q 572 68 570 165 q 556 -7 572 27 q 370 -98 511 -98 l 267 -98 "},";":{"ha":305,"x_min":68,"x_max":237,"o":"m 68 -31 l 155 -31 l 205 175 l 118 175 l 68 -31 m 129 441 q 133 422 129 431 q 183 387 145 387 q 202 391 193 387 q 237 441 237 403 q 233 460 237 450 q 183 495 221 495 q 164 491 174 495 q 129 441 129 479 "},"අ":{"ha":735,"x_min":41,"x_max":694,"o":"m 502 -229 l 502 453 l 338 453 q 248 439 289 453 q 136 270 136 400 q 153 190 136 227 q 349 91 201 91 l 427 91 l 427 0 l 349 0 q 190 31 260 0 q 41 270 41 96 q 79 420 41 357 q 347 545 153 545 l 502 545 q 479 628 502 593 q 330 699 433 699 q 278 692 304 699 q 171 593 194 669 l 88 620 q 132 703 102 666 q 326 785 203 785 q 536 694 460 785 q 675 789 579 761 l 694 697 q 681 693 688 696 q 590 560 590 665 l 590 94 l 670 94 l 670 0 l 590 0 l 590 -229 l 502 -229 "},"ආ":{"ha":1084,"x_min":41,"x_max":1043,"o":"m 502 -229 l 502 453 l 338 453 q 248 439 289 453 q 136 270 136 400 q 153 190 136 227 q 349 91 201 91 l 427 91 l 427 0 l 349 0 q 190 31 260 0 q 41 270 41 96 q 79 420 41 357 q 347 545 153 545 l 502 545 q 479 628 502 593 q 330 699 433 699 q 278 692 304 699 q 171 593 194 669 l 88 620 q 132 703 102 666 q 326 785 203 785 q 536 694 460 785 q 675 789 579 761 l 694 697 q 681 693 688 696 q 590 560 590 665 l 590 94 l 670 94 l 670 0 l 590 0 l 590 -229 l 502 -229 m 765 0 l 765 92 l 792 92 q 812 92 802 92 q 949 266 949 102 l 949 486 q 948 519 949 502 q 792 663 935 663 l 765 663 l 765 755 l 792 755 q 808 755 800 755 q 1043 490 1043 747 l 1043 266 q 1043 241 1043 254 q 792 0 1031 0 l 765 0 "},"ඈ":{"ha":1081,"x_min":41,"x_max":1040,"o":"m 502 -229 l 502 453 l 338 453 q 248 439 289 453 q 136 270 136 400 q 153 190 136 227 q 349 91 201 91 l 427 91 l 427 0 l 349 0 q 190 31 260 0 q 41 270 41 96 q 79 420 41 357 q 347 545 153 545 l 502 545 q 479 628 502 593 q 330 699 433 699 q 278 692 304 699 q 171 593 194 669 l 88 620 q 132 703 102 666 q 326 785 203 785 q 536 694 460 785 q 675 789 579 761 l 694 697 q 681 693 688 696 q 590 560 590 665 l 590 94 l 670 94 l 670 0 l 590 0 l 590 -229 l 502 -229 m 765 283 q 776 355 765 327 q 907 488 796 408 l 765 488 l 765 570 l 917 697 l 765 697 l 765 779 l 1040 779 l 1040 697 l 886 570 l 1040 570 l 1040 488 q 882 359 917 401 q 857 283 857 330 l 857 233 q 860 195 857 213 q 1001 94 873 94 l 1040 94 l 1040 0 l 1001 0 q 765 224 768 1 l 765 283 "},"ඇ":{"ha":1080,"x_min":41,"x_max":1039,"o":"m 502 -229 l 502 453 l 338 453 q 248 439 289 453 q 136 270 136 400 q 153 190 136 227 q 349 91 201 91 l 427 91 l 427 0 l 349 0 q 190 31 260 0 q 41 270 41 96 q 79 420 41 357 q 347 545 153 545 l 502 545 q 479 628 502 593 q 330 699 433 699 q 278 692 304 699 q 171 593 194 669 l 88 620 q 132 703 102 666 q 326 785 203 785 q 536 694 460 785 q 675 789 579 761 l 694 697 q 681 693 688 696 q 590 560 590 665 l 590 94 l 670 94 l 670 0 l 590 0 l 590 -229 l 502 -229 m 1000 0 q 907 15 949 0 q 764 258 764 65 l 764 400 q 787 532 764 484 q 920 688 811 582 l 764 688 l 764 779 l 1039 779 l 1039 689 q 879 511 909 563 q 856 396 856 472 l 856 255 q 1000 94 856 95 l 1039 94 l 1039 0 l 1000 0 "},"ඓ":{"ha":1411,"x_min":41,"x_max":1370,"o":"m 338 677 l 288 677 q 254 674 271 677 q 132 503 132 655 l 132 269 q 138 195 132 227 q 283 81 160 81 l 283 -7 l 255 -7 q 146 20 193 -7 q 41 269 41 83 l 41 503 q 56 605 41 556 q 282 765 104 765 l 366 765 q 498 720 441 765 q 575 585 564 666 l 490 563 q 338 677 469 675 m 316 392 l 316 480 l 434 480 q 460 479 448 480 q 579 346 579 469 l 579 213 q 560 109 579 156 q 381 -7 513 -7 l 349 -7 l 349 81 q 488 213 486 83 l 488 323 q 483 358 488 342 q 407 392 468 392 l 316 392 m 707 543 q 731 593 715 570 q 878 659 780 659 q 1012 612 959 659 q 1066 479 1065 564 l 1066 397 l 911 397 q 857 382 882 397 q 798 260 798 347 q 814 187 798 222 q 986 92 860 92 l 986 -1 q 793 62 871 -1 q 704 259 704 138 q 750 397 704 342 l 647 397 l 647 475 l 905 475 l 989 477 q 977 528 987 505 q 878 579 947 579 q 783 522 811 574 l 707 543 m 1208 625 q 1099 652 1146 629 q 990 856 990 709 l 990 1024 l 1059 1024 q 1099 1023 1080 1024 q 1370 701 1370 1004 l 1370 331 q 1362 225 1370 274 q 1061 -1 1320 -1 l 1061 92 q 1276 331 1274 94 l 1276 675 q 1256 821 1276 765 q 1059 932 1214 932 l 1059 856 q 1067 798 1059 825 q 1208 697 1095 701 l 1208 625 "},"ඖ":{"ha":1364,"x_min":41,"x_max":1331,"o":"m 243 -3 q 134 23 182 -3 q 41 191 41 75 l 41 487 q 69 583 41 541 q 201 648 117 648 q 266 635 235 648 q 347 499 347 598 l 347 439 q 349 427 347 434 q 393 395 357 395 q 403 396 397 395 q 439 439 439 403 l 439 636 l 514 636 l 514 431 q 498 369 514 396 q 392 312 465 312 q 345 321 366 312 q 277 425 277 349 l 277 486 q 271 517 277 502 q 206 560 255 560 q 184 557 195 560 q 134 481 134 541 l 134 199 q 141 160 134 180 q 247 88 168 88 q 315 109 285 88 q 359 199 359 142 l 359 264 l 438 264 l 438 199 q 446 159 438 180 q 549 88 472 88 q 617 109 589 88 q 663 199 663 142 l 663 694 q 631 848 663 791 q 427 932 581 932 l 427 1024 q 613 991 541 1024 q 755 700 755 925 l 755 191 q 728 87 755 133 q 553 -3 675 -3 q 399 71 450 -1 q 243 -3 346 -1 m 138 742 l 47 765 q 133 944 49 869 q 350 1024 225 1024 l 350 932 q 236 905 289 932 q 138 742 138 852 m 1096 -11 q 971 19 1028 -11 q 861 209 861 79 l 861 274 l 948 274 l 948 208 q 971 136 948 168 q 1099 79 1013 79 q 1162 90 1131 79 q 1244 208 1244 121 l 1244 616 q 1241 637 1244 627 q 1184 678 1227 678 q 1169 677 1177 678 q 1124 616 1124 666 l 1124 547 q 1105 475 1124 506 q 996 415 1070 415 q 939 427 966 415 q 861 557 861 461 l 861 765 l 935 765 l 935 571 q 937 549 935 560 q 994 510 951 510 q 1010 511 1001 510 q 1054 571 1054 524 l 1054 629 q 1074 708 1054 674 q 1191 770 1112 770 q 1253 757 1223 770 q 1331 620 1331 719 l 1331 209 q 1282 69 1331 126 q 1096 -11 1215 -11 "},"බ":{"ha":803,"x_min":41,"x_max":762,"o":"m 41 244 l 41 385 q 85 526 41 468 q 247 605 145 605 q 345 579 300 605 q 446 381 446 522 l 446 203 q 461 145 446 171 q 559 92 492 92 q 602 100 581 92 q 669 203 669 126 l 669 684 q 667 719 669 701 q 454 932 654 932 l 435 932 l 435 1024 l 454 1024 q 762 692 760 1023 l 762 206 q 718 69 762 126 q 553 -7 658 -7 q 454 16 500 -7 q 355 190 355 68 l 355 378 q 339 449 355 419 q 243 507 308 507 q 199 499 221 507 q 130 378 132 469 l 130 245 q 146 155 130 190 q 286 92 178 92 l 286 0 q 170 16 218 0 q 41 244 41 60 m 56 765 q 141 944 57 869 q 358 1024 233 1024 l 358 932 q 244 905 297 932 q 146 742 146 852 l 56 765 "},"භ":{"ha":1012,"x_min":41,"x_max":971,"o":"m 488 434 q 549 425 521 434 q 656 243 656 389 l 656 205 q 647 130 656 165 q 426 -11 609 -11 l 426 83 q 571 220 568 84 q 461 357 571 354 l 396 357 l 396 484 l 396 498 l 351 498 q 290 492 319 498 q 187 336 187 469 l 187 267 q 199 187 187 224 q 351 83 236 83 l 351 -11 q 203 30 266 -11 q 95 267 95 102 l 95 340 q 149 498 95 442 l 41 498 l 41 582 l 380 582 q 369 631 380 608 q 269 686 342 686 q 174 629 202 682 l 98 648 q 121 696 106 674 q 270 765 171 765 q 309 761 289 765 q 441 669 406 745 q 639 765 502 764 l 639 671 q 488 486 496 666 l 488 434 m 715 -11 l 715 83 q 765 90 741 83 q 879 286 879 121 l 879 467 q 875 521 879 495 q 715 671 853 671 l 715 765 q 844 735 788 765 q 971 467 971 666 l 971 286 q 947 140 971 203 q 715 -11 887 -11 "},"ච":{"ha":806,"x_min":41,"x_max":765,"o":"m 380 -1 l 380 91 q 264 122 312 91 q 191 262 191 170 q 203 326 191 296 q 305 397 233 397 l 460 397 l 460 479 q 406 612 460 563 q 271 659 354 658 q 225 654 248 659 q 100 543 125 632 l 176 522 q 180 532 178 526 q 271 579 206 579 q 312 572 292 579 q 382 477 381 549 l 298 475 l 41 475 l 41 397 l 144 397 q 98 259 99 343 q 140 117 98 182 q 380 -1 217 -1 m 456 -1 q 533 4 496 -1 q 765 331 765 41 l 765 700 q 762 755 765 728 q 456 1024 738 1024 l 456 932 q 524 925 492 932 q 671 692 671 894 l 671 331 q 671 311 671 321 q 456 91 662 91 l 456 -1 m 183 742 q 228 863 183 810 q 380 932 289 932 l 380 1024 q 198 959 283 1024 q 94 765 94 879 l 183 742 "},"ඡ":{"ha":854,"x_min":41,"x_max":807,"o":"m 384 -11 q 178 22 255 -11 q 45 264 45 80 l 137 264 q 165 152 137 195 q 380 80 214 80 l 468 80 q 600 95 549 80 q 712 266 712 130 l 712 347 l 591 347 q 543 353 567 347 q 400 461 445 374 l 271 461 q 195 449 227 461 q 137 332 137 423 l 45 332 q 54 416 45 378 q 267 545 91 545 l 377 545 q 369 602 377 575 q 250 684 340 684 q 123 613 152 682 l 41 640 q 54 669 46 655 q 250 769 110 769 q 420 685 363 765 q 439 707 430 697 l 713 1067 l 807 1043 l 598 769 q 682 747 642 766 q 791 616 766 705 l 708 604 q 699 624 704 613 q 591 685 662 685 q 525 666 556 685 q 465 557 465 628 q 484 491 465 522 q 591 431 522 431 l 727 431 q 804 358 792 426 l 804 266 q 779 127 804 184 q 465 -11 715 -11 l 384 -11 "},"ද":{"ha":730,"x_min":41,"x_max":730,"o":"m 492 -277 q 593 -259 545 -277 q 730 -104 703 -217 l 640 -83 q 623 -125 635 -104 q 496 -190 582 -190 q 422 -172 457 -190 q 349 -61 349 -137 l 258 -61 q 298 -190 258 -136 q 492 -277 363 -277 m 41 270 q 92 104 41 172 q 349 0 175 0 l 400 0 q 477 9 438 0 q 675 187 625 46 l 590 210 q 400 91 536 92 l 349 91 q 243 109 289 91 q 136 270 136 152 q 149 346 136 312 q 338 453 191 453 l 590 453 l 590 532 q 533 699 590 631 q 326 785 457 785 q 225 768 274 785 q 88 620 117 726 l 171 593 q 191 635 178 616 q 330 699 237 699 q 410 684 373 699 q 502 545 502 646 l 347 545 q 193 517 260 545 q 41 270 41 452 "},"ඩ":{"ha":849,"x_min":41,"x_max":808,"o":"m 305 -3 q 194 23 243 -3 q 99 191 99 75 l 99 313 q 130 397 99 378 l 41 397 l 41 475 l 414 475 q 401 526 414 503 q 304 579 373 579 q 209 522 237 574 l 133 543 q 157 593 141 570 q 304 658 206 658 q 438 612 385 658 q 492 479 491 562 l 492 397 l 278 397 q 191 313 194 396 l 191 199 q 197 163 191 182 q 304 90 222 90 q 370 110 342 90 q 414 199 414 141 l 414 264 l 492 264 l 492 199 q 499 163 492 182 q 602 90 524 90 q 670 110 642 90 q 715 199 715 142 l 715 692 q 690 833 715 779 q 492 932 646 932 l 492 1024 q 643 1002 579 1024 q 808 700 808 943 l 808 191 q 781 87 808 133 q 610 -3 730 -3 q 454 71 509 -1 q 305 -3 406 -1 m 111 765 q 199 945 113 869 q 416 1024 293 1024 l 416 932 q 300 903 353 932 q 201 742 201 850 l 111 765 "},"ඪ":{"ha":849,"x_min":41,"x_max":808,"o":"m 305 -3 q 194 23 243 -3 q 99 191 99 75 l 99 313 q 130 397 99 378 l 41 397 l 41 475 l 414 475 q 401 526 414 503 q 304 579 373 579 q 209 522 237 574 l 133 543 q 157 593 141 570 q 304 658 206 658 q 438 612 385 658 q 492 479 491 562 l 492 397 l 278 397 q 191 313 194 396 l 191 199 q 197 163 191 182 q 304 90 222 90 q 370 110 342 90 q 414 199 414 141 l 414 264 l 492 264 l 492 199 q 499 163 492 182 q 602 90 524 90 q 670 110 642 90 q 715 199 715 142 l 715 675 q 694 821 715 765 q 498 932 652 932 l 498 856 q 506 798 498 825 q 647 697 533 701 l 647 625 q 537 652 585 629 q 429 856 429 709 l 429 1024 l 498 1024 q 537 1023 518 1024 q 808 701 808 1004 l 808 191 q 781 87 808 133 q 610 -3 730 -3 q 454 71 509 -1 q 305 -3 406 -1 "},"ධ":{"ha":792,"x_min":41,"x_max":751,"o":"m 247 -3 q 136 23 184 -3 q 41 191 41 75 l 41 399 q 56 495 41 450 q 297 648 106 648 l 345 648 l 345 557 l 297 557 q 205 536 244 557 q 134 393 134 494 l 134 199 q 141 163 134 182 q 245 90 165 90 q 311 109 282 90 q 355 199 355 140 l 355 264 l 435 264 l 435 199 q 441 164 435 183 q 545 90 464 90 q 612 109 585 90 q 656 199 656 141 l 656 692 q 633 830 656 777 q 435 932 589 932 l 435 1024 q 576 1005 517 1024 q 751 700 751 948 l 751 191 q 723 84 751 132 q 553 -3 670 -3 q 397 71 449 -1 q 247 -3 349 -1 m 53 765 q 141 945 54 869 q 359 1024 235 1024 l 359 932 q 243 903 296 932 q 144 742 144 850 l 53 765 "},"එ":{"ha":804,"x_min":41,"x_max":764,"o":"m 100 543 q 125 593 109 570 q 271 659 174 659 q 406 612 353 659 q 460 479 458 564 l 460 397 l 305 397 q 251 382 275 397 q 191 260 191 347 q 208 187 191 222 q 380 92 254 92 l 380 -1 q 187 62 264 -1 q 98 259 98 138 q 144 397 98 342 l 41 397 l 41 475 l 298 475 l 382 477 q 370 528 381 505 q 271 579 340 579 q 176 522 205 574 l 100 543 m 602 625 q 492 652 540 629 q 384 856 384 709 l 384 1024 l 453 1024 q 492 1023 473 1024 q 764 701 764 1004 l 764 331 q 755 225 764 274 q 454 -1 713 -1 l 454 92 q 670 331 667 94 l 670 675 q 650 821 670 765 q 453 932 608 932 l 453 856 q 461 798 453 825 q 602 697 488 701 l 602 625 "},"ඒ":{"ha":804,"x_min":41,"x_max":764,"o":"m 41 397 l 41 475 l 298 475 l 382 477 q 370 528 381 505 q 271 579 340 579 q 176 522 205 574 l 100 543 q 125 593 109 570 q 271 659 174 659 q 406 612 353 659 q 460 479 458 564 l 460 397 l 305 397 q 251 382 275 397 q 191 260 191 347 q 208 187 191 222 q 380 92 254 92 l 380 -1 q 187 62 264 -1 q 98 259 98 138 q 144 397 98 342 l 41 397 m 384 856 l 384 1024 l 453 1024 q 671 959 594 1024 l 671 1111 l 764 1111 l 764 703 l 764 701 l 764 331 q 755 225 764 274 q 454 -1 713 -1 l 454 92 q 670 331 667 94 l 670 675 q 650 821 670 765 q 453 932 608 932 l 453 856 q 461 798 453 825 q 602 697 488 701 l 602 625 q 492 652 540 629 q 384 856 384 709 "},"ෆ":{"ha":863,"x_min":41,"x_max":822,"o":"m 41 332 l 133 332 l 133 559 q 141 606 133 585 q 259 673 170 673 q 307 666 283 673 q 387 559 387 643 l 387 332 l 475 332 l 475 559 q 484 608 475 585 q 602 673 513 673 q 651 666 628 673 q 730 559 730 642 l 730 332 l 822 332 l 822 564 q 785 681 822 631 q 604 765 724 765 q 433 682 490 764 q 258 765 374 764 q 140 738 193 765 q 41 564 41 684 l 41 332 m 41 264 q 61 148 41 201 q 305 0 118 0 l 305 94 q 218 110 256 94 q 133 264 133 151 l 41 264 m 557 0 q 700 31 640 0 q 822 264 821 96 l 730 264 q 723 210 730 236 q 557 94 693 94 l 557 0 "},"ග":{"ha":959,"x_min":41,"x_max":918,"o":"m 297 -11 q 167 20 222 -11 q 41 286 41 90 l 41 468 q 65 614 41 551 q 297 765 125 765 l 297 671 q 258 667 277 671 q 133 464 133 643 l 133 286 q 140 217 133 250 q 297 83 167 83 l 297 -11 m 662 -11 l 662 83 q 712 90 688 83 q 826 286 826 121 l 826 464 q 822 522 826 494 q 662 671 799 671 l 662 765 q 792 734 736 765 q 918 468 918 665 l 918 286 q 894 140 918 203 q 662 -11 834 -11 m 343 357 l 343 484 q 354 586 343 540 q 586 765 397 765 l 586 671 q 435 486 438 670 l 435 435 l 439 435 q 509 423 477 435 q 604 243 604 382 l 604 205 q 594 130 604 165 q 373 -11 556 -11 l 373 83 q 518 220 515 84 q 427 355 518 343 l 343 357 "},"ඝ":{"ha":922,"x_min":41,"x_max":882,"o":"m 288 -4 q 194 20 237 -4 q 100 195 100 72 l 100 263 l 193 263 l 193 199 q 203 144 193 168 q 293 87 231 87 q 312 88 302 87 q 392 201 392 98 q 475 277 395 270 l 509 277 q 529 275 519 277 q 590 202 590 269 q 591 175 590 189 q 689 87 601 87 q 730 95 709 87 q 789 199 789 122 l 789 263 l 882 263 l 882 195 q 849 76 882 126 q 694 -4 796 -4 q 530 164 533 -3 q 491 202 529 197 q 452 164 454 201 q 288 -4 450 -1 m 111 640 q 121 662 115 651 q 320 769 176 769 q 492 690 430 765 q 500 701 496 696 q 663 769 559 769 q 694 768 678 769 q 872 640 830 754 l 789 613 q 663 684 764 682 q 601 670 629 684 q 536 556 536 639 l 536 545 l 709 545 q 882 387 879 544 l 882 331 l 789 331 l 789 377 q 703 461 784 449 l 281 461 q 193 377 201 457 l 193 331 l 100 331 q 102 385 100 381 q 129 461 102 444 l 41 461 l 41 545 l 448 545 l 448 556 q 438 610 448 585 q 321 684 408 684 q 194 613 222 682 l 111 640 "},"හ":{"ha":959,"x_min":41,"x_max":918,"o":"m 435 434 q 496 425 468 434 q 604 243 604 389 l 604 205 q 593 125 604 161 q 373 -11 551 -11 l 373 83 q 517 220 514 84 q 408 357 514 347 l 342 357 l 342 484 l 342 491 l 297 491 q 239 486 264 491 q 133 331 133 464 l 133 267 q 145 189 133 224 q 297 83 180 83 l 297 -11 q 149 30 212 -11 q 41 267 41 102 l 41 335 q 290 585 42 581 l 330 585 q 317 633 330 610 q 220 686 289 686 q 123 629 152 684 l 49 648 q 71 694 56 673 q 221 765 119 765 q 248 764 235 765 q 389 673 347 750 q 586 765 453 764 l 586 671 q 435 487 438 670 l 435 434 m 662 -11 l 662 83 q 715 90 690 83 q 825 286 825 123 l 825 464 q 822 513 825 490 q 662 671 802 671 l 662 765 q 789 735 734 765 q 918 468 917 666 l 918 286 q 892 140 917 203 q 662 -11 833 -11 "},"්":{"ha":172,"x_min":41,"x_max":132,"o":"m 41 840 l 132 840 l 132 1111 l 41 1111 l 41 840 "},"ඉ":{"ha":758,"x_min":31,"x_max":718,"o":"m 262 0 l 262 88 l 362 88 q 467 104 418 88 q 627 349 627 156 l 627 499 q 602 597 627 556 q 419 682 552 682 l 419 776 l 441 776 q 598 734 528 776 q 718 515 718 662 l 718 338 q 673 148 718 228 q 385 0 589 0 l 262 0 m 94 -104 l 183 -83 q 208 -133 190 -110 q 336 -190 254 -190 q 416 -171 378 -190 q 494 -61 494 -134 l 585 -61 q 537 -195 585 -138 q 340 -277 467 -277 q 228 -255 281 -277 q 94 -104 118 -210 m 31 426 l 31 524 q 109 697 31 625 q 323 776 195 776 l 345 776 l 345 682 l 323 682 q 240 666 285 682 q 125 517 125 623 l 125 437 q 133 392 125 412 q 236 332 157 332 q 275 338 256 332 q 339 416 339 357 l 339 495 l 427 495 l 427 391 q 411 323 427 354 q 236 237 368 237 q 133 259 180 237 q 31 426 31 307 "},"ඊ":{"ha":745,"x_min":41,"x_max":716,"o":"m 41 321 l 41 579 q 41 613 41 600 q 155 838 46 747 l 433 1076 l 536 1050 l 227 781 q 156 700 178 741 q 133 568 133 658 l 133 319 q 321 85 134 88 l 321 -8 q 208 12 259 -8 q 41 321 41 79 m 218 677 l 307 765 l 437 765 q 669 492 666 764 l 669 319 q 647 156 669 224 q 397 -7 594 -7 l 397 87 q 472 98 439 87 q 576 319 576 136 l 576 476 q 563 581 576 538 q 411 675 530 675 l 218 675 l 218 677 m 518 902 q 530 949 518 926 q 617 1001 559 1001 q 665 989 642 1001 q 716 902 716 960 q 704 856 716 878 q 617 804 675 804 q 568 818 591 804 q 518 902 518 846 m 68 1043 q 80 1090 68 1067 q 167 1142 109 1142 q 214 1130 191 1142 q 266 1043 266 1101 q 254 997 266 1019 q 167 945 225 945 q 118 959 141 945 q 68 1043 68 987 "},"ජ":{"ha":853,"x_min":42,"x_max":803,"o":"m 42 640 q 53 665 46 652 q 250 769 107 769 q 422 690 359 765 l 708 1067 l 802 1043 l 594 769 q 618 768 606 769 q 803 640 758 757 l 719 613 q 593 684 693 682 q 506 654 541 684 l 490 632 l 488 633 q 465 556 467 601 l 465 545 l 570 545 q 694 528 647 545 q 802 332 802 490 l 709 332 q 701 396 709 372 q 572 461 681 461 l 270 461 q 193 448 224 461 q 134 332 134 423 l 42 332 q 52 416 42 378 q 264 545 88 545 l 378 545 l 378 556 q 369 609 378 585 q 251 684 340 684 q 125 613 153 682 l 42 640 m 382 -11 q 178 22 255 -11 q 42 264 42 79 l 134 264 q 163 152 134 195 q 378 80 212 80 l 467 80 q 597 95 545 80 q 709 264 709 129 l 802 264 q 776 125 802 182 q 463 -11 712 -11 l 382 -11 "},"ඣ":{"ha":1510,"x_min":41,"x_max":1469,"o":"m 41 252 l 41 339 l 366 613 q 359 623 363 617 q 252 678 323 678 q 126 582 170 671 l 43 608 q 83 686 57 651 q 252 768 146 768 q 307 761 279 768 q 433 670 397 741 l 439 675 q 743 783 579 781 q 856 766 803 783 q 1042 557 1008 719 l 1015 557 q 922 536 962 557 q 852 393 852 494 l 852 199 q 859 163 852 182 q 963 90 883 90 q 1028 109 1000 90 q 1073 199 1073 140 l 1073 264 l 1153 264 l 1153 199 q 1158 164 1153 183 q 1263 90 1181 90 q 1329 109 1302 90 q 1374 199 1374 141 l 1374 692 q 1350 831 1374 777 q 1146 932 1303 932 l 1146 1024 q 1289 1005 1227 1024 q 1469 700 1469 949 l 1469 191 q 1440 84 1469 132 q 1271 -3 1388 -3 q 1115 71 1166 -1 q 966 -3 1066 -1 q 852 24 902 -3 q 758 191 758 76 l 758 399 q 764 457 758 429 q 910 624 789 589 q 736 693 852 692 q 502 608 609 693 l 146 307 q 172 239 171 279 l 172 172 q 182 132 172 151 q 260 87 205 87 q 288 91 274 87 q 342 172 342 109 l 342 264 l 418 264 l 418 172 q 425 137 418 153 q 507 87 444 87 q 547 94 528 87 q 604 172 604 115 l 604 311 q 586 399 604 366 q 453 467 559 446 l 526 528 q 591 507 563 519 q 692 317 692 461 l 692 163 q 662 62 692 106 q 519 -7 613 -7 q 380 49 438 -7 q 256 -7 332 -5 q 168 16 210 -7 q 88 152 88 61 l 88 189 q 58 256 88 255 q 41 252 57 256 m 796 869 q 846 944 812 910 q 1069 1024 929 1024 l 1069 932 q 1043 930 1057 932 q 886 837 918 921 l 796 869 "},"ඥ":{"ha":1438,"x_min":41,"x_max":1438,"o":"m 1058 -3 q 1038 -3 1048 -3 q 800 117 873 5 q 583 -11 755 -9 l 583 83 q 728 220 726 84 q 637 355 728 343 l 553 357 l 553 484 q 593 644 553 578 q 854 774 667 773 l 871 774 l 871 681 l 854 681 q 757 662 802 680 q 646 486 646 616 l 646 435 l 650 435 q 777 372 734 434 q 787 391 781 381 q 1054 519 854 519 l 1206 519 q 945 681 1204 678 l 945 774 q 964 774 955 774 q 1299 507 1299 769 l 1299 430 l 1047 430 q 974 422 1008 430 q 849 263 849 392 q 867 184 849 221 q 1058 88 916 88 l 1109 88 q 1299 206 1244 90 l 1385 184 q 1325 84 1364 127 q 1109 -3 1242 -3 l 1058 -3 m 41 278 l 41 389 q 79 629 41 549 q 359 765 142 765 l 507 765 l 507 671 q 468 667 487 671 q 343 464 343 643 l 343 286 q 350 217 343 250 q 507 83 377 83 l 507 -11 q 382 18 437 -11 q 251 286 252 85 l 251 468 q 307 671 251 591 q 163 591 206 667 q 132 389 132 533 l 132 278 q 136 186 132 218 q 224 7 146 98 l 134 -24 q 79 62 99 20 q 41 278 41 141 m 1202 -279 q 1074 -250 1130 -279 q 967 -64 967 -193 l 1058 -64 q 1081 -136 1058 -103 q 1206 -193 1124 -193 q 1246 -187 1226 -193 q 1350 -85 1329 -165 l 1438 -109 q 1400 -190 1427 -153 q 1202 -279 1331 -279 "},"ක":{"ha":1046,"x_min":41,"x_max":1005,"o":"m 43 608 q 83 686 57 651 q 252 768 146 768 q 307 761 279 768 q 434 670 396 739 q 694 765 549 764 q 861 722 788 765 q 1005 429 1005 636 l 1005 266 q 989 138 1005 190 q 760 -1 945 -1 l 760 92 q 810 96 788 92 q 913 266 913 118 l 913 423 q 865 583 913 518 q 681 673 800 673 q 502 608 582 673 l 146 307 q 172 239 171 279 l 172 172 q 182 132 172 151 q 260 87 205 87 q 288 91 274 87 q 342 172 342 109 l 342 264 l 418 264 l 418 172 q 425 137 418 153 q 507 87 444 87 q 547 94 528 87 q 604 172 604 115 l 604 311 q 586 399 604 366 q 453 467 559 446 l 526 528 q 591 507 563 519 q 692 317 692 461 l 692 163 q 662 62 692 106 q 519 -7 613 -7 q 380 49 438 -7 q 256 -7 332 -5 q 168 16 210 -7 q 88 152 88 61 l 88 189 q 58 256 88 255 q 41 252 57 256 l 41 339 l 366 613 q 358 625 363 618 q 252 678 321 678 q 126 582 170 671 l 43 608 "},"ඛ":{"ha":810,"x_min":41,"x_max":769,"o":"m 570 -7 q 452 27 507 -7 l 452 -88 l 361 -88 l 361 377 q 345 448 361 416 q 247 507 313 507 q 199 496 222 507 q 132 377 132 465 l 132 250 q 146 159 132 194 q 288 92 176 92 l 288 0 q 174 15 222 0 q 41 244 41 58 l 41 381 q 85 526 41 467 q 250 605 145 605 q 353 578 305 605 q 452 391 452 521 l 452 206 q 467 148 452 174 q 564 95 498 95 q 608 103 586 95 q 674 206 674 129 l 674 692 q 662 799 674 753 q 460 932 624 932 l 438 932 l 438 1024 l 460 1024 q 544 1017 505 1024 q 769 692 769 978 l 769 214 q 732 77 769 134 q 570 -7 677 -7 m 149 742 l 58 765 q 144 944 60 868 q 362 1024 236 1024 l 362 932 q 248 905 300 932 q 149 742 149 853 "},"ල":{"ha":830,"x_min":41,"x_max":789,"o":"m 363 311 l 363 378 l 277 378 l 277 461 l 543 461 l 543 378 l 454 378 l 454 319 q 465 269 454 292 q 567 209 494 209 q 624 221 597 209 q 696 347 696 256 l 696 453 q 686 536 696 499 q 453 682 650 682 l 453 774 q 513 772 484 774 q 789 453 789 747 l 789 347 q 749 202 789 263 q 568 113 688 113 q 457 140 506 113 q 363 311 363 191 m 372 -229 q 256 -216 309 -229 q 41 102 41 -159 l 41 444 q 69 604 41 536 q 372 774 140 774 l 372 682 q 292 673 328 682 q 136 444 136 632 l 136 102 q 152 -1 136 45 q 372 -137 199 -137 l 372 -229 m 453 -138 q 684 14 629 -137 l 773 -11 q 453 -231 707 -228 l 453 -138 "},"ළ":{"ha":826,"x_min":41,"x_max":799,"o":"m 149 566 l 149 595 q 163 671 149 637 q 323 769 199 769 q 442 712 401 768 q 445 716 444 713 q 560 769 487 769 q 621 761 593 769 q 732 593 732 730 l 650 593 q 648 616 650 604 q 562 686 636 686 q 533 681 547 686 q 477 591 477 662 l 407 591 q 400 631 407 612 q 321 686 381 686 q 232 581 235 685 l 149 566 m 41 104 l 41 263 q 114 450 41 374 q 292 526 189 526 l 732 526 l 732 437 l 307 437 q 243 425 274 437 q 255 353 245 388 q 434 206 297 206 l 492 206 q 511 208 502 206 q 650 296 616 216 l 734 274 q 726 256 730 264 q 494 122 661 122 l 431 122 q 275 170 340 122 q 170 368 187 235 q 134 245 136 319 l 134 103 q 157 -16 134 35 q 384 -137 214 -137 l 384 -231 q 217 -201 290 -231 q 41 104 41 -125 m 467 -138 q 708 24 669 -137 l 799 0 q 793 -20 796 -9 q 467 -231 738 -231 l 467 -138 "},"ම":{"ha":784,"x_min":41,"x_max":743,"o":"m 41 342 q 53 222 41 278 q 336 -1 104 -1 l 336 91 q 282 96 308 91 q 129 342 129 132 l 129 453 q 136 502 129 480 q 201 560 152 560 q 220 557 210 560 q 262 495 262 543 l 262 425 q 275 368 262 393 q 380 312 308 312 q 429 321 406 312 q 499 431 499 350 l 499 636 l 425 636 l 425 439 q 423 427 425 434 q 378 395 415 395 q 369 396 374 395 q 332 439 332 403 l 332 510 q 313 583 332 551 q 202 646 278 646 q 129 625 164 646 q 41 442 41 575 l 41 342 m 412 -1 q 460 0 435 -1 q 743 331 743 24 l 743 692 q 739 757 743 726 q 412 1024 707 1024 l 412 932 q 651 692 648 930 l 651 331 q 412 91 650 94 l 412 -1 m 42 765 l 133 741 q 179 863 133 810 q 336 932 241 932 l 336 1024 q 152 962 239 1024 q 42 765 42 882 "},"ා":{"ha":359,"x_min":41,"x_max":319,"o":"m 41 0 l 68 0 q 87 0 76 0 q 319 270 319 9 l 319 498 q 317 534 319 517 q 68 769 301 769 l 41 769 l 41 675 l 68 675 q 225 494 216 671 l 225 271 q 220 212 225 239 q 68 94 198 94 l 41 94 l 41 0 "},"ෑ":{"ha":376,"x_min":60,"x_max":335,"o":"m 60 283 q 71 357 60 328 q 203 488 94 410 l 60 488 l 60 570 l 213 697 l 60 697 l 60 779 l 335 779 l 335 697 l 180 570 l 335 570 l 335 488 q 178 359 212 401 q 153 283 153 331 l 153 233 q 156 193 153 212 q 296 94 170 94 l 335 94 l 335 0 l 297 0 q 60 224 64 3 l 60 283 "},"ැ":{"ha":357,"x_min":41,"x_max":316,"o":"m 277 0 q 184 15 227 0 q 41 258 41 65 l 41 400 q 64 532 41 484 q 197 688 88 582 l 41 688 l 41 779 l 316 779 l 316 689 q 156 511 186 563 q 133 396 133 472 l 133 255 q 277 94 133 95 l 316 94 l 316 0 l 277 0 "},"ෛ":{"ha":1204,"x_min":41,"x_max":1164,"o":"m 338 677 l 288 677 q 254 674 271 677 q 132 503 132 655 l 132 269 q 138 195 132 227 q 283 81 160 81 l 283 -7 l 255 -7 q 146 20 193 -7 q 41 269 41 83 l 41 503 q 56 605 41 556 q 282 765 104 765 l 366 765 q 498 720 441 765 q 575 585 564 666 l 490 563 q 338 677 469 675 m 316 392 l 316 480 l 434 480 q 460 479 448 480 q 579 346 579 469 l 579 213 q 560 109 579 156 q 381 -7 513 -7 l 349 -7 l 349 81 q 488 213 486 83 l 488 323 q 483 358 488 342 q 407 392 468 392 l 316 392 m 922 681 l 872 681 q 838 678 856 681 q 716 507 716 659 l 716 273 q 723 199 716 231 q 868 85 745 85 l 868 -3 l 840 -3 q 731 24 777 -3 q 625 273 625 87 l 625 507 q 640 609 625 560 q 867 769 689 769 l 951 769 q 1082 724 1025 769 q 1160 589 1149 670 l 1074 567 q 922 681 1054 680 m 901 396 l 901 484 l 1019 484 q 1044 483 1032 484 q 1164 350 1164 473 l 1164 217 q 1145 113 1164 160 q 966 -3 1097 -3 l 933 -3 l 933 85 q 1073 217 1070 87 l 1073 327 q 1067 362 1073 346 q 991 396 1053 396 l 901 396 "},"ෞ":{"ha":1366,"x_min":41,"x_max":1332,"o":"m 338 677 l 288 677 q 254 674 271 677 q 132 503 132 655 l 132 269 q 138 195 132 227 q 283 81 160 81 l 283 -7 l 255 -7 q 146 20 193 -7 q 41 269 41 83 l 41 503 q 56 605 41 556 q 282 765 104 765 l 366 765 q 498 720 441 765 q 575 585 564 666 l 490 563 q 338 677 469 675 m 316 392 l 316 480 l 434 480 q 460 479 448 480 q 579 346 579 469 l 579 213 q 560 109 579 156 q 381 -7 513 -7 l 349 -7 l 349 81 q 488 213 486 83 l 488 323 q 483 358 488 342 q 407 392 468 392 l 316 392 m 1097 -11 q 972 19 1029 -11 q 863 209 863 79 l 863 274 l 949 274 l 949 208 q 972 136 949 168 q 1100 79 1015 79 q 1164 90 1133 79 q 1245 208 1245 121 l 1245 616 q 1242 637 1245 627 q 1185 678 1229 678 q 1171 677 1179 678 q 1126 616 1126 666 l 1126 547 q 1107 475 1126 506 q 997 415 1072 415 q 940 427 967 415 q 863 557 863 461 l 863 765 l 936 765 l 936 571 q 939 549 936 560 q 996 510 952 510 q 1012 511 1002 510 q 1055 571 1055 524 l 1055 629 q 1076 708 1055 674 q 1192 770 1114 770 q 1255 757 1225 770 q 1332 620 1332 719 l 1332 209 q 1282 66 1332 126 q 1097 -11 1214 -11 "},"ෙ":{"ha":620,"x_min":41,"x_max":579,"o":"m 338 677 l 288 677 q 254 674 271 677 q 132 503 132 655 l 132 269 q 138 195 132 227 q 283 81 160 81 l 283 -7 l 255 -7 q 146 20 193 -7 q 41 269 41 83 l 41 503 q 56 605 41 556 q 282 765 104 765 l 366 765 q 498 720 441 765 q 575 585 564 666 l 490 563 q 338 677 469 675 m 316 392 l 316 480 l 434 480 q 460 479 448 480 q 579 346 579 469 l 579 213 q 560 109 579 156 q 381 -7 513 -7 l 349 -7 l 349 81 q 488 213 486 83 l 488 323 q 483 358 488 342 q 407 392 468 392 l 316 392 "},"ේ":{"ha":986,"x_min":41,"x_max":945,"o":"m 338 677 l 288 677 q 254 674 271 677 q 132 503 132 655 l 132 269 q 138 195 132 227 q 283 81 160 81 l 283 -7 l 255 -7 q 146 20 193 -7 q 41 269 41 83 l 41 503 q 56 605 41 556 q 282 765 104 765 l 366 765 q 498 720 441 765 q 575 585 564 666 l 490 563 q 338 677 469 675 m 316 392 l 316 480 l 434 480 q 460 479 448 480 q 579 346 579 469 l 579 213 q 560 109 579 156 q 381 -7 513 -7 l 349 -7 l 349 81 q 488 213 486 83 l 488 323 q 483 358 488 342 q 407 392 468 392 l 316 392 m 854 840 l 854 1111 l 945 1111 l 945 840 l 854 840 "},"ි":{"ha":0,"x_min":-788,"x_max":-79,"o":"m -788 817 l -700 817 q -528 982 -699 981 l -339 982 q -167 817 -171 981 l -79 817 l -79 854 q -122 983 -79 926 q -317 1070 -190 1070 l -549 1070 q -693 1029 -631 1070 q -788 854 -788 968 l -788 817 "},"ී":{"ha":0,"x_min":-798,"x_max":-77,"o":"m -205 799 q -270 815 -240 799 q -330 920 -330 850 q -285 1012 -328 978 q -332 1013 -302 1013 l -537 1013 q -617 998 -582 1013 q -709 817 -709 955 l -798 817 l -798 857 q -745 1009 -798 940 q -559 1103 -671 1103 l -289 1103 q -201 1090 -241 1103 q -77 930 -79 1054 q -95 863 -77 894 q -205 799 -130 799 "},"ෳ":{"ha":532,"x_min":22,"x_max":492,"o":"m 258 -11 q 381 19 324 -11 q 492 209 492 79 l 492 620 q 469 707 492 669 q 353 770 430 770 q 293 758 321 770 q 216 629 216 723 l 216 571 q 213 549 216 560 q 156 510 199 510 q 140 511 149 510 q 96 571 96 524 l 96 765 l 22 765 l 22 557 q 42 477 22 513 q 157 415 79 415 q 214 427 187 415 q 286 547 286 460 l 286 616 q 289 637 286 627 q 346 678 302 678 q 361 677 353 678 q 406 616 406 666 l 406 208 q 387 140 406 170 q 260 79 349 79 q 191 92 225 79 q 110 208 110 125 l 110 274 l 22 274 l 22 209 q 72 68 22 126 q 258 -11 140 -11 "},"ෟ":{"ha":532,"x_min":22,"x_max":491,"o":"m 256 -11 q 380 19 323 -11 q 491 209 491 79 l 491 620 q 468 707 491 669 q 351 770 429 770 q 292 758 320 770 q 214 629 214 723 l 214 571 q 212 549 214 560 q 155 510 198 510 q 138 511 148 510 q 95 571 95 524 l 95 765 l 22 765 l 22 557 q 42 477 22 513 q 156 415 79 415 q 213 427 186 415 q 285 547 285 460 l 285 616 q 288 637 285 627 q 345 678 301 678 q 359 677 351 678 q 404 616 404 666 l 404 208 q 385 140 404 170 q 259 79 347 79 q 190 92 224 79 q 109 208 109 125 l 109 274 l 22 274 l 22 209 q 71 69 22 126 q 256 -11 137 -11 "},"ො":{"ha":1070,"x_min":41,"x_max":1029,"o":"m 338 677 l 288 677 q 254 674 271 677 q 132 503 132 655 l 132 269 q 138 195 132 227 q 283 81 160 81 l 283 -7 l 255 -7 q 146 20 193 -7 q 41 269 41 83 l 41 503 q 56 605 41 556 q 282 765 104 765 l 366 765 q 498 720 441 765 q 575 585 564 666 l 490 563 q 338 677 469 675 m 316 392 l 316 480 l 434 480 q 460 479 448 480 q 579 346 579 469 l 579 213 q 560 109 579 156 q 381 -7 513 -7 l 349 -7 l 349 81 q 488 213 486 83 l 488 323 q 483 358 488 342 q 407 392 468 392 l 316 392 m 751 0 l 751 94 l 779 94 q 802 95 789 94 q 936 271 936 104 l 936 494 q 935 521 936 507 q 779 675 924 675 l 751 675 l 751 769 l 779 769 q 810 768 795 769 q 1029 498 1029 753 l 1029 270 q 1029 243 1029 256 q 779 0 1017 0 l 751 0 "},"ෝ":{"ha":1070,"x_min":41,"x_max":1029,"o":"m 338 677 l 288 677 q 254 674 271 677 q 132 503 132 655 l 132 269 q 138 195 132 227 q 283 81 160 81 l 283 -7 l 255 -7 q 146 20 193 -7 q 41 269 41 83 l 41 503 q 56 605 41 556 q 282 765 104 765 l 366 765 q 498 720 441 765 q 575 585 564 666 l 490 563 q 338 677 469 675 m 316 392 l 316 480 l 434 480 q 460 479 448 480 q 579 346 579 469 l 579 213 q 560 109 579 156 q 381 -7 513 -7 l 349 -7 l 349 81 q 488 213 486 83 l 488 323 q 483 358 488 342 q 407 392 468 392 l 316 392 m 751 0 l 751 94 l 779 94 q 802 95 789 94 q 936 271 936 104 l 936 494 q 935 521 936 507 q 779 675 924 675 l 751 675 l 751 769 l 779 769 q 810 768 795 769 q 1029 498 1029 753 l 1029 270 q 1029 243 1029 256 q 779 0 1017 0 l 751 0 m 750 840 l 750 1111 l 841 1111 l 841 840 l 750 840 "},"ෘ":{"ha":449,"x_min":20,"x_max":408,"o":"m 214 0 q 326 34 275 0 q 408 194 408 91 l 408 541 q 392 648 408 601 q 222 769 349 769 l 96 769 l 96 681 l 218 681 q 245 678 232 681 q 323 534 323 656 l 323 194 q 308 138 323 165 q 214 84 275 84 q 159 99 186 84 q 104 194 104 132 q 118 247 104 222 q 214 302 149 302 l 254 302 l 254 385 l 214 385 q 98 349 149 385 q 20 194 20 293 q 60 76 20 127 q 214 0 118 0 "},"ෲ":{"ha":929,"x_min":42,"x_max":887,"o":"m 236 0 q 346 34 296 0 q 429 194 429 91 l 429 541 q 412 647 429 600 q 244 769 372 769 l 118 769 l 118 681 l 240 681 q 267 678 254 681 q 345 534 345 656 l 345 194 q 330 138 345 165 q 236 84 297 84 q 179 100 206 84 q 125 194 125 133 q 140 248 125 222 q 236 302 172 302 l 275 302 l 275 385 l 236 385 q 119 349 171 385 q 42 194 42 293 q 81 76 42 127 q 236 0 140 0 m 693 0 q 804 34 754 0 q 887 194 887 91 l 887 541 q 871 647 887 600 q 703 769 830 769 l 575 769 l 575 681 l 697 681 q 711 680 704 681 q 803 534 800 670 l 803 194 q 788 138 803 165 q 693 84 755 84 q 637 99 665 84 q 583 194 583 132 q 597 247 583 222 q 693 302 628 302 l 734 302 l 734 385 l 693 385 q 576 349 628 385 q 499 194 499 293 q 538 76 499 127 q 693 0 597 0 "},"ු":{"ha":0,"x_min":-678,"x_max":-71,"o":"m -163 176 l -71 176 l -71 -278 l -355 -278 l -355 -186 l -163 -186 l -163 176 m -678 -186 l -431 -186 l -431 -278 l -678 -278 l -678 -186 "},"ූ":{"ha":0,"x_min":-689,"x_max":-71,"o":"m -689 -134 q -587 -179 -636 -178 q -522 -163 -562 -179 q -427 -136 -458 -136 l -427 -229 q -499 -247 -456 -229 q -589 -273 -563 -273 q -689 -228 -635 -273 l -689 -134 m -163 -278 q -351 -229 -252 -231 l -351 -136 l -350 -136 q -347 -136 -349 -136 q -163 -180 -254 -134 l -163 167 l -71 167 l -71 -278 l -163 -278 "},"ඹ":{"ha":800,"x_min":41,"x_max":760,"o":"m 252 -15 q 354 61 342 -14 q 355 130 358 77 q 354 160 354 152 q 399 205 355 201 q 445 160 437 202 q 445 61 442 79 q 545 -15 454 -14 q 667 22 614 -15 q 760 222 760 87 l 760 696 q 430 1024 758 1021 l 430 932 q 667 692 665 930 l 667 227 q 651 153 667 189 q 544 80 616 80 q 496 130 502 83 q 498 153 496 136 q 500 174 499 165 q 435 277 509 277 l 363 277 q 326 267 342 277 q 301 153 292 244 q 302 130 302 136 q 255 80 300 88 q 187 104 217 80 q 133 227 133 148 l 133 481 q 138 513 133 498 q 205 560 155 560 q 225 557 214 560 q 275 486 275 543 l 275 425 q 290 366 275 392 q 395 312 323 312 q 444 321 420 312 q 514 431 514 350 l 514 636 l 439 636 l 439 439 q 438 427 439 434 q 393 395 430 395 q 384 396 389 395 q 347 439 347 403 l 347 499 q 327 582 347 545 q 201 648 286 648 q 125 629 161 648 q 41 486 41 587 l 41 222 q 73 88 41 146 q 252 -15 130 -15 m 142 742 q 183 859 142 808 q 354 932 244 932 l 354 1024 q 167 967 254 1024 q 52 765 52 890 l 142 742 "},"න":{"ha":998,"x_min":41,"x_max":958,"o":"m 712 -4 l 712 90 q 762 94 741 90 q 865 263 865 115 l 865 449 q 814 597 865 534 q 636 675 746 675 q 458 587 525 674 l 353 448 q 323 410 336 426 q 137 271 217 279 q 176 183 151 222 q 374 84 245 84 q 483 113 434 84 q 575 279 575 167 q 450 457 574 406 l 503 528 q 581 484 545 513 q 671 278 671 408 q 605 92 671 170 q 373 -7 518 -7 q 182 49 266 -7 q 41 347 41 144 l 41 467 l 126 467 l 126 366 l 126 365 q 140 369 133 366 q 274 491 199 389 q 309 538 278 496 q 366 616 349 593 q 361 624 363 620 q 252 678 324 678 q 239 677 245 678 q 127 582 156 669 l 45 608 q 81 682 57 650 q 254 768 144 768 q 298 762 275 768 q 422 686 382 745 q 643 768 507 766 q 818 722 739 768 q 958 456 958 637 l 958 263 q 941 136 958 187 q 712 -4 898 -4 "},"ඳ":{"ha":939,"x_min":41,"x_max":939,"o":"m 559 0 q 400 31 471 0 q 251 270 251 96 q 288 418 251 355 q 557 544 362 544 l 711 544 q 684 632 711 594 q 538 697 636 697 q 492 692 515 697 q 380 593 401 671 l 370 595 q 296 609 331 609 q 205 578 244 609 q 132 401 132 521 l 132 283 q 136 190 132 221 q 221 12 145 102 l 132 -19 q 75 73 95 28 q 41 283 41 146 l 41 401 q 98 604 41 522 q 288 701 167 701 q 334 696 313 701 q 536 784 406 783 q 671 754 610 784 q 800 526 800 689 l 799 453 l 547 453 q 457 439 498 453 q 346 270 346 399 q 363 190 346 227 q 559 91 411 91 l 610 91 q 800 210 745 92 l 884 187 q 821 84 863 127 q 610 0 738 0 l 559 0 m 701 -277 q 572 -245 629 -277 q 467 -61 467 -189 l 557 -61 q 581 -133 557 -100 q 705 -190 624 -190 q 749 -184 727 -190 q 849 -83 830 -163 l 939 -104 q 902 -186 928 -149 q 701 -277 833 -277 "},"ඦ":{"ha":1062,"x_min":41,"x_max":1010,"o":"m 590 -11 q 384 22 461 -11 q 251 264 251 80 l 343 264 q 372 152 343 195 q 586 80 420 80 l 674 80 q 806 95 755 80 q 918 264 918 130 l 1010 264 q 986 129 1010 184 q 671 -11 922 -11 l 590 -11 m 132 -23 q 76 65 96 23 q 41 277 41 141 l 41 467 q 73 621 41 557 q 244 723 127 723 q 302 718 278 723 q 458 769 362 768 q 631 690 568 765 l 917 1067 l 1009 1043 l 802 769 q 833 768 817 769 q 1010 640 968 754 l 928 613 q 802 684 902 682 q 716 655 750 684 l 699 632 l 696 633 q 674 556 675 600 l 674 545 l 779 545 q 903 528 856 545 q 1010 332 1010 490 l 918 332 q 911 395 918 370 q 781 461 890 461 l 477 461 q 397 446 429 461 q 343 332 343 422 l 251 332 q 260 416 251 378 q 473 545 297 545 l 586 545 l 586 556 q 576 609 586 585 q 458 684 548 684 q 332 613 361 682 l 290 627 q 247 632 270 632 q 221 629 235 632 q 129 457 129 609 l 129 279 q 133 187 129 221 q 222 7 145 100 l 132 -23 "},"ඞ":{"ha":792,"x_min":41,"x_max":751,"o":"m 247 -3 q 136 23 184 -3 q 41 191 41 75 l 41 297 q 49 369 41 338 q 221 475 76 475 l 340 475 q 365 479 354 475 q 406 537 406 492 q 404 552 406 544 q 343 595 393 595 l 236 595 q 203 593 218 595 q 148 536 148 582 l 72 536 q 77 576 72 556 q 235 673 102 673 l 342 673 q 422 652 387 673 q 483 537 483 614 q 469 475 483 505 q 342 397 434 397 l 282 397 q 172 381 206 397 q 134 305 134 363 l 134 199 q 141 163 134 182 q 245 90 165 90 q 311 109 282 90 q 355 199 355 140 l 355 264 l 435 264 l 435 199 q 441 164 435 183 q 545 90 464 90 q 612 109 585 90 q 656 199 656 141 l 656 690 q 631 836 656 780 q 431 932 585 932 l 431 1023 q 589 1000 524 1023 q 751 699 751 939 l 751 191 q 723 84 751 132 q 553 -3 670 -3 q 397 71 449 -1 q 247 -3 349 -1 m 49 764 q 136 943 50 868 q 354 1023 229 1023 l 354 932 q 237 903 290 932 q 138 741 138 850 l 49 764 "},"ණ":{"ha":1326,"x_min":9,"x_max":1286,"o":"m 9 15 q 38 61 22 39 q 199 142 102 142 q 315 121 250 142 q 429 92 396 92 q 476 100 453 92 q 575 264 575 133 l 575 505 q 563 597 575 555 q 369 732 524 732 q 221 677 275 732 q 168 540 168 620 q 178 479 168 510 q 350 354 213 354 l 416 354 l 416 264 l 323 264 q 178 315 243 264 q 77 540 77 393 q 145 728 77 652 q 369 822 229 822 q 494 804 435 822 l 692 1067 l 792 1040 l 576 757 q 665 505 663 680 l 665 264 q 608 80 665 152 q 441 0 543 0 q 335 22 397 0 q 209 53 247 53 q 99 -8 133 49 l 9 15 m 907 331 l 907 555 q 897 612 907 586 q 808 670 872 670 q 734 637 764 670 l 699 724 q 815 765 745 764 q 955 694 905 764 q 1100 765 1004 764 q 1187 746 1147 765 q 1286 575 1286 700 l 1286 331 l 1194 331 l 1194 563 q 1185 609 1194 587 q 1096 669 1162 669 q 1058 662 1076 669 q 997 563 997 639 l 997 331 l 907 331 m 731 218 l 731 264 l 823 264 l 823 228 q 852 144 823 180 q 1008 81 903 81 q 1095 96 1054 81 q 1194 227 1194 133 l 1194 264 l 1286 264 l 1286 225 q 1230 76 1286 138 q 1009 -8 1152 -8 q 849 28 918 -8 q 731 218 731 90 "},"ඬ":{"ha":1010,"x_min":41,"x_max":970,"o":"m 467 -3 q 355 23 404 -3 q 260 191 260 75 l 260 305 q 292 389 260 372 l 209 389 l 209 468 l 570 468 q 555 524 570 499 q 456 574 524 574 q 354 517 381 572 l 343 521 l 343 519 q 258 537 298 537 q 218 532 237 537 q 129 377 129 507 q 127 252 129 308 q 127 235 127 239 q 130 183 127 205 q 210 12 138 98 l 121 -19 q 81 42 98 11 q 41 239 41 117 l 41 388 q 76 530 41 471 q 254 627 134 627 q 328 617 292 627 q 457 658 380 656 q 563 632 515 658 q 654 471 654 582 l 654 389 l 439 389 q 353 305 363 385 l 353 199 q 358 163 353 182 q 465 90 384 90 q 532 110 503 90 q 575 199 575 141 l 575 264 l 654 264 l 654 199 q 661 163 654 182 q 764 90 685 90 q 830 109 803 90 q 875 199 875 141 l 875 692 q 850 834 875 780 q 654 932 806 932 l 654 1024 q 804 1002 741 1024 q 970 700 970 943 l 970 191 q 943 87 970 133 q 772 -3 891 -3 q 616 71 670 -1 q 467 -3 567 -1 m 273 765 q 359 944 274 869 q 578 1024 453 1024 l 578 932 q 461 903 514 932 q 362 742 362 850 l 273 765 "},"ඟ":{"ha":1169,"x_min":41,"x_max":1128,"o":"m 41 283 l 41 389 q 79 629 41 549 q 359 765 142 765 l 507 765 l 507 671 q 468 667 487 671 q 343 464 343 643 l 343 286 q 350 217 343 250 q 507 83 377 83 l 507 -11 q 382 18 437 -11 q 251 286 252 85 l 251 468 q 307 671 251 591 q 163 591 206 667 q 132 389 132 533 l 132 283 q 136 190 132 221 q 221 12 145 102 l 132 -19 q 75 73 95 28 q 41 283 41 146 m 872 -11 l 872 83 q 922 90 898 83 q 1036 286 1036 121 l 1036 464 q 1032 522 1036 494 q 872 671 1009 671 l 872 765 q 1002 734 947 765 q 1128 468 1128 665 l 1128 286 q 1104 140 1128 203 q 872 -11 1044 -11 m 553 357 l 553 484 q 564 586 553 540 q 796 765 608 765 l 796 671 q 646 486 648 670 l 646 435 l 650 435 q 719 423 688 435 q 814 243 814 382 l 814 205 q 804 130 814 165 q 583 -11 766 -11 l 583 83 q 728 220 726 84 q 637 355 728 343 l 553 357 "},"ඤ":{"ha":1530,"x_min":41,"x_max":1530,"o":"m 243 252 l 243 339 l 568 613 q 560 627 566 620 q 454 678 524 678 q 328 582 372 671 l 286 595 q 247 601 267 601 q 132 425 138 595 l 132 263 q 136 172 132 205 q 224 -8 146 84 l 134 -39 q 79 46 100 4 q 41 263 41 126 l 41 425 q 72 583 41 518 q 243 690 123 690 q 286 686 263 690 q 456 768 350 766 q 517 760 487 768 q 636 670 604 736 l 642 674 q 964 803 803 802 l 964 713 q 705 608 833 711 l 350 305 q 374 239 373 279 l 374 172 q 385 130 374 151 q 464 87 410 87 q 488 91 476 87 q 544 172 544 107 l 544 264 l 621 264 l 621 172 q 628 137 621 153 q 709 87 648 87 q 750 95 730 87 q 807 172 807 117 l 807 311 q 789 399 807 366 q 655 467 761 446 l 730 528 q 879 418 846 502 q 1149 544 955 543 l 1299 544 q 1039 713 1294 707 l 1039 803 q 1177 788 1114 803 q 1392 530 1392 735 l 1392 453 l 1139 453 q 1048 438 1089 453 q 937 269 937 397 q 956 186 937 224 q 1150 91 1005 91 l 1203 91 q 1393 209 1336 92 l 1477 187 q 1416 85 1457 129 q 1203 0 1335 0 l 1150 0 q 888 113 977 4 q 864 62 880 85 q 722 -7 815 -7 q 582 49 643 -7 q 460 -7 534 -5 q 370 16 412 -7 q 290 152 290 62 l 292 189 q 262 256 292 255 q 250 254 259 256 q 243 252 245 252 m 1294 -277 q 1165 -245 1222 -277 q 1059 -61 1059 -189 l 1150 -61 q 1172 -132 1150 -100 q 1298 -190 1214 -190 q 1341 -184 1320 -190 q 1442 -83 1423 -163 l 1530 -106 q 1492 -187 1519 -151 q 1294 -277 1423 -277 "},"ඕ":{"ha":796,"x_min":41,"x_max":755,"o":"m 243 -3 q 134 23 182 -3 q 41 191 41 75 l 41 487 q 69 583 41 541 q 201 648 117 648 q 266 635 235 648 q 347 499 347 598 l 347 439 q 349 427 347 434 q 393 395 357 395 q 403 396 397 395 q 439 439 439 403 l 439 636 l 514 636 l 514 431 q 499 369 514 396 q 395 312 467 312 q 347 320 370 312 q 277 425 277 347 l 277 486 q 271 517 277 502 q 206 560 255 560 q 184 557 195 560 q 134 481 134 541 l 134 199 q 141 160 134 180 q 247 88 168 88 q 315 109 285 88 q 359 199 359 142 l 359 264 l 438 264 l 438 199 q 446 159 438 180 q 549 88 472 88 q 617 109 589 88 q 663 199 663 142 l 663 627 q 635 745 663 704 q 472 796 597 796 l 84 796 l 84 884 l 132 884 q 94 971 95 918 q 119 1044 94 1009 q 252 1111 167 1111 l 372 1111 l 372 1028 l 266 1028 q 229 1023 247 1028 q 183 956 183 1005 q 187 933 183 945 q 266 884 203 884 l 472 884 q 651 852 585 884 q 755 643 755 802 l 755 191 q 728 87 755 133 q 553 -3 675 -3 q 399 71 450 -1 q 243 -3 346 -1 m 658 913 q 629 1004 658 975 q 519 1028 604 1028 l 448 1028 l 448 1111 l 532 1111 q 699 1066 646 1111 q 749 913 749 1023 l 658 913 "},"ඔ":{"ha":796,"x_min":41,"x_max":755,"o":"m 243 -3 q 134 23 182 -3 q 41 191 41 75 l 41 487 q 69 583 41 541 q 201 648 117 648 q 266 635 235 648 q 347 499 347 598 l 347 439 q 349 427 347 434 q 393 395 357 395 q 403 396 397 395 q 439 439 439 403 l 439 636 l 514 636 l 514 431 q 498 369 514 396 q 392 312 465 312 q 345 321 366 312 q 277 425 277 349 l 277 486 q 271 517 277 502 q 206 560 255 560 q 184 557 195 560 q 134 481 134 541 l 134 199 q 141 160 134 180 q 247 88 168 88 q 315 109 285 88 q 359 199 359 142 l 359 264 l 438 264 l 438 199 q 446 159 438 180 q 549 88 472 88 q 617 109 589 88 q 663 199 663 142 l 663 694 q 631 848 663 791 q 427 932 581 932 l 427 1024 q 613 991 541 1024 q 755 700 755 925 l 755 191 q 728 87 755 133 q 553 -3 675 -3 q 399 71 450 -1 q 243 -3 346 -1 m 138 742 l 47 765 q 133 944 49 869 q 350 1024 225 1024 l 350 932 q 236 905 289 932 q 138 742 138 852 "},"ප":{"ha":844,"x_min":42,"x_max":803,"o":"m 42 640 q 53 665 46 652 q 250 769 107 769 q 422 690 359 765 q 430 701 426 696 q 594 769 490 769 q 618 768 606 769 q 803 640 758 757 l 719 613 q 593 684 693 682 q 530 670 559 684 q 465 556 465 637 l 465 545 l 570 545 q 694 528 647 545 q 802 332 802 490 l 709 332 q 701 396 709 372 q 572 461 681 461 l 270 461 q 193 448 224 461 q 134 332 134 423 l 42 332 q 52 416 42 378 q 264 545 88 545 l 378 545 l 378 556 q 369 609 378 585 q 251 684 340 684 q 125 613 153 682 l 42 640 m 382 -11 q 178 22 255 -11 q 42 264 42 79 l 134 264 q 163 152 134 195 q 378 80 212 80 l 467 80 q 597 95 545 80 q 709 264 709 129 l 802 264 q 776 125 802 182 q 463 -11 712 -11 l 382 -11 "},"ඵ":{"ha":751,"x_min":42,"x_max":711,"o":"m 326 -1 q 136 62 217 -1 q 42 250 42 137 q 100 415 42 362 q 119 431 109 423 q 345 481 186 481 q 332 529 345 507 q 235 579 304 579 q 138 522 163 578 l 64 543 q 83 586 71 566 q 235 658 130 658 q 330 636 286 658 q 423 486 423 591 l 423 397 l 343 397 q 205 380 251 397 q 133 251 133 351 q 156 175 133 212 q 326 92 208 92 l 326 -1 m 330 856 l 330 1024 l 399 1024 q 427 1023 414 1024 q 711 701 711 1009 l 711 331 q 705 243 711 285 q 401 -1 669 -1 l 401 92 q 616 331 613 94 l 616 675 q 595 821 616 765 q 399 932 553 932 l 399 856 q 407 798 399 825 q 548 697 434 701 l 548 625 q 438 652 486 629 q 330 856 330 709 "},"ර":{"ha":709,"x_min":41,"x_max":669,"o":"m 41 321 l 41 579 q 41 613 41 600 q 155 838 46 747 l 433 1076 l 536 1050 l 227 781 q 156 700 178 741 q 133 568 133 658 l 133 319 q 321 85 134 88 l 321 -8 q 208 12 259 -8 q 41 321 41 79 m 218 677 l 307 765 l 437 765 q 669 492 666 764 l 669 319 q 647 156 669 224 q 397 -7 594 -7 l 397 87 q 472 98 439 87 q 576 319 576 136 l 576 476 q 563 581 576 538 q 411 675 530 675 l 218 675 l 218 677 "},"ස":{"ha":922,"x_min":41,"x_max":882,"o":"m 100 198 l 100 264 l 193 264 l 193 202 q 201 156 193 178 q 319 90 229 90 q 368 96 345 90 q 448 203 448 119 l 448 264 l 534 264 l 534 203 q 543 157 534 179 q 663 90 571 90 q 712 96 689 90 q 789 202 789 121 l 789 264 l 882 264 l 882 198 q 849 85 882 134 q 663 -3 791 -3 q 490 80 548 -1 q 319 -3 434 -1 q 197 28 251 -3 q 100 198 100 84 m 111 640 q 121 662 115 651 q 320 769 176 769 q 492 690 430 765 q 500 701 496 696 q 663 769 559 769 q 694 768 678 769 q 872 640 830 754 l 789 613 q 663 684 764 682 q 601 670 629 684 q 536 556 536 639 l 536 545 l 709 545 q 882 387 879 544 l 882 332 l 789 332 l 789 336 q 789 344 789 339 q 789 353 789 349 q 788 363 788 358 q 788 374 788 369 q 787 382 788 378 l 787 385 q 785 403 787 393 q 703 461 774 461 l 281 461 q 263 460 271 461 q 195 384 198 454 l 195 380 q 193 370 194 376 q 193 358 193 363 q 193 346 193 353 q 193 336 193 339 q 193 332 193 334 l 100 332 l 100 382 q 129 461 103 444 l 41 461 l 41 545 l 448 545 l 448 556 q 438 610 448 585 q 321 684 408 684 q 194 613 222 682 l 111 640 "},"ශ":{"ha":959,"x_min":41,"x_max":918,"o":"m 662 -11 l 662 83 q 712 90 688 83 q 826 286 826 121 l 826 464 q 822 522 826 494 q 662 671 799 671 l 662 765 q 792 734 736 765 q 918 468 918 665 l 918 286 q 894 140 918 203 q 662 -11 834 -11 m 297 -11 q 167 20 222 -11 q 41 286 41 90 l 41 468 q 65 614 41 551 q 297 765 125 765 l 297 671 q 258 667 277 671 q 133 464 133 643 l 133 286 q 140 217 133 250 q 297 83 167 83 l 297 -11 m 343 357 l 343 484 q 354 586 343 540 q 586 765 397 765 l 586 671 q 571 671 579 671 q 435 486 435 661 l 435 429 l 448 429 q 585 338 545 425 q 769 397 642 396 l 769 319 q 604 206 621 317 q 597 144 604 174 q 373 -11 563 -11 l 373 83 q 518 220 515 84 q 408 357 517 355 l 343 357 "},"ෂ":{"ha":856,"x_min":41,"x_max":815,"o":"m 49 640 q 60 665 53 652 q 256 769 114 769 q 429 690 369 768 q 437 701 433 696 q 601 769 496 769 q 625 768 613 769 q 810 640 765 757 l 726 613 q 600 684 701 682 q 537 670 566 684 q 472 556 472 637 l 472 547 l 583 547 q 708 529 661 547 q 815 332 815 490 l 723 332 q 719 385 723 363 q 629 460 705 449 q 620 454 625 457 q 458 229 458 365 l 368 228 q 370 267 368 247 q 503 463 388 392 l 269 463 q 189 449 220 463 q 133 332 133 423 l 41 332 q 52 419 41 381 q 263 547 88 547 l 385 547 l 385 556 q 376 609 385 585 q 258 684 347 684 q 132 613 160 682 l 49 640 m 381 -11 q 176 22 254 -11 q 41 264 41 79 l 133 264 q 161 152 133 195 q 377 80 210 80 l 480 80 q 613 95 562 80 q 723 264 723 130 l 815 264 q 789 125 815 182 q 476 -11 726 -11 l 381 -11 "},"ත":{"ha":1035,"x_min":41,"x_max":994,"o":"m 41 250 l 41 339 l 388 632 q 286 678 350 677 q 160 582 203 671 l 77 608 q 117 686 91 651 q 286 768 180 768 q 320 765 302 768 q 458 688 410 751 q 686 762 564 761 q 853 718 780 762 q 994 429 994 631 l 994 266 q 975 133 993 186 q 747 -1 930 -1 l 747 92 q 800 98 777 92 q 902 266 902 118 l 902 423 q 856 582 902 517 q 675 670 792 670 q 502 608 582 670 l 148 311 q 197 237 168 294 q 227 183 216 201 q 418 84 290 84 q 518 109 475 84 q 598 258 598 155 q 589 351 598 317 q 441 461 563 431 l 514 522 q 620 467 579 505 q 688 255 688 403 q 655 118 688 179 q 419 -7 587 -7 q 155 133 240 -5 q 133 176 146 148 q 121 201 125 193 q 60 252 94 252 q 41 250 49 252 "},"ථ":{"ha":745,"x_min":41,"x_max":704,"o":"m 323 856 l 323 1024 l 393 1024 q 433 1023 414 1024 q 704 701 704 1004 l 704 331 q 699 243 704 285 q 395 -1 662 -1 l 395 92 q 609 331 606 94 l 609 675 q 589 821 609 765 q 393 932 547 932 l 392 856 q 397 807 392 830 q 543 697 422 701 l 543 625 q 433 652 480 629 q 323 856 323 709 m 41 363 q 53 460 41 414 q 319 639 103 639 l 319 548 q 231 532 270 548 q 133 363 133 488 l 133 279 q 157 183 133 227 q 319 92 206 92 l 319 -1 q 118 77 194 -1 q 41 274 41 159 l 41 363 "},"ට":{"ha":750,"x_min":41,"x_max":709,"o":"m 47 363 l 47 274 q 84 132 47 199 q 326 -1 159 -1 l 326 91 q 216 123 263 91 q 140 279 140 178 l 140 363 q 152 439 140 404 q 326 548 190 548 l 326 639 q 167 602 232 639 q 47 363 47 534 m 401 -1 q 709 326 707 0 l 709 700 q 699 811 709 761 q 401 1024 655 1024 l 401 932 q 464 926 435 932 q 616 694 616 898 l 616 330 q 608 245 616 283 q 401 91 576 91 l 401 -1 m 41 765 l 132 742 q 176 863 132 810 q 326 932 235 932 l 326 1024 q 146 960 231 1024 q 41 765 41 880 "},"ඨ":{"ha":804,"x_min":53,"x_max":764,"o":"m 260 -3 q 146 24 197 -3 q 53 191 53 76 l 53 399 q 68 495 53 450 q 309 648 118 648 l 357 648 l 357 557 l 309 557 q 214 533 254 557 q 146 393 146 490 l 146 199 q 153 163 146 182 q 258 90 178 90 q 324 109 297 90 q 369 199 369 141 l 369 264 l 448 264 l 448 199 q 454 163 448 182 q 557 90 479 90 q 625 110 597 90 q 670 199 670 142 l 670 675 q 650 821 670 765 q 453 932 608 932 l 453 856 q 458 804 453 829 q 602 697 483 701 l 602 625 q 492 652 540 629 q 384 856 384 709 l 384 1024 l 453 1024 q 492 1023 473 1024 q 764 701 764 1004 l 764 191 q 736 87 764 133 q 566 -3 685 -3 q 410 71 461 -1 q 260 -3 361 -1 "},"උ":{"ha":747,"x_min":41,"x_max":772,"o":"m 439 -136 l 439 -228 q 492 -225 467 -228 q 772 5 728 -202 l 682 30 q 670 -8 678 11 q 439 -136 618 -136 m 174 629 l 255 600 q 282 643 262 623 q 429 693 336 693 q 490 685 460 693 q 606 538 595 654 l 362 538 q 41 180 43 537 l 41 115 q 151 -144 41 -43 q 363 -229 245 -229 l 363 -137 q 281 -115 327 -136 q 133 115 133 -52 l 133 180 q 145 289 133 240 q 363 446 183 446 l 696 446 l 696 532 q 648 681 692 618 q 427 780 575 780 q 315 761 369 780 q 174 629 202 720 "},"ඌ":{"ha":1279,"x_min":41,"x_max":1245,"o":"m 439 -136 l 439 -228 q 492 -225 467 -228 q 772 5 728 -202 l 682 30 q 670 -8 678 11 q 439 -136 618 -136 m 174 629 l 255 600 q 282 643 262 623 q 429 693 336 693 q 490 685 460 693 q 606 538 595 654 l 362 538 q 41 180 43 537 l 41 115 q 151 -144 41 -43 q 363 -229 245 -229 l 363 -137 q 281 -115 327 -136 q 133 115 133 -52 l 133 180 q 145 289 133 240 q 363 446 183 446 l 696 446 l 696 532 q 648 681 692 618 q 427 780 575 780 q 315 761 369 780 q 174 629 202 720 m 1010 -11 q 1135 19 1078 -11 q 1245 209 1245 79 l 1245 620 q 1222 707 1245 669 q 1105 770 1183 770 q 1046 758 1074 770 q 968 629 968 723 l 968 571 q 966 549 968 560 q 909 510 952 510 q 892 511 902 510 q 849 571 849 524 l 849 765 l 776 765 l 776 557 q 796 477 776 513 q 910 415 833 415 q 967 427 940 415 q 1039 547 1039 460 l 1039 616 q 1042 637 1039 627 q 1099 678 1055 678 q 1114 677 1105 678 q 1158 616 1158 666 l 1158 208 q 1139 140 1158 170 q 1013 79 1101 79 q 944 92 978 79 q 863 208 863 125 l 863 274 l 776 274 l 776 209 q 825 69 776 126 q 1010 -11 891 -11 "},"ව":{"ha":754,"x_min":41,"x_max":713,"o":"m 328 -1 l 328 91 q 206 125 258 91 q 136 251 136 172 q 164 351 136 317 q 346 397 206 397 l 426 397 l 426 486 q 395 586 426 543 q 237 658 342 658 q 194 654 216 658 q 66 543 92 633 l 142 522 q 145 529 144 525 q 237 579 170 579 q 283 571 260 579 q 347 481 347 547 q 312 481 328 481 q 103 415 164 476 q 45 250 46 363 q 106 95 45 164 q 328 -1 190 -1 m 404 -1 q 481 4 445 -1 q 713 331 713 41 l 713 700 q 711 755 713 728 q 404 1024 686 1024 l 404 932 q 472 925 441 932 q 620 692 620 894 l 620 331 q 620 311 620 321 q 404 91 610 91 l 404 -1 m 41 765 l 132 742 q 176 863 132 810 q 328 932 237 932 l 328 1024 q 146 960 232 1024 q 41 765 41 880 "},"ය":{"ha":864,"x_min":41,"x_max":822,"o":"m 41 198 l 41 264 l 133 264 l 133 202 q 141 156 133 178 q 259 90 170 90 q 307 96 285 90 q 387 203 387 119 l 387 264 l 475 264 l 475 203 q 484 155 475 178 q 602 90 513 90 q 652 96 629 90 q 730 202 730 121 l 730 264 l 822 264 l 822 198 q 789 85 822 134 q 604 -3 731 -3 q 430 80 488 -1 q 259 -3 374 -1 q 136 28 190 -3 q 41 198 41 83 m 399 461 l 399 544 q 433 678 399 623 q 610 766 488 766 q 818 640 764 765 l 738 613 q 610 681 709 680 q 563 675 583 681 q 488 545 488 655 l 650 545 q 727 536 693 545 q 822 393 822 510 l 822 332 l 730 332 l 730 388 q 724 425 730 410 q 643 461 709 461 l 399 461 m 41 332 l 41 461 q 98 655 41 578 q 336 764 179 764 l 359 764 l 359 675 l 334 675 q 247 659 286 675 q 133 453 133 613 l 133 332 l 41 332 "},"෴":{"ha":2063,"x_min":203,"x_max":1918,"o":"m 808 628 q 692 396 722 453 q 524 134 586 191 q 366 81 465 81 l 203 81 l 203 0 l 366 0 q 515 27 457 0 q 671 191 593 65 q 882 589 713 259 l 808 628 m 996 644 l 697 41 l 772 0 l 1069 605 l 996 644 m 1107 503 l 876 41 l 951 0 l 1180 463 l 1107 503 m 1133 0 l 1252 245 q 1411 132 1360 165 q 1773 0 1611 0 l 1918 0 l 1918 81 l 1774 81 q 1759 81 1767 81 q 1453 208 1634 87 q 1219 370 1451 208 l 1058 41 l 1133 0 "},"ඏ":{"ha":1234,"x_min":41,"x_max":1194,"o":"m 578 -11 q 286 85 362 -11 q 273 45 283 65 q 179 -8 240 -8 q 153 -5 167 -8 q 76 62 96 8 q 41 274 41 142 l 129 274 q 134 201 129 250 q 179 210 153 210 q 244 189 213 210 q 237 264 237 217 l 330 264 q 358 152 330 195 q 574 80 407 80 l 662 80 q 795 95 743 80 q 905 264 905 130 l 997 264 q 990 189 997 228 q 1057 210 1020 209 q 1100 201 1080 210 q 1105 274 1105 248 l 1194 274 q 1158 64 1194 144 q 1149 45 1154 54 q 1057 -8 1118 -8 q 1010 1 1034 -8 q 948 87 956 27 q 658 -11 871 -9 l 578 -11 m 237 332 q 247 416 237 378 q 460 545 283 545 l 574 545 l 574 556 q 564 609 574 585 q 446 684 536 684 q 320 613 349 682 l 319 613 l 297 621 l 283 625 q 239 632 262 632 q 129 481 141 623 l 129 340 l 41 340 l 41 488 q 71 624 41 566 q 232 723 122 723 q 288 716 256 723 q 445 769 349 768 q 617 690 557 768 q 625 701 621 696 q 789 769 685 769 q 947 716 886 769 q 1004 723 978 723 q 1104 693 1059 723 q 1194 488 1194 631 l 1194 340 l 1105 340 l 1105 481 q 1103 526 1105 505 q 996 632 1086 632 q 948 624 975 632 l 916 613 l 914 613 q 788 684 890 682 q 726 670 754 684 q 661 556 661 637 l 661 545 l 765 545 q 890 528 842 545 q 997 332 997 490 l 905 332 q 897 396 905 372 q 768 461 876 461 l 465 461 q 388 448 419 461 q 330 332 330 423 l 237 332 "},"ඐ":{"ha":1782,"x_min":41,"x_max":1750,"o":"m 41 274 l 129 274 q 134 201 129 250 q 179 210 153 210 q 244 189 213 210 q 237 264 237 217 l 330 264 q 358 152 330 195 q 574 80 407 80 l 662 80 q 795 95 743 80 q 905 264 905 130 l 997 264 q 990 189 997 228 q 1057 210 1020 209 q 1100 201 1080 210 q 1105 274 1105 248 l 1194 274 q 1158 64 1194 144 q 1149 45 1154 54 q 1057 -8 1118 -8 q 1010 1 1034 -8 q 948 87 956 27 q 658 -11 871 -9 l 578 -11 q 286 85 362 -11 q 273 45 283 65 q 179 -8 240 -8 q 153 -5 167 -8 q 76 62 96 8 q 41 274 41 142 m 237 332 q 247 416 237 378 q 460 545 283 545 l 574 545 l 574 556 q 564 609 574 585 q 446 684 536 684 q 320 613 349 682 l 319 613 l 297 621 l 283 625 q 239 632 262 632 q 129 481 141 623 l 129 340 l 41 340 l 41 488 q 71 624 41 566 q 232 723 122 723 q 288 716 256 723 q 445 769 349 768 q 617 690 557 768 q 625 701 621 696 q 789 769 685 769 q 947 716 886 769 q 1004 723 978 723 q 1104 693 1059 723 q 1194 488 1194 631 l 1194 340 l 1105 340 l 1105 481 q 1103 526 1105 505 q 996 632 1086 632 q 948 624 975 632 l 916 613 l 914 613 q 788 684 890 682 q 726 670 754 684 q 661 556 661 637 l 661 545 l 765 545 q 890 528 842 545 q 997 332 997 490 l 905 332 q 897 396 905 372 q 768 461 876 461 l 465 461 q 388 448 419 461 q 330 332 330 423 l 237 332 m 1514 -11 q 1390 19 1447 -11 q 1279 209 1279 79 l 1279 274 l 1366 274 l 1366 208 q 1389 136 1366 168 q 1516 79 1431 79 q 1580 90 1549 79 q 1662 208 1662 121 l 1662 616 q 1659 637 1662 627 q 1603 678 1647 678 q 1588 677 1596 678 q 1544 616 1544 666 l 1544 547 q 1525 475 1544 506 q 1413 415 1488 415 q 1356 427 1383 415 q 1279 557 1279 461 l 1279 765 l 1354 765 l 1354 571 q 1356 549 1354 560 q 1413 510 1370 510 q 1430 511 1420 510 q 1473 571 1473 524 l 1473 629 q 1492 707 1473 673 q 1609 770 1529 770 q 1670 757 1640 770 q 1750 620 1748 720 l 1750 209 q 1699 68 1750 126 q 1514 -11 1632 -11 "},"ඍ":{"ha":1332,"x_min":41,"x_max":1298,"o":"m 1104 0 q 993 34 1043 0 q 910 194 910 91 q 941 300 910 252 q 1104 385 997 385 l 1145 385 l 1145 302 l 1104 302 q 1050 289 1076 302 q 994 194 994 258 q 1009 138 994 165 q 1104 84 1042 84 q 1158 99 1134 84 q 1213 194 1213 130 l 1213 534 q 1208 582 1213 559 q 1108 681 1191 681 l 986 681 l 986 769 l 1114 769 q 1199 750 1161 769 q 1298 541 1298 699 l 1298 194 q 1259 75 1298 127 q 1104 0 1200 0 m 41 198 l 41 264 l 133 264 l 133 202 q 141 156 133 178 q 259 90 170 90 q 307 96 285 90 q 387 203 387 119 l 387 264 l 475 264 l 475 203 q 484 155 475 178 q 602 90 513 90 q 652 96 629 90 q 730 202 730 121 l 730 264 l 822 264 l 822 198 q 789 85 822 134 q 604 -3 731 -3 q 430 80 488 -1 q 259 -3 374 -1 q 136 28 190 -3 q 41 198 41 83 m 50 640 q 60 662 54 651 q 259 769 115 769 q 431 690 369 765 q 438 699 434 694 q 602 769 496 769 q 633 768 617 769 q 811 640 769 754 l 728 613 q 602 684 703 682 q 540 670 568 684 q 475 556 475 639 l 475 545 l 650 545 q 822 387 819 544 l 822 331 l 730 331 l 730 380 q 730 387 730 382 q 643 461 726 461 l 220 461 q 205 461 213 461 q 133 380 134 456 l 133 331 l 41 331 l 41 387 q 213 545 42 543 l 387 545 l 387 556 q 377 610 387 585 q 260 684 347 684 q 134 613 160 682 l 50 640 "},"ඎ":{"ha":1801,"x_min":41,"x_max":1767,"o":"m 41 198 l 41 264 l 133 264 l 133 202 q 141 156 133 178 q 259 90 170 90 q 307 96 285 90 q 387 203 387 119 l 387 264 l 475 264 l 475 203 q 484 155 475 178 q 602 90 513 90 q 652 96 629 90 q 730 202 730 121 l 730 264 l 822 264 l 822 198 q 789 85 822 134 q 604 -3 731 -3 q 430 80 488 -1 q 259 -3 374 -1 q 136 28 190 -3 q 41 198 41 83 m 50 640 q 60 662 54 651 q 259 769 115 769 q 431 690 369 765 q 438 699 434 694 q 602 769 496 769 q 633 768 617 769 q 811 640 769 754 l 728 613 q 602 684 703 682 q 540 670 568 684 q 475 556 475 639 l 475 545 l 650 545 q 822 387 819 544 l 822 331 l 730 331 l 730 380 q 730 387 730 382 q 643 461 726 461 l 220 461 q 205 461 213 461 q 133 380 134 456 l 133 331 l 41 331 l 41 387 q 213 545 42 543 l 387 545 l 387 556 q 377 610 387 585 q 260 684 347 684 q 134 613 160 682 l 50 640 m 1104 0 q 993 34 1043 0 q 910 194 910 91 q 941 300 910 252 q 1104 385 997 385 l 1145 385 l 1145 302 l 1104 302 q 1050 289 1076 302 q 994 194 994 258 q 1009 138 994 165 q 1104 84 1042 84 q 1158 99 1134 84 q 1213 194 1213 130 l 1213 534 q 1208 582 1213 559 q 1108 681 1191 681 l 986 681 l 986 769 l 1114 769 q 1199 750 1161 769 q 1298 541 1298 699 l 1298 194 q 1259 75 1298 127 q 1104 0 1200 0 m 1573 0 q 1462 34 1512 0 q 1379 194 1379 91 q 1411 300 1379 252 q 1573 385 1466 385 l 1613 385 l 1613 302 l 1573 302 q 1519 289 1545 302 q 1463 194 1463 258 q 1478 138 1463 165 q 1573 84 1511 84 q 1628 99 1603 84 q 1682 194 1682 130 l 1682 534 q 1678 582 1682 559 q 1577 681 1660 681 l 1455 681 l 1455 769 l 1581 769 q 1670 749 1630 769 q 1767 541 1767 696 l 1767 194 q 1728 75 1767 127 q 1573 0 1670 0 "},"/":{"ha":441,"x_min":58,"x_max":382,"o":"m 58 -22 l 146 -22 l 382 981 l 296 981 l 58 -22 "}," ":{"ha":321,"x_min":0,"x_max":0,"o":""},"£":{"ha":538,"x_min":27,"x_max":509,"o":"m 27 423 l 109 423 l 109 0 l 507 0 l 507 79 l 198 79 l 198 426 l 393 426 l 393 505 l 198 505 l 198 739 q 212 804 198 774 q 323 871 244 871 q 437 795 395 869 l 509 830 q 401 939 479 909 q 317 955 365 955 l 315 955 q 191 917 243 955 q 109 735 109 857 l 109 502 l 27 502 l 27 423 "},"∑":{"ha":802,"x_min":41,"x_max":716,"o":"m 254 860 l 716 860 l 716 952 l 191 952 l 191 940 l 254 860 m 41 -190 l 716 -190 l 716 -94 l 157 -95 l 525 397 l 102 952 l 41 952 l 41 879 l 407 399 l 41 -94 l 41 -190 "},"t":{"ha":369,"x_min":24,"x_max":365,"o":"m 24 621 l 113 621 l 113 235 q 126 125 113 170 q 328 0 163 1 l 365 0 l 346 90 l 334 90 q 271 98 298 90 q 203 221 203 121 l 203 621 l 289 621 l 289 708 l 203 708 l 203 955 l 113 955 l 113 708 l 24 708 l 24 621 "},"ť":{"ha":452,"x_min":24,"x_max":410,"o":"m 273 766 l 359 766 l 410 972 l 323 972 l 273 766 m 24 621 l 113 621 l 113 235 q 126 125 113 170 q 328 0 163 1 l 365 0 l 346 90 l 334 90 q 271 98 298 90 q 203 221 203 121 l 203 621 l 289 621 l 289 708 l 203 708 l 203 955 l 113 955 l 113 708 l 24 708 l 24 621 "},"þ":{"ha":572,"x_min":41,"x_max":537,"o":"m 41 -247 l 127 -247 l 127 949 l 41 949 l 41 -247 m 187 618 l 309 618 q 380 605 347 618 q 453 498 453 572 l 453 209 q 441 151 453 176 q 317 81 408 83 l 197 81 l 197 0 l 315 0 q 476 61 412 0 q 537 189 537 118 l 537 510 q 500 609 537 557 q 309 701 431 701 l 187 701 l 187 618 "},"¾":{"ha":827,"x_min":50,"x_max":799,"o":"m 214 471 q 282 487 251 471 q 349 602 349 522 q 297 711 349 674 q 349 817 347 745 q 332 883 349 852 q 214 949 296 949 l 214 891 q 239 888 227 891 q 292 814 292 875 q 290 800 292 808 q 208 736 279 736 l 191 736 l 191 684 l 208 684 q 250 675 231 684 q 292 606 292 656 q 290 589 292 598 q 214 529 279 529 l 214 471 m 680 0 l 739 0 l 739 83 l 776 83 l 776 138 l 739 138 l 739 475 l 680 475 l 680 0 m 464 83 l 647 83 l 647 138 l 530 138 l 647 339 l 647 452 l 464 138 l 464 83 m 50 597 q 66 543 53 568 q 176 469 102 475 l 176 529 q 168 530 172 529 q 106 608 113 540 l 50 597 m 50 823 l 106 811 q 122 859 109 838 q 176 891 142 891 l 176 949 q 117 932 145 947 q 50 823 56 895 m 148 0 l 216 0 l 799 949 l 734 949 l 148 0 "},"³":{"ha":308,"x_min":26,"x_max":281,"o":"m 160 525 q 220 540 193 525 q 281 643 281 572 q 237 736 281 705 q 281 833 279 768 q 266 891 281 864 q 160 949 233 949 l 160 902 q 180 899 170 902 q 233 833 233 886 q 231 815 233 825 q 149 761 217 761 l 149 713 q 184 708 168 713 q 233 644 233 693 q 228 616 233 629 q 160 572 210 575 l 160 525 m 26 629 q 35 589 27 609 q 129 525 64 529 l 129 572 l 127 572 q 122 573 125 572 q 117 575 119 574 q 110 578 114 576 q 102 583 106 581 q 94 589 98 586 q 86 597 90 593 q 79 608 83 602 q 74 622 76 614 q 71 639 72 629 l 26 629 m 26 845 l 71 837 q 84 875 73 859 q 129 902 102 902 l 129 949 q 79 935 102 948 q 26 845 28 903 "},"˜":{"ha":452,"x_min":35,"x_max":416,"o":"m 35 172 q 125 202 83 201 q 202 179 156 202 q 302 148 266 148 q 416 186 354 148 l 416 262 q 308 224 355 225 q 227 248 274 224 q 130 279 164 279 q 35 250 88 279 l 35 172 "},"™":{"ha":605,"x_min":35,"x_max":511,"o":"m 35 910 l 106 910 l 106 658 l 146 658 l 146 910 l 217 910 l 217 948 l 35 948 l 35 910 m 247 658 l 288 658 l 288 787 l 254 867 l 247 867 l 247 658 m 248 930 l 362 658 l 385 658 l 454 815 l 454 888 l 446 888 l 373 728 l 283 948 l 248 948 l 248 930 m 472 658 l 511 658 l 511 948 l 472 948 l 472 658 "},"²":{"ha":311,"x_min":23,"x_max":283,"o":"m 23 846 l 69 837 q 83 875 72 859 q 132 903 102 903 l 132 951 q 79 935 104 949 q 23 846 27 903 m 31 526 l 277 526 l 277 575 l 31 575 l 31 526 m 31 602 l 87 602 q 94 635 87 618 q 175 701 109 666 q 201 715 193 709 q 283 833 282 762 q 278 871 283 852 q 161 951 256 951 l 161 903 q 197 897 182 903 q 236 833 236 878 q 235 819 236 826 q 165 749 227 785 q 136 732 163 747 q 31 602 31 677 "},"u":{"ha":624,"x_min":52,"x_max":572,"o":"m 52 191 q 85 94 52 145 q 283 -7 153 -7 l 283 83 q 195 111 236 83 q 142 202 142 151 l 142 719 l 52 719 l 52 191 m 342 -7 q 517 69 446 -5 q 572 191 572 130 l 572 719 l 481 719 l 481 202 q 464 146 481 175 q 342 83 422 83 l 342 -7 "},"ú":{"ha":624,"x_min":52,"x_max":572,"o":"m 307 802 l 369 802 l 444 1008 l 357 1008 l 307 802 m 52 191 q 85 94 52 145 q 283 -7 153 -7 l 283 83 q 195 111 236 83 q 142 202 142 151 l 142 719 l 52 719 l 52 191 m 342 -7 q 517 69 446 -5 q 572 191 572 130 l 572 719 l 481 719 l 481 202 q 464 146 481 175 q 342 83 422 83 l 342 -7 "},"û":{"ha":624,"x_min":52,"x_max":572,"o":"m 180 802 l 247 802 l 311 933 l 376 802 l 442 802 l 339 1008 l 282 1008 l 180 802 m 52 191 q 85 94 52 145 q 283 -7 153 -7 l 283 83 q 195 111 236 83 q 142 202 142 151 l 142 719 l 52 719 l 52 191 m 342 -7 q 517 69 446 -5 q 572 191 572 130 l 572 719 l 481 719 l 481 202 q 464 146 481 175 q 342 83 422 83 l 342 -7 "},"ü":{"ha":624,"x_min":52,"x_max":572,"o":"m 175 857 q 179 836 175 846 q 231 802 194 802 q 250 804 240 802 q 286 857 286 818 q 283 876 286 867 q 231 911 270 911 q 210 907 221 911 q 175 857 175 894 m 338 857 q 342 836 338 846 q 393 802 357 802 q 412 804 403 802 q 449 857 449 818 q 446 876 449 867 q 393 911 433 911 q 373 907 384 911 q 338 857 338 894 m 52 191 q 85 94 52 145 q 283 -7 153 -7 l 283 83 q 195 111 236 83 q 142 202 142 151 l 142 719 l 52 719 l 52 191 m 342 -7 q 517 69 446 -5 q 572 191 572 130 l 572 719 l 481 719 l 481 202 q 464 146 481 175 q 342 83 422 83 l 342 -7 "},"ù":{"ha":624,"x_min":52,"x_max":572,"o":"m 205 1008 l 279 802 l 342 802 l 292 1008 l 205 1008 m 52 191 q 85 94 52 145 q 283 -7 153 -7 l 283 83 q 195 111 236 83 q 142 202 142 151 l 142 719 l 52 719 l 52 191 m 342 -7 q 517 69 446 -5 q 572 191 572 130 l 572 719 l 481 719 l 481 202 q 464 146 481 175 q 342 83 422 83 l 342 -7 "},"ű":{"ha":624,"x_min":52,"x_max":572,"o":"m 349 802 l 411 802 l 486 1008 l 399 1008 l 349 802 m 202 802 l 264 802 l 339 1008 l 252 1008 l 202 802 m 52 191 q 85 94 52 145 q 283 -7 153 -7 l 283 83 q 195 111 236 83 q 142 202 142 151 l 142 719 l 52 719 l 52 191 m 342 -7 q 517 69 446 -5 q 572 191 572 130 l 572 719 l 481 719 l 481 202 q 464 146 481 175 q 342 83 422 83 l 342 -7 "},"ū":{"ha":624,"x_min":52,"x_max":572,"o":"m 98 803 l 526 803 l 526 863 l 98 863 l 98 803 m 52 191 q 85 94 52 145 q 283 -7 153 -7 l 283 83 q 195 111 236 83 q 142 202 142 151 l 142 719 l 52 719 l 52 191 m 342 -7 q 517 69 446 -5 q 572 191 572 130 l 572 719 l 481 719 l 481 202 q 464 146 481 175 q 342 83 422 83 l 342 -7 "},"_":{"ha":711,"x_min":50,"x_max":661,"o":"m 50 -201 l 50 -278 l 661 -278 l 661 -201 l 50 -201 "},"­":{"ha":510,"x_min":31,"x_max":460,"o":"m 31 355 l 460 355 l 460 441 l 31 441 l 31 355 "},"µ":{"ha":670,"x_min":53,"x_max":617,"o":"m 53 0 l 53 947 l 138 947 l 138 433 q 152 406 140 419 q 278 366 193 366 l 278 283 q 243 286 262 283 q 138 320 202 290 l 138 0 l 53 0 m 335 283 l 335 366 q 412 378 376 366 q 473 433 473 399 l 473 949 l 560 949 l 560 433 q 562 408 560 419 q 617 369 567 369 l 617 286 q 505 332 553 289 q 335 283 439 285 "},"Ģ":{"ha":696,"x_min":53,"x_max":643,"o":"m 263 -296 l 350 -296 l 400 -90 l 313 -90 l 263 -296 m 53 260 q 160 50 54 129 q 323 -7 240 -7 l 323 84 q 252 104 293 84 q 146 260 146 155 l 146 689 q 182 792 146 745 q 323 865 235 865 l 323 956 q 121 865 201 956 q 53 711 57 792 l 53 260 m 388 -7 q 559 75 473 -5 q 643 239 643 156 l 643 479 l 388 479 l 388 392 l 551 392 l 551 258 q 492 137 549 193 q 388 84 437 84 l 388 -7 m 388 865 q 450 849 415 865 q 552 697 545 803 q 553 667 553 690 l 643 700 q 572 869 643 791 q 388 956 491 958 l 388 865 "},"ģ":{"ha":595,"x_min":37,"x_max":543,"o":"m 290 806 l 353 806 l 427 1012 l 340 1012 l 290 806 m 37 -250 l 330 -250 q 492 -171 426 -248 q 543 -53 543 -110 l 543 723 l 456 723 l 456 671 q 449 678 453 674 q 326 723 393 723 l 326 639 q 387 623 354 639 q 456 525 456 589 l 456 198 q 430 136 456 167 q 326 83 387 83 l 326 3 q 456 57 396 3 l 456 -53 q 441 -98 456 -75 q 311 -165 399 -161 l 60 -165 l 37 -250 m 49 197 q 79 106 49 155 q 266 3 142 3 l 266 87 q 183 117 221 87 q 137 198 137 153 l 137 526 q 155 575 137 549 q 266 639 195 639 l 266 723 q 103 652 170 722 q 49 530 50 593 l 49 197 "},"Ķ":{"ha":665,"x_min":56,"x_max":640,"o":"m 227 -289 l 313 -289 l 363 -83 l 277 -83 l 227 -289 m 56 0 l 148 0 l 148 949 l 56 949 l 56 0 m 206 463 l 538 0 l 640 0 l 309 463 l 635 949 l 533 949 l 206 463 "},"ķ":{"ha":637,"x_min":56,"x_max":610,"o":"m 213 -289 l 300 -289 l 350 -83 l 263 -83 l 213 -289 m 56 0 l 146 0 l 146 954 l 56 954 l 56 0 m 179 359 l 496 0 l 610 0 l 292 359 l 609 719 l 495 719 l 179 359 "},"Ļ":{"ha":590,"x_min":56,"x_max":566,"o":"m 233 -289 l 320 -289 l 370 -83 l 283 -83 l 233 -289 m 56 0 l 566 0 l 566 91 l 148 91 l 148 949 l 56 949 l 56 0 "},"ļ":{"ha":208,"x_min":8,"x_max":156,"o":"m 8 -293 l 95 -293 l 145 -87 l 58 -87 l 8 -293 m 62 0 l 156 0 l 156 954 l 62 954 l 62 0 "},"Ņ":{"ha":718,"x_min":57,"x_max":661,"o":"m 279 -289 l 366 -289 l 416 -83 l 330 -83 l 279 -289 m 57 0 l 149 0 l 149 637 l 68 769 l 57 769 l 57 0 m 57 891 l 614 0 l 661 0 l 661 115 l 138 949 l 57 949 l 57 891 m 568 374 l 650 240 l 661 240 l 661 949 l 568 949 l 568 374 "},"ņ":{"ha":624,"x_min":52,"x_max":572,"o":"m 233 -289 l 320 -289 l 370 -83 l 283 -83 l 233 -289 m 52 0 l 142 0 l 142 515 q 165 576 142 547 q 283 633 210 633 l 283 723 q 110 652 180 723 q 52 526 52 591 l 52 0 m 342 633 q 437 598 396 633 q 481 515 481 559 l 481 0 l 572 0 l 572 526 q 537 623 572 571 q 342 723 467 723 l 342 633 "},"Ŗ":{"ha":689,"x_min":57,"x_max":651,"o":"m 274 -289 l 361 -289 l 411 -83 l 324 -83 l 274 -289 m 57 0 l 149 0 l 149 949 l 57 949 l 57 0 m 214 419 l 385 419 q 481 397 445 420 q 543 241 533 363 l 563 0 l 651 0 l 628 294 q 627 305 628 298 q 528 463 613 423 q 621 686 620 522 q 374 949 620 937 l 214 949 l 214 867 l 350 867 q 406 861 380 867 q 530 682 530 838 q 528 632 530 655 q 376 505 509 505 l 214 505 l 214 419 "},"ŗ":{"ha":365,"x_min":7,"x_max":342,"o":"m 7 -289 l 94 -289 l 144 -83 l 57 -83 l 7 -289 m 57 0 l 148 0 l 148 416 q 193 553 148 487 q 320 635 248 633 l 342 722 l 327 722 q 243 703 283 722 q 148 613 176 671 l 148 720 l 57 720 l 57 0 "},"Ş":{"ha":671,"x_min":37,"x_max":635,"o":"m 151 -244 q 282 -203 229 -244 q 353 -54 353 -149 l 278 -54 q 266 -109 278 -84 q 151 -172 235 -172 l 151 -244 m 37 214 q 87 99 38 161 q 290 -4 168 -4 l 290 83 l 275 84 q 238 97 260 87 q 192 123 216 107 q 148 171 168 140 q 121 244 127 202 l 37 214 m 47 694 q 68 590 47 635 q 214 475 102 519 q 301 453 235 467 q 399 430 366 439 q 543 281 543 387 q 473 137 541 198 q 355 83 412 84 l 355 -4 q 544 73 461 -4 q 635 278 635 160 q 617 378 635 335 q 461 506 582 463 q 373 529 437 514 q 271 555 305 544 q 138 690 138 598 q 194 817 140 765 q 290 863 241 860 l 290 949 q 174 913 236 949 q 47 694 47 838 m 355 863 l 369 861 q 401 851 381 860 q 441 829 420 842 q 482 787 463 815 q 510 722 502 758 l 597 750 q 555 841 591 791 q 355 949 475 949 l 355 863 "},"ş":{"ha":578,"x_min":27,"x_max":551,"o":"m 214 -244 q 346 -203 293 -244 q 416 -54 416 -149 l 342 -54 q 330 -109 342 -84 q 214 -172 298 -172 l 214 -244 m 27 190 q 64 84 27 134 q 254 -7 129 -7 l 254 79 q 182 99 218 79 q 113 205 113 140 l 27 190 m 34 514 q 41 463 34 487 q 165 353 62 389 q 250 332 193 346 q 351 307 320 316 q 463 213 463 273 q 426 126 463 163 q 311 77 377 77 l 311 -7 q 448 28 387 -7 q 551 216 551 91 q 537 282 551 251 q 399 384 503 359 q 187 441 229 425 q 119 514 119 467 q 145 586 119 552 q 251 639 187 639 l 251 723 q 145 696 198 723 q 34 514 34 639 m 309 637 q 368 624 335 637 q 453 510 453 587 l 538 524 q 495 636 538 582 q 309 723 425 723 l 309 637 "},"Ţ":{"ha":637,"x_min":26,"x_max":613,"o":"m 149 -244 q 281 -203 228 -244 q 351 -54 351 -149 l 277 -54 q 264 -109 277 -84 q 149 -172 233 -172 l 149 -244 m 26 860 l 273 860 l 273 0 l 365 0 l 365 860 l 613 860 l 613 949 l 26 949 l 26 860 "},"ţ":{"ha":369,"x_min":24,"x_max":365,"o":"m 161 -241 q 293 -201 240 -241 q 363 -52 363 -146 l 289 -52 q 277 -106 289 -81 q 161 -170 245 -170 l 161 -241 m 24 621 l 113 621 l 113 235 q 126 125 113 170 q 328 0 163 1 l 365 0 l 346 90 l 334 90 q 271 98 298 90 q 203 221 203 121 l 203 621 l 289 621 l 289 708 l 203 708 l 203 955 l 113 955 l 113 708 l 24 708 l 24 621 "},"Ș":{"ha":671,"x_min":37,"x_max":635,"o":"m 236 -293 l 323 -293 l 373 -87 l 286 -87 l 236 -293 m 37 214 q 87 99 38 161 q 290 -4 168 -4 l 290 83 l 275 84 q 238 97 260 87 q 192 123 216 107 q 148 171 168 140 q 121 244 127 202 l 37 214 m 47 694 q 68 590 47 635 q 214 475 102 519 q 301 453 235 467 q 399 430 366 439 q 543 281 543 387 q 473 137 541 198 q 355 83 412 84 l 355 -4 q 544 73 461 -4 q 635 278 635 160 q 617 378 635 335 q 461 506 582 463 q 373 529 437 514 q 271 555 305 544 q 138 690 138 598 q 194 817 140 765 q 290 863 241 860 l 290 949 q 174 913 236 949 q 47 694 47 838 m 355 863 l 369 861 q 401 851 381 860 q 441 829 420 842 q 482 787 463 815 q 510 722 502 758 l 597 750 q 555 841 591 791 q 355 949 475 949 l 355 863 "},"ș":{"ha":578,"x_min":27,"x_max":551,"o":"m 189 -296 l 275 -296 l 326 -90 l 239 -90 l 189 -296 m 27 190 q 64 84 27 134 q 254 -7 129 -7 l 254 79 q 182 99 218 79 q 113 205 113 140 l 27 190 m 34 514 q 41 463 34 487 q 165 353 62 389 q 250 332 193 346 q 351 307 320 316 q 463 213 463 273 q 426 126 463 163 q 311 77 377 77 l 311 -7 q 448 28 387 -7 q 551 216 551 91 q 537 282 551 251 q 399 384 503 359 q 187 441 229 425 q 119 514 119 467 q 145 586 119 552 q 251 639 187 639 l 251 723 q 145 696 198 723 q 34 514 34 639 m 309 637 q 368 624 335 637 q 453 510 453 587 l 538 524 q 495 636 538 582 q 309 723 425 723 l 309 637 "},"Ț":{"ha":637,"x_min":26,"x_max":613,"o":"m 224 -289 l 311 -289 l 361 -83 l 274 -83 l 224 -289 m 26 860 l 273 860 l 273 0 l 365 0 l 365 860 l 613 860 l 613 949 l 26 949 l 26 860 "},"ț":{"ha":369,"x_min":24,"x_max":365,"o":"m 197 -289 l 283 -289 l 334 -83 l 247 -83 l 197 -289 m 24 621 l 113 621 l 113 235 q 126 125 113 170 q 328 0 163 1 l 365 0 l 346 90 l 334 90 q 271 98 298 90 q 203 221 203 121 l 203 621 l 289 621 l 289 708 l 203 708 l 203 955 l 113 955 l 113 708 l 24 708 l 24 621 "},"ˉ":{"ha":564,"x_min":68,"x_max":496,"o":"m 68 723 l 496 723 l 496 783 l 68 783 l 68 723 "},"ℓ":{"ha":254,"x_min":84,"x_max":293,"o":"m 84 239 q 134 66 84 133 q 293 -8 194 -8 l 293 84 q 269 87 281 84 q 174 239 174 104 l 174 948 l 84 948 l 84 239 "},"Ω":{"ha":590,"x_min":31,"x_max":572,"o":"m 31 -1 l 274 -1 l 274 81 q 183 117 224 81 q 136 210 136 159 l 136 494 q 151 548 136 519 q 274 618 189 618 l 274 701 q 107 632 175 701 q 52 511 52 574 l 52 193 q 53 178 52 186 q 127 53 64 106 l 31 53 l 31 -1 m 335 -1 l 572 -1 l 572 53 l 477 53 q 498 72 487 61 q 552 193 552 132 l 552 511 q 521 602 552 555 q 335 701 457 701 l 335 618 q 420 587 384 618 q 468 494 468 547 l 468 208 q 453 152 468 180 q 335 81 415 81 l 335 -1 "},"∆":{"ha":711,"x_min":60,"x_max":651,"o":"m 60 0 l 651 0 l 392 955 l 309 955 l 538 87 l 165 87 l 324 681 l 290 819 l 279 819 l 60 0 "},"∕":{"ha":670,"x_min":9,"x_max":659,"o":"m 9 -1 l 76 -1 l 659 951 l 595 951 l 9 -1 "},"∙":{"ha":339,"x_min":50,"x_max":183,"o":"m 50 562 q 56 534 50 548 q 117 495 73 495 q 144 500 130 495 q 183 562 183 518 q 178 589 183 575 q 117 628 160 628 q 90 623 103 628 q 50 562 50 605 "},"圓":{"ha":1143,"x_min":68,"x_max":1081,"o":"m 68 662 l 113 662 l 113 783 l 137 783 l 137 827 l 113 827 l 113 947 l 68 947 l 68 662 m 159 783 l 183 783 l 183 662 l 229 662 l 229 947 l 183 947 l 183 827 l 159 827 l 159 783 m 269 662 l 315 662 l 315 947 l 269 947 l 269 662 m 332 819 l 395 662 l 441 662 l 378 819 l 439 947 l 393 947 l 332 819 m 483 214 q 515 125 484 175 q 681 4 576 27 l 681 -64 l 736 -64 l 736 83 q 701 91 736 83 q 568 244 589 127 l 483 214 m 494 694 q 514 590 494 635 q 661 475 548 519 q 736 454 678 468 l 736 552 q 718 557 727 555 q 585 690 585 598 q 640 817 586 765 q 736 863 688 860 l 736 1017 l 681 1017 l 681 937 q 618 910 650 928 q 494 694 494 837 m 802 -64 l 857 -64 l 857 4 q 991 76 932 20 q 1081 278 1081 161 q 1063 378 1081 335 q 907 506 1028 463 q 802 533 878 517 l 802 438 q 850 426 829 431 q 989 281 989 384 q 920 137 989 197 q 802 83 860 84 l 802 -64 m 802 863 l 814 861 q 847 851 827 860 q 888 829 867 842 q 928 787 909 815 q 958 722 948 758 l 1043 750 q 1017 812 1038 777 q 857 940 956 914 l 857 1017 l 802 1017 l 802 863 "},"ų":{"ha":624,"x_min":52,"x_max":572,"o":"m 479 -244 l 479 -172 q 423 -163 450 -172 q 351 -54 351 -134 l 277 -54 q 296 -140 277 -99 q 479 -244 346 -244 m 52 191 q 85 94 52 145 q 283 -7 153 -7 l 283 83 q 195 111 236 83 q 142 202 142 151 l 142 719 l 52 719 l 52 191 m 342 -7 q 517 69 446 -5 q 572 191 572 130 l 572 719 l 481 719 l 481 202 q 464 146 481 175 q 342 83 422 83 l 342 -7 "},"ů":{"ha":624,"x_min":52,"x_max":572,"o":"m 210 932 q 224 883 210 906 q 312 830 252 830 q 361 844 338 830 q 414 932 414 872 q 400 981 414 958 q 312 1034 372 1034 q 263 1020 286 1034 q 210 932 210 991 m 269 932 q 270 945 269 937 q 312 975 279 975 q 326 974 317 975 q 355 932 355 964 q 354 918 355 926 q 312 888 345 888 q 298 890 307 888 q 269 932 269 899 m 52 191 q 85 94 52 145 q 283 -7 153 -7 l 283 83 q 195 111 236 83 q 142 202 142 151 l 142 719 l 52 719 l 52 191 m 342 -7 q 517 69 446 -5 q 572 191 572 130 l 572 719 l 481 719 l 481 202 q 464 146 481 175 q 342 83 422 83 l 342 -7 "},"v":{"ha":563,"x_min":12,"x_max":551,"o":"m 12 719 l 252 0 l 301 0 l 331 83 l 113 719 l 12 719 m 302 301 l 346 176 l 362 176 l 551 719 l 450 719 l 302 301 "},"ඃ":{"ha":522,"x_min":42,"x_max":480,"o":"m 296 -9 l 313 -9 q 411 20 369 -9 q 480 174 480 72 q 463 260 480 220 q 313 357 420 357 l 296 357 l 296 279 q 345 267 321 279 q 395 175 395 240 q 388 136 395 155 q 296 69 366 69 l 296 -9 m 209 -9 l 228 -9 l 228 69 q 179 80 201 69 q 127 175 127 109 q 134 214 127 195 q 228 279 157 279 l 228 357 l 209 357 q 111 327 153 357 q 42 174 42 275 q 61 85 42 126 q 209 -9 103 -9 m 296 404 l 313 404 q 411 434 369 404 q 480 587 480 486 q 463 674 480 633 q 313 770 420 770 l 296 770 l 296 693 q 345 681 321 693 q 395 589 395 654 q 388 549 395 568 q 296 483 366 483 l 296 404 m 209 404 l 228 404 l 228 483 q 179 494 201 483 q 127 589 127 522 q 134 628 127 609 q 228 693 157 693 l 228 770 l 209 770 q 111 741 153 770 q 42 587 42 689 q 61 499 42 540 q 209 404 103 404 "},"w":{"ha":981,"x_min":12,"x_max":968,"o":"m 12 720 l 113 720 l 331 84 l 302 1 l 255 1 l 12 720 m 302 302 l 439 720 l 541 720 l 758 84 l 731 1 l 682 1 l 491 568 l 362 178 l 346 178 l 302 302 m 731 302 l 868 720 l 968 720 l 789 178 l 773 178 l 731 302 "},"x":{"ha":528,"x_min":11,"x_max":517,"o":"m 11 0 l 100 0 l 264 279 l 427 0 l 517 0 l 317 365 l 513 719 l 420 719 l 264 453 l 107 720 l 16 720 l 213 365 l 11 0 "},"y":{"ha":544,"x_min":7,"x_max":540,"o":"m 7 719 l 221 157 l 88 -254 l 179 -254 l 315 156 l 99 719 l 7 719 m 300 358 l 339 240 l 349 240 l 540 719 l 446 719 l 300 358 "},"ý":{"ha":544,"x_min":7,"x_max":540,"o":"m 266 806 l 328 806 l 403 1012 l 316 1012 l 266 806 m 7 719 l 221 157 l 88 -254 l 179 -254 l 315 156 l 99 719 l 7 719 m 300 358 l 339 240 l 349 240 l 540 719 l 446 719 l 300 358 "},"ÿ":{"ha":544,"x_min":7,"x_max":540,"o":"m 136 860 q 140 838 136 849 q 191 804 155 804 q 210 807 201 804 q 247 860 247 821 q 244 879 247 869 q 191 914 231 914 q 171 910 182 914 q 136 860 136 897 m 298 860 q 302 838 298 849 q 354 804 317 804 q 373 807 363 804 q 410 860 410 821 q 407 879 410 869 q 354 914 393 914 q 334 910 345 914 q 298 860 298 897 m 7 719 l 221 157 l 88 -254 l 179 -254 l 315 156 l 99 719 l 7 719 m 300 358 l 339 240 l 349 240 l 540 719 l 446 719 l 300 358 "},"¥":{"ha":612,"x_min":27,"x_max":593,"o":"m 264 0 l 264 240 l 27 240 l 27 296 l 264 296 l 264 370 l 27 370 l 27 425 l 247 425 l 69 947 l 161 947 l 311 519 l 458 947 l 551 947 l 374 425 l 593 425 l 593 370 l 355 370 l 355 296 l 593 296 l 593 240 l 355 240 l 355 0 l 264 0 "},"z":{"ha":494,"x_min":41,"x_max":453,"o":"m 41 0 l 453 0 l 453 87 l 141 87 l 453 637 l 453 719 l 41 719 l 41 632 l 354 632 l 42 85 l 41 0 "},"ź":{"ha":494,"x_min":41,"x_max":453,"o":"m 216 802 l 278 802 l 353 1008 l 266 1008 l 216 802 m 41 0 l 453 0 l 453 87 l 141 87 l 453 637 l 453 719 l 41 719 l 41 632 l 354 632 l 42 85 l 41 0 "},"ž":{"ha":494,"x_min":41,"x_max":453,"o":"m 118 1008 l 221 802 l 277 802 l 380 1008 l 313 1008 l 250 876 l 184 1008 l 118 1008 m 41 0 l 453 0 l 453 87 l 141 87 l 453 637 l 453 719 l 41 719 l 41 632 l 354 632 l 42 85 l 41 0 "},"ż":{"ha":494,"x_min":41,"x_max":453,"o":"m 189 860 q 193 838 189 849 q 247 802 206 802 q 269 806 258 802 q 305 860 305 819 q 301 883 305 872 q 247 920 286 920 q 224 914 236 920 q 189 860 189 899 m 41 0 l 453 0 l 453 87 l 141 87 l 453 637 l 453 719 l 41 719 l 41 632 l 354 632 l 42 85 l 41 0 "},"‍":{"ha":0,"x_min":-243,"x_max":241,"o":"m -42 9 l -42 766 l -189 663 l -235 723 l -64 842 l -243 967 l -198 1025 l 0 887 l 198 1025 l 241 966 l 65 841 l 235 723 l 191 663 l 42 768 l 42 9 l -42 9 "},"‌":{"ha":0,"x_min":-43,"x_max":42,"o":"m -43 8 l 42 8 l 42 1021 l -43 1021 l -43 8 "}}}
